<svg xmlns="http://www.w3.org/2000/svg" width="366" height="88" viewBox="0 0 366 88" fill="none"><g clip-path="url(#clip0_378:241)"><path d="M130.522 20.9641C131.15 20.572 131.699 20.3368 132.248 19.9447C134.602 18.2978 135.151 15.9452 134.916 13.279C134.681 10.1422 133.033 8.18165 130.287 6.92693C128.718 6.29957 126.991 6.06431 125.344 6.14273C120.871 6.14273 116.399 6.22115 111.927 6.14273C110.358 6.06431 110.122 6.61325 110.122 8.02481C110.201 17.5921 110.122 27.0809 110.122 36.6481H128.168C128.718 36.4913 129.267 36.3344 129.816 36.1776C133.347 35.3934 135.936 32.2566 135.936 28.6493C136.014 24.5714 134.524 22.4541 130.522 20.9641ZM118.518 12.1811H124.481C126.364 12.2595 127.698 13.4358 127.698 15.161C127.855 16.8863 126.521 18.4547 124.795 18.6115H124.716C122.598 18.6899 120.558 18.6115 118.439 18.6899C117.968 18.6899 117.655 18.6115 117.655 17.9842V12.8869C117.576 12.2595 118.047 12.1811 118.518 12.1811ZM128.247 27.3161C128.325 29.0414 126.991 30.4529 125.265 30.5314C125.187 30.5314 125.187 30.5314 125.108 30.5314C122.911 30.6098 120.715 30.5314 118.518 30.6098C117.89 30.6098 117.576 30.4529 117.576 29.6687C117.655 27.8651 117.655 26.1398 117.655 24.2578C117.89 23.6304 118.439 23.8657 118.831 23.8657C121.028 23.8657 123.147 23.8657 125.344 23.9441C127.462 24.4146 128.325 25.5125 128.247 27.3161Z" fill="#F2F2F2"></path><path d="M174.931 15.6316C169.831 19.7095 168.89 27.7867 172.891 32.884C176.971 38.0598 185.445 39.0008 190.466 34.6877C191.643 33.6682 192.585 32.4919 193.291 31.0804C193.369 30.8451 193.84 30.3746 193.291 30.1393C191.408 29.6688 189.368 29.3551 187.485 28.963C187.328 28.963 187.171 29.0414 187.093 29.1983C186.465 30.2177 185.445 30.453 184.425 30.9235C182.071 32.0998 179.168 31.0804 177.991 28.7278C177.913 28.5709 177.913 28.4925 177.834 28.3357C177.442 27.3946 177.599 27.081 178.619 27.081C180.973 27.1594 183.326 27.081 185.759 27.081H192.977C193.526 27.081 194.076 27.0809 194.154 26.2967C194.232 23.0031 193.762 19.7879 191.565 17.3569C186.7 11.3969 179.089 12.338 174.931 15.6316ZM185.994 22.6894H178.854C177.913 22.6894 177.913 22.2973 178.305 21.67C179.168 20.1016 180.816 19.1605 182.62 19.0821C184.346 19.0037 185.994 19.9447 186.779 21.4347C187.171 22.2973 187.014 22.6894 185.994 22.6894Z" fill="#F2F2F2"></path><path d="M269.948 13.7495C267.515 13.7495 267.515 13.7495 267.515 16.1805C267.515 19.4741 267.515 22.7678 267.358 26.1398C267.437 27.8651 266.495 29.5119 264.926 30.2961C262.023 31.8645 259.12 29.904 258.963 26.4535C258.884 22.6894 258.884 18.9252 258.963 15.161C258.963 14.1416 258.806 13.5926 257.629 13.6711C256.138 13.7495 254.569 13.7495 253.078 13.6711C252.058 13.5926 251.823 14.0632 251.823 14.9258V27.9435C251.901 29.3551 252.137 30.7666 252.608 32.0998C253.628 35.2366 258.884 38.3734 262.258 37.1187C264.141 36.5697 265.946 35.7071 267.515 34.5308C267.28 36.4129 268.3 36.5697 269.634 36.4129C271.36 36.3345 273.086 36.4129 274.812 36.3345V13.5142C273.164 13.7495 271.595 13.8279 269.948 13.7495Z" fill="#F2F2F2"></path><path d="M169.674 14.7689C169.674 14.0632 169.439 13.7495 168.654 13.7495C166.928 13.7495 165.202 13.8279 163.476 13.7495C162.534 13.7495 162.377 14.1416 162.377 14.9258V24.4146C162.456 25.6693 162.221 27.0025 161.75 28.1788C161.279 29.2767 160.337 30.1393 159.161 30.5314C156.257 31.4724 153.904 29.5903 153.747 26.2183C153.668 22.4541 153.668 18.7684 153.747 15.0826C153.747 14.1416 153.59 13.5926 152.491 13.7495C150.922 13.8279 149.274 13.8279 147.784 13.7495C146.999 13.7495 146.607 13.9847 146.607 14.8474C146.607 19.3957 146.528 24.0225 146.685 28.6493C146.842 34.6876 151.55 38.2165 157.434 37.1971C159.161 36.805 160.808 36.0208 162.142 34.9229C162.613 35.5503 161.907 36.805 163.319 36.7266C165.124 36.6481 166.85 36.7266 168.733 36.7266C169.439 36.7266 169.674 36.3345 169.674 35.7071C169.674 28.6493 169.674 21.6699 169.674 14.7689Z" fill="#F2F2F2"></path><path d="M238.485 13.2005C230.952 13.0437 225.931 18.4547 226.009 25.3556C226.088 32.2566 231.423 37.2755 238.563 37.2755C245.781 37.2755 250.881 32.0998 251.038 25.1204C251.274 17.8273 244.761 12.8084 238.485 13.2005ZM238.641 31.1587C235.425 31.1587 233.071 28.5709 233.071 25.1988C233.071 21.8267 235.503 19.2389 238.72 19.3957C241.78 19.4741 244.212 22.062 244.134 25.1988C244.134 25.2772 244.134 25.2772 244.134 25.3556C244.212 28.4924 241.78 31.0019 238.641 31.1587Z" fill="#F2F2F2"></path><path d="M317.103 21.5915C317.024 21.121 316.946 20.7289 316.946 20.2584C316.946 20.2584 316.789 19.3173 316.71 19.0036L316.632 18.9252V18.8468C313.729 12.73 307.53 11.3185 302.117 15.3179C301.96 15.4747 301.724 15.71 301.41 15.3963C301.646 13.8279 300.783 13.7495 299.606 13.7495C297.801 13.8279 296.075 13.7495 294.192 13.7495C294.192 16.1021 294.114 18.6115 294.114 20.9641C294.114 26.1399 294.192 31.4724 294.192 36.6481C295.997 36.6481 297.723 36.5697 299.606 36.6481C300.94 36.7266 301.489 36.4129 301.41 34.9229C301.332 32.0214 301.41 29.1982 301.41 26.2967C301.332 24.9636 301.567 23.7088 301.96 22.4541C302.352 21.2778 303.215 20.3368 304.392 19.8663C307.295 18.7684 309.806 20.6505 309.884 23.9441C309.963 27.7867 309.884 31.6293 309.884 35.315C309.884 36.256 310.12 36.5697 311.061 36.4913C312.944 36.4129 314.984 36.4913 316.867 36.4913C316.946 36.3345 317.024 36.256 317.103 36.0992C317.103 33.9819 317.024 22.7678 317.103 21.5915Z" fill="#F2F2F2"></path><path d="M223.577 6.06432C222.636 6.14274 221.772 6.06432 220.831 6.06432C217.849 6.06432 217.849 6.06432 217.849 9.20112V25.5909C217.849 28.4924 216.045 30.5314 213.299 30.6098C210.866 30.6882 209.533 29.8256 208.434 26.8456C208.042 25.7477 207.649 25.6693 206.708 25.8262C205.374 26.2183 203.962 26.4535 202.55 26.6104C201.216 26.7672 200.902 27.2377 201.294 28.6493C202.393 33.3545 206.473 36.805 211.337 37.1186C217.536 37.6676 221.537 35.7855 224.126 31.1587C224.597 30.2177 225.225 29.4335 225.303 28.2572C225.539 24.493 225.303 20.7289 225.46 17.5921C225.46 13.8279 225.382 10.7695 225.46 7.63272C225.382 6.45642 224.832 5.9859 223.577 6.06432Z" fill="#F2F2F2"></path><path d="M144.488 20.1799V5.12329C144.488 4.10383 144.331 3.55489 143.154 3.63331C141.585 3.71173 139.938 3.71173 138.447 3.63331C137.662 3.63331 137.27 3.79015 137.27 4.73119V35.3934C137.27 36.3345 137.662 36.4913 138.447 36.4913C139.938 36.4129 141.507 36.4129 142.998 36.4913C144.253 36.5697 144.567 36.0208 144.488 34.9229C144.41 30.1393 144.488 25.1988 144.488 20.1799Z" fill="#F2F2F2"></path><path d="M292.701 13.4358C290.19 13.2006 287.758 14.22 286.032 16.0237C285.561 16.4942 285.09 17.0431 284.384 17.9058V15.0042C284.463 14.22 284.149 13.8279 283.286 13.8279C281.795 13.9063 280.304 13.9063 278.814 13.8279C277.558 13.7495 277.166 14.0632 277.166 15.3963C277.244 21.121 277.166 27.0025 277.166 32.7272C277.087 34.0603 277.087 35.3934 277.244 36.7266C279.598 36.7266 281.952 36.6482 284.384 36.6482V36.5697H284.463C284.306 33.9819 284.306 31.3156 284.463 28.7277C284.384 24.1794 286.817 21.3562 291.289 20.9641C291.681 20.9641 292.074 20.9641 292.466 20.9641C293.172 20.9641 293.486 20.8073 293.564 19.9447C293.643 18.2194 293.721 16.4942 293.8 14.6905C293.878 13.8279 293.486 13.5927 292.701 13.4358Z" fill="#F2F2F2"></path><path d="M359.158 13.7495C358.452 13.5927 357.745 14.0632 357.589 14.8474C356.882 16.7295 356.019 18.6115 355.235 20.4152C354.293 22.5325 353.43 24.5715 352.489 26.6888C352.018 26.2967 351.704 25.7478 351.547 25.1988C350.213 21.7483 348.722 18.3763 347.389 14.9258C346.996 13.9848 346.604 13.6711 345.584 13.7495C343.466 13.8279 341.426 13.7495 339.307 13.7495L339.229 13.9848C342.21 20.9641 345.27 28.0219 348.252 35.0013C348.487 35.5503 348.409 36.1776 348.173 36.7266C347.232 38.9223 346.29 41.1181 345.349 43.2354C344.956 44.0196 345.113 44.3333 346.055 44.3333C347.859 44.2549 349.664 44.2549 351.626 44.3333C352.41 44.4117 353.116 43.9412 353.273 43.157C354.607 39.8634 356.019 36.6481 357.353 33.4329C358.295 31.2372 359.158 29.0414 360.256 26.9241C361.198 25.1988 361.59 23.0815 362.532 21.3562C363.787 18.9252 364.415 16.2589 365.827 13.5927C363.473 13.7495 361.355 13.7495 359.158 13.7495Z" fill="#F2F2F2"></path><path d="M322.124 16.1021C317.024 20.1799 316.083 28.2572 320.084 33.3545C324.164 38.5302 332.638 39.4713 337.659 35.1582C338.836 34.1387 339.778 32.9624 340.484 31.5508C340.562 31.3156 341.033 30.8451 340.484 30.6098C338.601 30.1393 336.561 29.8256 334.678 29.4335C334.521 29.4335 334.364 29.5119 334.286 29.6688C333.658 30.6882 332.638 30.9235 331.618 31.394C329.264 32.5703 326.361 31.5508 325.184 29.1982C325.106 29.0414 325.106 28.963 325.027 28.8061C324.635 27.8651 324.792 27.5514 325.812 27.5514C328.166 27.6298 330.519 27.5514 332.952 27.5514H340.17C340.719 27.5514 341.269 27.5514 341.347 26.7672C341.426 23.4736 340.955 20.2584 338.758 17.8273C334.599 12.8085 327.224 12.1027 322.124 16.1021ZM333.109 23.0031H325.969C325.027 23.0031 325.027 22.611 325.42 21.9836C326.283 20.4152 327.93 19.4742 329.735 19.3957C331.461 19.3173 333.109 20.2584 333.893 21.7483C334.286 22.7678 334.129 23.1599 333.109 23.0031Z" fill="#F2F2F2"></path><path d="M122.99 51.9401C122.99 53.9006 122.362 55.3121 121.185 56.41C120.008 57.5079 118.282 57.9784 116.007 57.9784H114.281V64.3304H110.436V46.2938H116.242C118.439 46.2938 120.087 46.7643 121.185 47.7054C122.362 48.6464 122.99 50.1364 122.99 51.9401ZM114.281 54.8416H115.458C116.635 54.8416 117.498 54.6063 118.125 54.1358C118.753 53.6653 118.988 53.0379 118.988 52.0969C118.988 51.2343 118.753 50.5285 118.282 50.058C117.811 49.5875 117.105 49.4306 116.007 49.4306H114.281V54.8416Z" fill="#F2F2F2"></path><path d="M138.604 57.5079C138.604 59.7821 137.976 61.5073 136.799 62.8405C135.622 64.1736 133.896 64.801 131.856 64.801C130.522 64.801 129.345 64.5657 128.325 63.9384C127.305 63.311 126.521 62.5268 126.05 61.4289C125.579 60.331 125.187 58.9979 125.187 57.5863C125.187 55.3122 125.814 53.5869 126.991 52.2538C128.168 51.0775 129.894 50.2933 131.934 50.2933C133.268 50.2933 134.445 50.5285 135.465 51.1559C136.407 51.7833 137.27 52.5675 137.741 53.6653C138.29 54.6848 138.604 56.0179 138.604 57.5079ZM129.031 57.5079C129.031 58.8411 129.267 59.9389 129.738 60.6447C130.208 61.3505 130.914 61.7426 131.934 61.7426C132.876 61.7426 133.661 61.3505 134.131 60.6447C134.602 59.9389 134.759 58.9195 134.759 57.5079C134.759 56.1748 134.524 55.0769 134.053 54.3711C133.582 53.6653 132.876 53.2732 131.856 53.2732C130.914 53.2732 130.13 53.6653 129.659 54.2143C129.267 55.0769 129.031 56.0179 129.031 57.5079Z" fill="#F2F2F2"></path><path d="M153.119 64.3304L152.021 59.5468L150.608 53.43H150.451L147.941 64.4088H143.861L139.859 50.5285H143.625L145.194 56.6453C145.43 57.7431 145.665 59.3115 145.901 61.1936H145.979C145.979 60.5663 146.136 59.6252 146.45 58.2137L146.685 57.1158L148.411 50.5285H152.491L154.061 57.1158C154.061 57.351 154.218 57.5863 154.218 57.9784C154.218 58.3705 154.374 58.6842 154.453 59.0763C154.61 59.4684 154.61 59.9389 154.61 60.2526C154.61 60.6447 154.767 60.9584 154.767 61.1936H154.924C155.081 60.5663 155.159 59.7821 155.316 58.7626C155.551 57.6647 155.708 57.0374 155.708 56.7237L157.434 50.6069H161.201L156.964 64.4873H153.119V64.3304Z" fill="#F2F2F2"></path><path d="M169.596 64.5656C167.399 64.5656 165.594 63.9383 164.417 62.762C163.24 61.5857 162.456 59.782 162.456 57.5863C162.456 55.3121 163.083 53.5084 164.182 52.1753C165.359 50.999 166.928 50.2148 168.968 50.2148C170.93 50.2148 172.499 50.8421 173.519 51.94C174.617 53.0379 175.245 54.6063 175.245 56.4884V58.292H166.379C166.379 59.3899 166.771 60.2525 167.32 60.8015C167.87 61.3504 168.733 61.6641 169.831 61.6641C170.694 61.6641 171.4 61.5073 172.263 61.4288C173.127 61.3504 173.833 60.9583 174.539 60.5662V63.4678C173.911 63.8599 173.205 64.0951 172.342 64.1735C171.636 64.5656 170.694 64.5656 169.596 64.5656ZM169.125 53.0379C168.262 53.0379 167.713 53.2732 167.163 53.7437C166.693 54.2142 166.457 54.92 166.457 55.9394H171.793C171.793 54.9984 171.557 54.2142 171.087 53.7437C170.616 53.2732 169.831 53.0379 169.125 53.0379Z" fill="#F2F2F2"></path><path d="M185.994 50.2148C186.465 50.2148 186.936 50.2148 187.328 50.3716L187.093 53.9005C186.7 53.7437 186.386 53.7437 185.994 53.7437C184.817 53.7437 183.797 54.1358 183.248 54.6847C182.542 55.3121 182.306 56.0963 182.306 57.351V64.3304H178.305V50.6069H181.208L181.836 52.8811H181.993C182.463 52.1753 182.934 51.4695 183.719 50.9206C184.425 50.45 185.131 50.2148 185.994 50.2148Z" fill="#F2F2F2"></path><path d="M196.116 64.5656C193.919 64.5656 192.114 63.9383 190.937 62.762C189.76 61.5857 188.976 59.782 188.976 57.5863C188.976 55.3121 189.603 53.5084 190.702 52.1753C191.879 50.999 193.448 50.2148 195.488 50.2148C197.45 50.2148 199.019 50.8421 200.039 51.94C201.137 53.0379 201.765 54.6063 201.765 56.4884V58.292H192.742C192.742 59.3899 193.134 60.2525 193.683 60.8015C194.233 61.3504 195.096 61.6641 196.194 61.6641C197.057 61.6641 197.763 61.5073 198.626 61.4288C199.489 61.272 200.196 60.9583 200.902 60.5662V63.4678C200.274 63.8599 199.568 64.0951 198.705 64.1735C198.077 64.5656 197.214 64.5656 196.116 64.5656ZM195.488 53.0379C194.625 53.0379 194.076 53.2732 193.526 53.7437C193.056 54.2142 192.82 54.92 192.82 55.9394H198.156C198.156 54.9984 197.92 54.2142 197.45 53.7437C196.979 53.2732 196.351 53.0379 195.488 53.0379Z" fill="#F2F2F2"></path><path d="M209.14 64.5657C207.571 64.5657 206.237 63.9383 205.296 62.6052C204.354 61.4289 203.883 59.6252 203.883 57.4295C203.883 55.1553 204.354 53.4301 205.296 52.0969C206.237 50.9206 207.571 50.1364 209.14 50.1364C210.866 50.1364 212.122 50.8422 213.142 52.1753H213.299C213.063 51.0775 213.063 50.2148 213.063 49.4306V44.9607H216.908V64.252H214.005L213.299 62.4484H213.142C212.122 64.0168 210.945 64.5657 209.14 64.5657ZM210.474 61.5857C211.416 61.5857 212.2 61.3505 212.671 60.7231C213.142 60.0958 213.377 59.1547 213.377 57.8216V57.4295C213.377 56.0179 213.142 54.92 212.671 54.2927C212.2 53.6653 211.494 53.3516 210.396 53.3516C209.532 53.3516 208.983 53.7437 208.434 54.4495C207.963 55.1553 207.728 56.2532 207.728 57.5863C207.728 58.9195 207.963 60.0173 208.434 60.5663C208.905 61.3505 209.611 61.5857 210.474 61.5857Z" fill="#F2F2F2"></path><path d="M235.032 50.2148C236.758 50.2148 237.935 50.8421 238.877 52.1753C239.818 53.5084 240.211 55.1552 240.211 57.351C240.211 59.6252 239.74 61.4288 238.798 62.6836C237.857 63.9383 236.523 64.6441 234.954 64.6441C233.385 64.6441 232.051 64.0167 231.109 62.8404H230.874L230.246 64.4088H227.343V45.0391H231.109V49.509C231.109 50.1364 231.109 50.9206 230.952 52.2537H231.109C232.051 50.999 233.385 50.2148 235.032 50.2148ZM233.855 53.2732C232.914 53.2732 232.286 53.5084 231.815 54.1358C231.345 54.7631 231.188 55.7042 231.109 57.0373V57.351C231.109 58.7626 231.345 59.8604 231.737 60.4878C232.129 61.1152 232.835 61.4288 233.777 61.4288C234.483 61.4288 235.189 61.0367 235.582 60.331C236.052 59.6252 236.288 58.5273 236.288 57.1942C236.288 55.861 236.052 54.7631 235.582 54.2142C235.268 53.5868 234.718 53.2732 233.855 53.2732Z" fill="#F2F2F2"></path><path d="M241.466 50.6069H245.546L248.214 58.4489C248.449 59.1547 248.606 59.8605 248.684 60.88H248.841C248.998 60.0173 249.077 59.1547 249.312 58.4489L251.823 50.6069H255.903L250.018 66.1341C249.548 67.5457 248.684 68.6435 247.743 69.3493C246.801 70.0551 245.546 70.4472 244.212 70.4472C243.585 70.4472 242.878 70.2904 242.251 70.2119V67.232C242.721 67.3888 243.192 67.3888 243.663 67.3888C244.369 67.3888 244.84 67.1536 245.468 66.7615C245.938 66.3694 246.331 65.8204 246.644 64.9578L246.88 64.252L241.466 50.6069Z" fill="#F2F2F2"></path><path d="M270.104 61.5857C270.732 61.5857 271.517 61.4289 272.537 61.1152V63.8599C271.595 64.252 270.497 64.4873 269.006 64.4873C267.437 64.4873 266.338 64.0952 265.789 63.3894C265.083 62.6836 264.691 61.4289 264.691 60.0173V53.4301H262.886V51.8617L264.926 50.6854L266.024 47.7838H268.457V50.6854H272.301V53.4301H268.457V60.0173C268.457 60.4879 268.614 60.9584 268.927 61.1936C269.241 61.4289 269.634 61.5857 270.104 61.5857Z" fill="#F2F2F2"></path><path d="M288.072 64.3304H284.306V56.2531C284.306 54.2142 283.6 53.2732 282.109 53.2732C281.01 53.2732 280.304 53.6653 279.834 54.371C279.363 55.0768 279.127 56.3315 279.127 57.9V64.4088H275.44V45.0391H279.206V48.8816C279.206 49.2737 279.206 49.8227 279.049 51.0774L278.892 52.1753H279.127C279.99 50.8421 281.324 50.1364 283.129 50.1364C284.698 50.1364 286.032 50.6069 286.895 51.4695C287.758 52.3321 288.072 53.6653 288.072 55.2337V64.3304Z" fill="#F2F2F2"></path><path d="M298.194 64.5656C295.997 64.5656 294.192 63.9383 293.015 62.762C291.838 61.5857 291.054 59.782 291.054 57.5863C291.054 55.3121 291.681 53.5084 292.78 52.1753C293.957 50.999 295.526 50.2148 297.566 50.2148C299.527 50.2148 301.097 50.8421 302.117 51.94C303.215 53.0379 303.843 54.6063 303.843 56.4884V58.292H294.898C294.898 59.3899 295.29 60.2525 295.84 60.8015C296.389 61.3504 297.252 61.6641 298.35 61.6641C299.214 61.6641 299.92 61.5073 300.783 61.4288C301.646 61.3504 302.352 60.9583 303.058 60.5662V63.4678C302.43 63.8599 301.724 64.0951 300.861 64.1735C300.234 64.5656 299.292 64.5656 298.194 64.5656ZM297.723 53.0379C296.86 53.0379 296.31 53.2732 295.761 53.7437C295.29 54.2142 295.055 54.92 295.055 55.9394H300.39C300.39 54.9984 300.155 54.2142 299.684 53.7437C299.214 53.2732 298.429 53.0379 297.723 53.0379Z" fill="#F2F2F2"></path><path d="M328.558 64.3304H324.713V56.4884H317.573V64.3304H313.729V46.2938H317.573V53.43H324.713V46.2938H328.558V64.3304Z" fill="#F2F2F2"></path><path d="M344.25 64.3304L342.916 60.0173H336.326L334.992 64.3304H330.912L337.267 46.137H341.975L348.33 64.3304H344.25ZM341.975 56.8805C340.798 53.0379 340.013 50.7637 339.935 50.2932C339.778 49.8227 339.699 49.3522 339.542 49.1169C339.307 50.2148 338.444 52.7242 337.267 56.9589H341.975V56.8805Z" fill="#F2F2F2"></path><path d="M361.747 64.3304L360.413 60.0173H353.822L352.489 64.3304H348.409L354.764 46.137H359.472L365.827 64.3304H361.747ZM359.472 56.8805C358.295 53.0379 357.51 50.7637 357.432 50.2932C357.275 49.8227 357.196 49.3522 357.039 49.1169C356.804 50.2148 355.941 52.7242 354.764 56.9589H359.472V56.8805Z" fill="#F2F2F2"></path><path d="M119.773 83.3865H117.341V78.3676H112.79V83.3865H110.436V71.9371H112.868V76.4855H117.419V71.9371H119.851L119.773 83.3865Z" fill="#F2F2F2"></path><path d="M128.796 83.3865L128.482 82.2102H128.325C128.09 82.6023 127.698 82.916 127.227 83.1512C126.756 83.3865 126.207 83.4649 125.579 83.4649C124.559 83.4649 123.775 83.1512 123.304 82.6023C122.755 82.0533 122.519 81.1907 122.519 80.2497V74.525H124.873V79.6223C124.873 80.2497 124.951 80.7202 125.187 81.1123C125.422 81.426 125.815 81.5828 126.285 81.5828C126.991 81.5828 127.462 81.3476 127.776 80.877C128.09 80.4065 128.247 79.6223 128.247 78.6813V74.525H130.601V83.3081L128.796 83.3865Z" fill="#F2F2F2"></path><path d="M141.036 83.3865H138.682V78.2892C138.682 77.6618 138.604 77.1913 138.368 76.7992C138.133 76.4855 137.819 76.3287 137.348 76.3287C136.721 76.3287 136.25 76.5639 136.014 77.0345C135.779 77.505 135.622 78.2892 135.622 79.2302V83.3865H133.268V74.6034H135.073L135.387 75.7797H135.544C135.779 75.3876 136.171 75.074 136.564 74.8387C137.034 74.6034 137.505 74.525 138.133 74.525C139.467 74.525 140.33 74.9955 140.801 75.8582H141.036C141.271 75.4661 141.664 75.1524 142.134 74.9171C142.605 74.6819 143.154 74.6034 143.704 74.6034C144.724 74.6034 145.43 74.8387 145.901 75.3876C146.45 75.9366 146.685 76.7208 146.685 77.8187V83.5433H144.331V78.446C144.331 77.8187 144.253 77.3481 144.017 76.956C143.782 76.6424 143.468 76.4855 142.997 76.4855C142.37 76.4855 141.977 76.7208 141.664 77.1129C141.35 77.505 141.193 78.2108 141.193 79.0734V83.3865H141.036Z" fill="#F2F2F2"></path><path d="M154.531 83.3865L154.06 82.1318H153.982C153.59 82.6807 153.119 82.9944 152.727 83.2297C152.256 83.465 151.707 83.5434 151 83.5434C150.137 83.5434 149.431 83.3081 149.039 82.8376C148.568 82.3671 148.333 81.6613 148.333 80.7987C148.333 79.8576 148.647 79.1519 149.353 78.7598C150.059 78.3677 151 78.054 152.334 77.9756L153.904 77.8971V77.505C153.904 76.564 153.433 76.1719 152.491 76.1719C151.785 76.1719 150.922 76.4072 150.059 76.7993L149.274 75.1524C150.294 74.6035 151.393 74.3682 152.648 74.3682C153.825 74.3682 154.688 74.6035 155.316 75.1524C155.943 75.7014 156.257 76.4856 156.257 77.505V83.3081L154.531 83.3865ZM153.825 79.3087H152.884C152.177 79.3087 151.628 79.4655 151.314 79.7008C151 79.936 150.765 80.3282 150.765 80.7987C150.765 81.5045 151.157 81.8181 151.942 81.8181C152.491 81.8181 152.962 81.6613 153.276 81.3476C153.59 81.0339 153.825 80.5634 153.825 80.0145V79.3087Z" fill="#F2F2F2"></path><path d="M166.771 83.3865H164.339V78.2892C164.339 77.6618 164.26 77.1913 164.025 76.7992C163.79 76.4855 163.397 76.3287 162.927 76.3287C162.22 76.3287 161.75 76.5639 161.436 77.0344C161.122 77.505 160.965 78.2892 160.965 79.2302V83.3865H158.611V74.6034H160.416L160.73 75.7797H160.887C161.122 75.3092 161.514 74.9955 161.985 74.7603C162.456 74.525 163.005 74.4466 163.633 74.4466C164.653 74.4466 165.359 74.7603 165.908 75.3092C166.457 75.8582 166.693 76.7208 166.693 77.6618L166.771 83.3865Z" fill="#F2F2F2"></path><path d="M169.203 72.3293C169.203 71.5451 169.674 71.153 170.537 71.153C171.4 71.153 171.871 71.5451 171.871 72.3293C171.871 72.7214 171.793 73.035 171.557 73.1919C171.322 73.4271 170.93 73.5056 170.537 73.5056C169.596 73.5056 169.203 73.1135 169.203 72.3293ZM171.636 83.3865H169.282V74.6034H171.636V83.3865Z" fill="#F2F2F2"></path><path d="M177.834 81.6613C178.226 81.6613 178.776 81.5828 179.403 81.3476V83.0728C178.776 83.3081 178.07 83.4649 177.207 83.4649C176.187 83.4649 175.48 83.2297 175.167 82.7591C174.696 82.2886 174.46 81.5044 174.46 80.6418V76.4071H173.283V75.3877L174.617 74.6035L175.323 72.7998H176.893V74.6035H179.325V76.3287H176.893V80.5634C176.893 80.8771 176.971 81.1907 177.207 81.3476C177.442 81.5044 177.52 81.6613 177.834 81.6613Z" fill="#F2F2F2"></path><path d="M186.779 83.3865L186.308 82.1318H186.23C185.837 82.6807 185.366 82.9944 184.974 83.2297C184.503 83.465 183.954 83.5434 183.248 83.5434C182.385 83.5434 181.679 83.3081 181.286 82.8376C180.816 82.3671 180.58 81.6613 180.58 80.7987C180.58 79.8576 180.894 79.1519 181.6 78.7598C182.306 78.3677 183.248 78.054 184.582 77.9756L186.151 77.8971V77.505C186.151 76.564 185.68 76.1719 184.739 76.1719C184.033 76.1719 183.17 76.4072 182.306 76.7993L181.522 75.1524C182.542 74.6035 183.64 74.3682 184.896 74.3682C186.073 74.3682 186.936 74.6035 187.563 75.1524C188.191 75.7014 188.505 76.4856 188.505 77.505V83.3081L186.779 83.3865ZM186.073 79.3087H185.131C184.425 79.3087 183.876 79.4655 183.562 79.7008C183.248 79.936 183.013 80.3282 183.013 80.7987C183.013 81.5045 183.405 81.8181 184.19 81.8181C184.739 81.8181 185.21 81.6613 185.523 81.3476C185.837 81.0339 186.073 80.5634 186.073 80.0145V79.3087Z" fill="#F2F2F2"></path><path d="M195.802 74.4466C196.116 74.4466 196.429 74.4466 196.665 74.525L196.508 76.7208C196.273 76.6423 196.037 76.6423 195.802 76.6423C195.017 76.6423 194.389 76.8776 194.076 77.2697C193.605 77.6618 193.448 78.2107 193.448 78.9949V83.4649H191.094V74.6034H192.899L193.291 76.0934H193.448C193.762 75.6229 194.076 75.1524 194.546 74.8387C194.703 74.6034 195.253 74.4466 195.802 74.4466Z" fill="#F2F2F2"></path><path d="M198.077 72.3293C198.077 71.5451 198.548 71.153 199.411 71.153C200.274 71.153 200.745 71.5451 200.745 72.3293C200.745 72.7214 200.666 73.035 200.431 73.1919C200.196 73.4271 199.882 73.5056 199.411 73.5056C198.548 73.5056 198.077 73.1135 198.077 72.3293ZM200.666 83.3865H198.313V74.6034H200.666V83.3865Z" fill="#F2F2F2"></path><path d="M208.669 83.3865L208.199 82.1318H208.12C207.728 82.6807 207.257 82.9944 206.865 83.2297C206.394 83.465 205.845 83.5434 205.139 83.5434C204.276 83.5434 203.569 83.3081 203.177 82.8376C202.785 82.3671 202.471 81.6613 202.471 80.7987C202.471 79.8576 202.785 79.1519 203.491 78.7598C204.197 78.2892 205.139 78.054 206.472 77.9756L208.042 77.8971V77.505C208.042 76.564 207.571 76.1719 206.629 76.1719C205.923 76.1719 205.06 76.4072 204.197 76.7993L203.412 75.1524C204.432 74.6035 205.531 74.3682 206.786 74.3682C207.963 74.3682 208.826 74.6035 209.454 75.1524C210.082 75.7014 210.396 76.4856 210.396 77.505V83.3081L208.669 83.3865ZM207.963 79.3087H207.022C206.316 79.3087 205.766 79.4655 205.452 79.7008C205.139 79.936 204.903 80.3282 204.903 80.7987C204.903 81.5045 205.296 81.8181 206.08 81.8181C206.629 81.8181 207.1 81.6613 207.414 81.3476C207.728 81.0339 207.963 80.5634 207.963 80.0145V79.3087Z" fill="#F2F2F2"></path><path d="M220.988 83.3865H218.634V78.2892C218.634 77.6618 218.556 77.1913 218.32 76.7992C218.085 76.4855 217.692 76.3287 217.222 76.3287C216.516 76.3287 216.045 76.5639 215.731 77.0344C215.417 77.505 215.26 78.2892 215.26 79.2302V83.3865H212.906V74.6034H214.711L215.025 75.7797H215.182C215.417 75.3092 215.809 74.9955 216.28 74.7603C216.751 74.525 217.3 74.4466 217.928 74.4466C218.948 74.4466 219.654 74.7603 220.203 75.3092C220.752 75.8582 220.988 76.7208 220.988 77.6618V83.3865Z" fill="#F2F2F2"></path><path d="M234.797 83.3865L233.934 80.6418H229.697L228.834 83.3865H226.245L230.325 71.7803H233.306L237.386 83.3865H234.797ZM233.463 78.6813C232.678 76.2503 232.208 74.7603 232.129 74.4466C232.051 74.1329 231.972 73.8193 231.894 73.6624C231.737 74.3682 231.188 75.9366 230.403 78.6813H233.463Z" fill="#F2F2F2"></path><path d="M246.88 83.3865H244.526V78.2892C244.526 77.6618 244.448 77.1913 244.212 76.7992C243.977 76.4855 243.585 76.3287 243.114 76.3287C242.408 76.3287 241.937 76.5639 241.623 77.0344C241.309 77.505 241.152 78.2892 241.152 79.2302V83.3865H238.72V74.6034H240.525L240.838 75.7797H240.995C241.231 75.3092 241.623 74.9955 242.094 74.7603C242.565 74.525 243.114 74.4466 243.742 74.4466C244.762 74.4466 245.468 74.7603 246.017 75.3092C246.566 75.8582 246.801 76.7208 246.801 77.6618L246.88 83.3865Z" fill="#F2F2F2"></path><path d="M249.155 72.3293C249.155 71.5451 249.626 71.153 250.489 71.153C251.352 71.153 251.823 71.5451 251.823 72.3293C251.823 72.7214 251.744 73.035 251.509 73.1919C251.274 73.4271 250.96 73.5056 250.489 73.5056C249.626 73.5056 249.155 73.1135 249.155 72.3293ZM251.744 83.3865H249.391V74.6034H251.744V83.3865Z" fill="#F2F2F2"></path><path d="M262.101 83.3865H259.748V78.2892C259.748 77.6618 259.669 77.1913 259.434 76.7992C259.198 76.4855 258.884 76.3287 258.414 76.3287C257.786 76.3287 257.315 76.5639 257.08 77.0345C256.844 77.505 256.688 78.2892 256.688 79.2302V83.3865H254.334V74.6034H256.138L256.452 75.7797H256.609C256.844 75.3876 257.237 75.074 257.629 74.8387C258.1 74.6034 258.571 74.525 259.198 74.525C260.532 74.525 261.395 74.9955 261.866 75.8582H262.101C262.337 75.4661 262.729 75.1524 263.2 74.9171C263.671 74.6819 264.22 74.6034 264.769 74.6034C265.789 74.6034 266.495 74.8387 266.966 75.3876C267.515 75.9366 267.751 76.7208 267.751 77.8187V83.5433H265.397V78.446C265.397 77.8187 265.318 77.3481 265.083 76.956C264.848 76.6424 264.534 76.4855 264.063 76.4855C263.435 76.4855 263.043 76.7208 262.729 77.1129C262.415 77.505 262.258 78.2108 262.258 79.0734V83.3865H262.101Z" fill="#F2F2F2"></path><path d="M275.597 83.3865L275.126 82.1318H275.048C274.655 82.6807 274.184 82.9944 273.792 83.2297C273.321 83.465 272.772 83.5434 272.066 83.5434C271.203 83.5434 270.497 83.3081 270.104 82.8376C269.712 82.3671 269.398 81.6613 269.398 80.7987C269.398 79.8576 269.712 79.1519 270.418 78.7598C271.124 78.2892 272.066 78.054 273.321 77.9756L274.891 77.8971V77.505C274.891 76.564 274.42 76.1719 273.478 76.1719C272.772 76.1719 271.909 76.4072 271.046 76.7993L270.261 75.1524C271.281 74.6035 272.38 74.3682 273.635 74.3682C274.812 74.3682 275.675 74.6035 276.303 75.1524C276.931 75.7014 277.244 76.4856 277.244 77.505V83.3081L275.597 83.3865ZM274.969 79.3087H274.028C273.321 79.3087 272.772 79.4655 272.458 79.7008C272.144 79.936 271.909 80.3282 271.909 80.7987C271.909 81.5045 272.301 81.8181 273.086 81.8181C273.635 81.8181 274.106 81.6613 274.42 81.3476C274.734 81.0339 274.969 80.5634 274.969 80.0145V79.3087Z" fill="#F2F2F2"></path><path d="M283.443 81.6613C283.835 81.6613 284.384 81.5828 285.012 81.3476V83.0728C284.384 83.3081 283.678 83.4649 282.815 83.4649C281.795 83.4649 281.089 83.2297 280.775 82.7591C280.304 82.2886 280.069 81.5044 280.069 80.6418V76.4071H278.892V75.3877L280.226 74.6035L281.011 72.7214H282.58V74.6035H285.012V76.3287H282.58V80.5634C282.58 80.8771 282.658 81.1907 282.894 81.3476C282.972 81.5044 283.129 81.6613 283.443 81.6613Z" fill="#F2F2F2"></path><path d="M286.66 72.3293C286.66 71.5451 287.13 71.153 287.994 71.153C288.857 71.153 289.327 71.5451 289.327 72.3293C289.327 72.7214 289.249 73.035 289.014 73.1919C288.778 73.4271 288.464 73.5056 287.994 73.5056C287.052 73.5056 286.66 73.1135 286.66 72.3293ZM289.17 83.3865H286.817V74.6034H289.17V83.3865Z" fill="#F2F2F2"></path><path d="M299.606 78.9165C299.606 80.4065 299.214 81.426 298.429 82.2886C297.644 83.1512 296.624 83.5433 295.291 83.5433C294.427 83.5433 293.643 83.3865 293.094 82.9944C292.466 82.6023 291.917 82.0533 291.603 81.3475C291.289 80.6418 291.054 79.7791 291.054 78.9165C291.054 77.4265 291.446 76.4071 292.231 75.5445C293.015 74.7603 294.035 74.2897 295.369 74.2897C296.232 74.2897 297.017 74.4466 297.566 74.8387C298.194 75.2308 298.743 75.7797 299.057 76.4855C299.449 77.1913 299.606 78.0539 299.606 78.9165ZM293.564 78.9165C293.564 79.7791 293.721 80.4849 294.035 80.877C294.349 81.2691 294.82 81.5828 295.447 81.5828C296.075 81.5828 296.546 81.3475 296.86 80.877C297.174 80.4065 297.252 79.7791 297.252 78.9165C297.252 78.0539 297.095 77.3481 296.781 76.956C296.467 76.4855 295.997 76.2502 295.369 76.2502C294.741 76.2502 294.271 76.4855 293.957 76.8776C293.721 77.4265 293.564 78.1323 293.564 78.9165Z" fill="#F2F2F2"></path><path d="M309.727 83.3865H307.374V78.2892C307.374 77.6618 307.295 77.1913 307.06 76.7992C306.824 76.4855 306.432 76.3287 305.961 76.3287C305.255 76.3287 304.784 76.5639 304.47 77.0344C304.157 77.505 304 78.2892 304 79.2302V83.3865H301.567V74.6034H303.372L303.686 75.7797H303.843C304.078 75.3092 304.47 74.9955 304.941 74.7603C305.412 74.525 305.961 74.4466 306.589 74.4466C307.609 74.4466 308.315 74.7603 308.864 75.3092C309.413 75.8582 309.649 76.7208 309.649 77.6618L309.727 83.3865Z" fill="#F2F2F2"></path><path d="M323.615 83.3865L322.752 80.6418H318.593L317.73 83.3865H315.141L319.221 71.7803H322.203L326.282 83.3865H323.615ZM322.281 78.6813C321.496 76.2503 321.026 74.7603 320.947 74.4466C320.869 74.1329 320.79 73.8193 320.712 73.6624C320.555 74.3682 320.006 75.9366 319.221 78.6813H322.281Z" fill="#F2F2F2"></path><path d="M331.069 83.5434C328.322 83.5434 326.91 81.975 326.91 78.995C326.91 77.505 327.302 76.4071 328.087 75.5445C328.872 74.7603 329.892 74.3682 331.304 74.3682C332.324 74.3682 333.187 74.6035 334.05 74.9956L333.344 76.7993C332.952 76.6424 332.559 76.4856 332.246 76.4072C331.932 76.3287 331.618 76.2503 331.226 76.2503C329.97 76.2503 329.421 77.1913 329.421 78.9166C329.421 80.6418 330.049 81.5045 331.226 81.5045C331.696 81.5045 332.167 81.426 332.559 81.3476C332.952 81.1908 333.344 81.0339 333.736 80.7203V82.7592C333.344 82.9944 332.952 83.1513 332.559 83.3081C332.245 83.465 331.696 83.5434 331.069 83.5434Z" fill="#F2F2F2"></path><path d="M339.542 81.6613C339.935 81.6613 340.484 81.5828 341.112 81.3476V83.0728C340.484 83.3081 339.778 83.4649 338.915 83.4649C338.052 83.4649 337.189 83.2297 336.875 82.7591C336.404 82.2886 336.169 81.5044 336.169 80.6418V76.4071H334.992V75.3877L336.326 74.6035L337.032 72.7214H338.601V74.6035H341.033V76.3287H338.601V80.5634C338.601 80.8771 338.679 81.1907 338.915 81.3476C338.993 81.5044 339.229 81.6613 339.542 81.6613Z" fill="#F2F2F2"></path><path d="M342.681 72.3293C342.681 71.5451 343.152 71.153 344.015 71.153C344.878 71.153 345.349 71.5451 345.349 72.3293C345.349 72.7214 345.27 73.035 345.035 73.1919C344.799 73.4271 344.486 73.5056 344.015 73.5056C343.152 73.5056 342.681 73.1135 342.681 72.3293ZM345.192 83.3865H342.838V74.6034H345.192V83.3865Z" fill="#F2F2F2"></path><path d="M355.705 78.9165C355.705 80.4065 355.313 81.426 354.529 82.2886C353.744 83.1512 352.724 83.5433 351.39 83.5433C350.527 83.5433 349.742 83.3865 349.193 82.9944C348.644 82.6023 348.016 82.0533 347.702 81.3475C347.389 80.6418 347.153 79.7791 347.153 78.9165C347.153 77.4265 347.546 76.4071 348.33 75.5445C349.115 74.7603 350.135 74.2897 351.469 74.2897C352.332 74.2897 353.116 74.4466 353.666 74.8387C354.293 75.2308 354.842 75.7797 355.156 76.4855C355.47 77.1913 355.705 78.0539 355.705 78.9165ZM349.664 78.9165C349.664 79.7791 349.821 80.4849 350.135 80.877C350.449 81.3475 350.919 81.5828 351.547 81.5828C352.175 81.5828 352.645 81.3475 352.959 80.877C353.273 80.4065 353.352 79.7791 353.352 78.9165C353.352 78.0539 353.195 77.3481 352.881 76.956C352.567 76.5639 352.096 76.2502 351.469 76.2502C350.841 76.2502 350.37 76.4855 350.056 76.8776C349.821 77.4265 349.664 78.1323 349.664 78.9165Z" fill="#F2F2F2"></path><path d="M365.827 83.3865H363.473V78.2892C363.473 77.6618 363.395 77.1913 363.159 76.7992C362.924 76.4855 362.532 76.3287 362.061 76.3287C361.355 76.3287 360.884 76.5639 360.57 77.0344C360.256 77.505 360.099 78.2892 360.099 79.2302V83.3865H357.745V74.6034H359.55L359.864 75.7797H360.021C360.256 75.3092 360.649 74.9955 361.119 74.7603C361.59 74.525 362.139 74.4466 362.767 74.4466C363.787 74.4466 364.493 74.7603 365.042 75.3092C365.592 75.8582 365.827 76.7208 365.827 77.6618V83.3865Z" fill="#F2F2F2"></path></g><path d="M44.8278 86.4842C41.0367 79.0127 41.0879 71.698 45.8012 64.5923C48.0554 61.1961 50.9757 58.3747 53.9983 55.6578C58.4555 51.6347 63.1176 47.9251 67.4723 43.7975C70.5462 40.8716 73.4664 37.789 75.5669 34.0271C77.7699 30.0563 78.3334 25.8764 76.5403 21.5399C74.696 17.0465 71.161 13.4414 66.755 11.5605C61.4782 9.26157 56.2525 9.41831 51.0269 11.665C48.1579 12.9712 45.4426 14.6954 43.0347 16.733C42.881 16.942 42.6249 17.0988 42.3687 17.0988C42.881 16.2628 43.4958 15.4791 44.1618 14.7476C46.9283 11.5605 50.0535 8.89583 53.8959 7.17164C55.9451 6.33568 58.0456 5.81319 60.2486 5.6042C65.7304 5.02947 71.2122 5.7087 76.3866 7.58963C82.432 9.78405 87.0941 13.5982 89.2458 19.9202C90.7315 24.2568 90.3729 28.7501 88.9384 33.0867C87.7088 36.7963 85.5571 39.9312 82.9955 42.8048C79.8191 46.2532 76.2841 49.3358 72.4418 52.0005C67.7797 55.3444 63.0664 58.5315 58.4555 61.8754C53.8446 65.2192 49.5924 68.9289 46.5185 73.9447C45.1865 76.1391 44.1618 78.438 44.0081 81.0504C43.9569 82.2521 44.0594 83.4016 44.3155 84.551C44.5205 85.2302 44.6741 85.8572 44.8278 86.4842Z" fill="#F2F2F2"></path><path d="M33.1469 11.0903C31.3538 10.0453 29.612 9.47059 27.6139 10.0453C25.7183 10.5678 24.3351 11.8217 22.9518 13.3892C23.0543 12.292 23.3617 11.1948 23.874 10.2021C24.3351 9.2616 24.8474 8.37338 25.3597 7.38067C22.8494 6.85818 20.2365 7.90315 18.6996 9.99307C17.47 11.6128 16.6503 13.4937 16.2405 15.5314C16.1892 15.7404 16.138 16.0016 16.0868 16.2106C16.0868 16.2628 16.0355 16.2628 15.9843 16.4196C14.9084 14.4342 14.806 12.292 14.4473 9.99307C13.7301 10.829 13.1665 11.8217 12.8592 12.919C12.0394 15.6359 12.7055 18.1438 14.0375 20.5472C15.1646 22.5326 16.6503 24.309 18.3922 25.772C18.5459 25.9287 18.6996 26.0332 18.9045 26.1377C17.1114 26.5557 15.2158 26.399 13.4739 25.6675C11.7833 24.9883 10.2463 23.9955 8.96554 22.7416C8.86308 23.0028 8.81184 23.3163 8.91431 23.6298C9.58032 28.9591 12.3468 33.0345 16.5991 36.0648C19.8267 38.3638 23.1055 40.5059 26.1794 42.9616C29.5607 45.6262 32.6859 48.5521 35.5548 51.7915C37.4504 53.9337 38.7312 56.5461 39.2435 59.3675C39.8583 62.7636 40.4731 66.1597 40.8317 69.6081C40.8317 69.7648 40.8317 69.9216 40.7805 70.0783C40.4219 69.1379 40.1145 68.1974 39.7559 67.2569C37.6553 61.4052 34.5814 56.1803 29.7656 52.1572C27.3065 50.1196 24.54 48.6044 21.7735 47.0369C17.3676 44.529 12.9616 41.9689 8.86308 38.834C6.60888 37.0053 4.81576 34.6541 3.68866 31.9895C2.20294 28.9069 1.38323 25.563 1.28077 22.1146C1.22954 19.2932 2.25417 16.8376 3.63743 14.4342C4.40591 13.1802 5.27685 11.9262 6.25025 10.829C7.27489 9.62733 7.9409 8.16439 9.01677 7.01493C10.5537 5.2385 12.9104 4.35028 15.2158 4.71601H15.2671C16.138 4.92501 17.0602 4.61152 17.5725 3.88005C19.007 2.05136 20.9025 1.16315 23.2592 1.89462C24.8474 2.36485 25.8208 3.51431 26.6405 4.87276C27.0504 5.60423 27.409 5.96997 28.3824 5.81322C29.9193 5.55198 31.4051 5.86547 32.4809 7.22392C33.4031 8.47787 33.4031 9.73183 33.1469 11.0903Z" fill="#F2F2F2"></path><path d="M33.6081 27.0782C33.147 27.4439 32.5322 27.4439 31.9175 27.7052C33.9667 29.1681 35.35 31.1535 36.5796 33.139C36.8357 33.2434 36.8357 32.93 37.0406 32.9822C37.0406 33.0345 37.0919 33.0867 37.0919 33.1912C37.1431 34.2362 37.2456 35.2811 37.2968 36.3783C37.3993 37.8935 38.3727 38.7295 39.8584 38.4683C40.1658 38.416 40.1146 38.207 40.1658 38.0503C42.9835 38.416 44.5205 36.5873 43.8545 33.6092C43.2397 31.258 42.4712 28.9069 41.549 26.6602C40.6269 24.2568 39.6535 21.8534 38.7313 19.45C38.6801 19.2932 38.5264 19.1887 38.6801 18.9275C39.2948 19.8157 39.8072 20.7039 40.217 21.6966C42.2151 25.7197 43.8032 29.8996 45.084 34.2362C45.3914 35.0721 45.4939 36.0126 45.289 36.9008C44.7254 38.5205 43.086 39.461 41.4466 39.0952C40.9343 38.9907 40.3707 39.043 39.9096 39.252C39.0387 39.6177 38.014 39.5655 37.1943 39.043C36.4771 38.5205 36.1185 37.6845 36.1185 36.7963C36.0672 36.2738 36.0672 35.8036 36.1185 35.2811C36.3746 33.9227 35.6574 32.9822 34.8889 32.0417C33.6593 30.6833 32.2761 29.4816 30.7391 28.4889C30.5854 28.3844 30.4317 28.2799 30.278 28.2799C28.8948 28.5411 27.9214 27.7574 26.9992 26.9214C25.2061 25.5107 23.8228 23.6821 22.9007 21.5921C22.2347 19.9202 22.9519 18.196 24.6938 17.4123C24.5401 17.778 24.3352 18.0915 24.2327 18.405C23.7716 19.5022 23.8741 20.7562 24.4889 21.7489C25.2573 23.1073 26.2307 24.309 27.3066 25.4062C28.946 27.1304 31.0465 27.4439 33.3007 27.1304C33.352 27.0259 33.4544 26.9737 33.6081 27.0782Z" fill="#F2F2F2"></path><path d="M40.5244 10.2543C38.9362 11.874 37.4505 13.3369 36.4258 15.2178C36.4258 13.2324 37.7579 12.1352 39.1923 10.829C37.2455 10.8813 35.35 11.247 33.5056 11.8217C35.6061 10.3065 37.9115 10.0975 40.5244 10.2543Z" fill="#F2F2F2"></path><path d="M34.6326 19.3977C34.6839 19.6067 34.5302 19.7635 34.4277 19.9202C33.9154 20.6517 33.6592 20.6517 33.0957 19.9202C32.2247 18.7185 32.071 17.36 32.071 15.7926C33.0957 16.7331 34.2228 17.5168 35.4523 18.196C34.3765 18.3005 33.7105 17.6735 32.942 17.2033C32.942 18.0393 33.2494 18.8752 33.8129 19.5022C33.9154 19.6067 33.9666 19.5545 34.6326 19.3977Z" fill="#F2F2F2"></path><path d="M36.5795 17.7258C37.1942 16.6286 36.477 15.1134 37.7578 14.2774C38.4238 15.4269 38.014 16.8898 36.9381 17.569C36.7844 17.6213 36.6819 17.6735 36.5795 17.7258Z" fill="#F2F2F2"></path><defs><clipPath id="clip0_378:241"><rect width="255.662" height="84.7721" fill="white" transform="translate(110.338 1.67279)"></rect></clipPath></defs></svg>