<svg xmlns="http://www.w3.org/2000/svg" viewBox="0 0 420.76032 137.43215">
  <defs>
    <style>
      .cls-1 {
        fill: #b1b1b0;
      }

      .cls-2 {
        fill: #135aa7;
      }

      .cls-3, .cls-5 {
        fill: #f2f2f2;
      }

      .cls-4 {
        fill: none;
      }

      .cls-5 {
        font-size: 16.13305px;
        font-family: OpenSans, Open Sans;
      }
    </style>
  </defs>
  <title>Asset 8</title>
  <g id="Layer_2" data-name="Layer 2">
    <g id="Layer_1-2" data-name="Layer 1">
      <g>
        <path class="cls-1" d="M57.59251,59.23586a2.899,2.899,0,0,1,.159,1.43506c.008.24194-.102.478-.367.474a.82014.82014,0,0,1-.658-.34406c-.217-.315.117-.383.278-.478.381-.224.303-.678.588-1.087"/>
        <path class="cls-2" d="M33.30681,2.99025s-8.874-6.366-17.168,2.7c-10.995,4.823-20.447,21.412-14.082,36.844,8.983,18.153,16.076,22.264,20.571,27.188,10.248,11.22894,14.537,12.164,17.238,42.063,2.574-12.504,8.68-24.691-10.61-49.189-22.569-24.113-16.011-38.387-16.011-38.387s1.158,9.452,13.311,11.188c-5.369-11.767-8.488-18.325.578-25.848-2.701,7.33-.193,11.38-.193,11.38s5.787-15.432,17.94-10.609a22.20659,22.20659,0,0,0-6.945,9.066s9.26-8.487,16.976.772c5.208-6.366-2.122-11.189-5.98-10.609.964-2.508-5.401-15.24-15.625-6.559"/>
        <path d="M58.59491,28.372l2.263-2.153s1.325,3.864-3.809,5.244c1.38-1.601,1.982-2.153,1.546-3.091"/>
        <path class="cls-1" d="M39.93081,24.79647a6.10089,6.10089,0,0,0-2.897,5.53405,10.8886,10.8886,0,0,0,1.151,4.012c.706,1.495,1.066,3.138,2.058,4.512a10.92052,10.92052,0,0,0,6.834,4.382,18.25644,18.25644,0,0,0,2.286.281,5.57911,5.57911,0,0,1-3.72.178,27.354,27.354,0,0,1,4.745,10.579c.357-.001.439-.443.884-.527-.202.945-.381,1.85095-.592,2.749-.284,1.205-.601,2.403-.888,3.608a2.33871,2.33871,0,0,0,1.183,2.517,14.96714,14.96714,0,0,0,1.654.748c.614.277.788.01794.667-.60706a15.04122,15.04122,0,0,0,1.863.864c2,.62,3.689-.142,4.801-2.106a11.05049,11.05049,0,0,0,1.183-7.115,7.29888,7.29888,0,0,1-.028-1.057c.053-3.646-.398-7.264-.606-10.896-.16-2.793-.491-5.576-.749-8.363a3.357,3.357,0,0,1-.084-1.77,34.67268,34.67268,0,0,1,1.234,5.251q.621,3.90144,1.134,7.82c.196,1.514.293,3.041.41,4.565.272,3.51795.223,7.044.187,10.568a4.89467,4.89467,0,0,1-2.109,4.279,5.7433,5.7433,0,0,1-5.672.282,5.87087,5.87087,0,0,0-2.29-.465,6.75683,6.75683,0,0,1-3.119-.75,4.40243,4.40243,0,0,1-1.697-4.71406c.347-1.026.7-2.051,1.039-3.081a6.04467,6.04467,0,0,0-.625-4.433,38.3284,38.3284,0,0,0-4.543-7.275,1.449,1.449,0,0,0-.938-.614,5.82079,5.82079,0,0,1-3.525-2.625,24.60433,24.60433,0,0,1-4.422-10.166,5.09543,5.09543,0,0,1,3.444-5.811,3.105,3.105,0,0,1,1.747-.354"/>
        <path class="cls-1" d="M66.99241,22.05074c-3.147,1.597-6.206,3.104-8.57,5.623-.081-.95905.744-2.241,2.257-3.417a16.058,16.058,0,0,1,4.017-2.071,27.8569,27.8569,0,0,0-9.963-.813c2.116-1.689,8.885-1.294,12.259.678"/>
        <path class="cls-1" d="M52.14711,28.68068c0,.885-.047,1.64905.01,2.406.123,1.623.452,1.823,1.935,1.27905a3.13539,3.13539,0,0,1-1.754,1.647c-.48.098-.69-.178-.875-.559a8.475,8.475,0,0,1-.397-5.706,3.82846,3.82846,0,0,1,.589-1.689c.927,2.06195,2.527,3.583,4.279,5.31195-1.925-.20794-2.62-1.615-3.787-2.69"/>
        <path class="cls-2" d="M57.405,31.20943a5.10958,5.10958,0,0,0,1.337-2.629c.247-.969,1.25-1.483,1.942-2.169.264-.262.304.114.33.331a4.02981,4.02981,0,0,1-3.457,4.609c-.051-.047-.102-.095-.152-.142"/>
        <path class="cls-1" d="M65.89961,33.28713s27.961-12.097,42.583,5.446c15.116,18.138,4.456,30.039,4.456,30.039s-6.602,10.728-25.087,17.826c-18.486,7.096-55.457,17.99-50.01,50.834.825-18.155,18.65-26.903,57.271-37.631,38.622-10.728,42.402-34.004,41.808-37.26,2.222-23.922-36.908-55.534-71.021-29.254"/>
      </g>
      <g id="Blue_Journey" data-name="Blue Journey">
        <g id="Blue_Journey_Powered_by_the_HAA" data-name="Blue Journey Powered by the HAA">
          <path class="cls-3" d="M171.92227,46.5766c.66383-.41486,1.24461-.66379,1.82538-1.07865,2.48921-1.74245,3.07-4.23166,2.82113-7.05277a7.56641,7.56641,0,0,0-4.89547-6.72087,12.58207,12.58207,0,0,0-5.22739-.82974c-4.72946,0-9.459.083-14.18848,0-1.65947-.083-1.90843.49784-1.90843,1.99137.083,10.1228,0,20.16261,0,30.2854h19.084a13.736,13.736,0,0,1,1.74243-.49784,8.22289,8.22289,0,0,0,6.472-7.96547c.08306-4.31464-1.49336-6.55493-5.7251-8.13143m-12.69492-9.29305h6.306c1.99138.083,3.4019,1.32758,3.4019,3.153a3.37137,3.37137,0,0,1-3.153,3.65084c-2.24025.083-4.39765,0-6.6379.083-.49782,0-.82974-.083-.82974-.74677V38.03031c-.083-.66379.415-.74676.91279-.74676m10.28876,16.01392a3.29448,3.29448,0,0,1-3.31894,3.40192c-2.32331.083-4.64651,0-6.96982.083-.66383,0-.99564-.166-.99564-.99569.083-1.90839.083-3.73381.083-5.72518.249-.66379.82974-.41487,1.24461-.41487,2.3233,0,4.56355,0,6.88686.083,2.24025.49784,3.15294,1.65948,3.07,3.56787"/>
          <path class="cls-3" d="M218.88547,40.93439a13.44452,13.44452,0,0,0-2.1573,18.25421c4.31459,5.47627,13.27579,6.472,18.58613,1.9084a12.2098,12.2098,0,0,0,2.987-3.81679c.083-.24892.58078-.74676,0-.99568-1.99139-.49784-4.14868-.82974-6.14007-1.2446a.75809.75809,0,0,0-.41487.24892c-.66383,1.07866-1.74243,1.32758-2.82113,1.82542a5.08012,5.08012,0,0,1-6.96981-2.73814c-.41487-.99568-.249-1.32757.82974-1.32757,2.48921.083,4.97842,0,7.55059,0h7.63354c.58077,0,1.16165,0,1.2446-.82974.083-3.4849-.41487-6.88682-2.73817-9.459-5.14423-6.306-13.19274-5.31031-17.59028-1.82542M230.58474,48.402h-7.55059c-.99564,0-.99564-.41487-.58077-1.07865a5.4141,5.4141,0,0,1,4.56355-2.73814,4.76229,4.76229,0,0,1,4.39765,2.48921c.41476.91271.24876,1.32758-.82984,1.32758"/>
          <path class="cls-3" d="M319.3666,38.943c-2.57216,0-2.57216,0-2.57216,2.57219,0,3.48489,0,6.96979-.16591,10.53766a4.77093,4.77093,0,0,1-2.57217,4.39761c-3.07,1.65947-6.14007-.41487-6.306-4.06572q-.12442-5.97409,0-11.94821c0-1.07866-.1659-1.65948-1.41051-1.5765a46.5234,46.5234,0,0,1-4.81251,0c-1.0787-.083-1.32756.41487-1.32756,1.32757V53.96126a15.30557,15.30557,0,0,0,.82973,4.39761c1.0787,3.31895,6.6379,6.63789,10.20581,5.31032a19.20366,19.20366,0,0,0,5.5592-2.73814c-.249,1.99137.82973,2.15732,2.24025,1.99137,1.82538-.083,3.65086,0,5.47624-.083V38.6941a27.37681,27.37681,0,0,1-5.14443.24892"/>
          <path class="cls-3" d="M213.32617,40.02168c0-.74676-.249-1.07866-1.0787-1.07866-1.82538,0-3.65086.083-5.47624,0-.99565,0-1.16166.41487-1.16166,1.24461V50.22745a9.37373,9.37373,0,0,1-.66383,3.98274,4.52414,4.52414,0,0,1-2.73817,2.48921c-3.07.99568-5.5592-.99568-5.72521-4.56355-.083-3.98274-.083-7.88251,0-11.78227,0-.99569-.1659-1.5765-1.32755-1.41055-1.65948.083-3.40191.083-4.97843,0-.82973,0-1.2446.24892-1.2446,1.16163,0,4.81247-.083,9.70792.08295,14.60337.16591,6.389,5.14433,10.12279,11.36736,9.04413a12.10886,12.10886,0,0,0,4.97842-2.40623c.49782.66379-.249,1.99137,1.24461,1.90839,1.90843-.083,3.73381,0,5.7252,0,.74679,0,.99565-.41487.99565-1.07866q.0003-11.20146.0002-22.154"/>
          <path class="cls-3" d="M286.09417,38.36221c-7.96546-.16595-13.2758,5.55923-13.19284,12.86092s5.7252,12.612,13.27579,12.612A12.74421,12.74421,0,0,0,299.37,50.97421c.24886-7.71655-6.6379-13.02687-13.27579-12.612m.1659,19.001c-3.4019,0-5.89111-2.73814-5.89111-6.306s2.57216-6.306,5.97407-6.14005a5.93161,5.93161,0,0,1,5.7252,6.306,6.06425,6.06425,0,0,1-5.80816,6.14006"/>
          <path class="cls-3" d="M369.23378,47.24039a9.24071,9.24071,0,0,1-.16591-1.41055s-.16591-.99569-.249-1.32758l-.083-.083v-.083c-3.07-6.47195-9.62493-7.96548-15.35013-3.73382-.16591.166-.41487.41487-.74678.083.249-1.65947-.66384-1.74244-1.90844-1.74244-1.90844.083-3.73382,0-5.72521,0,0,2.48921-.08295,5.14437-.08295,7.63358,0,5.47626.08295,11.11847.08295,16.59474,1.90844,0,3.73382-.083,5.72521,0,1.41051.083,1.99139-.24892,1.90844-1.82542-.083-3.07,0-6.05708,0-9.12711a11.49933,11.49933,0,0,1,.58077-4.06571A4.65449,4.65449,0,0,1,355.792,45.415c3.07-1.16163,5.7252.82974,5.80815,4.31463.083,4.06572,0,8.13143,0,12.03119,0,.99568.249,1.32758,1.24461,1.24461,1.99139-.083,4.14868,0,6.14007,0a1.81755,1.81755,0,0,0,.249-.41487c0-2.2403-.083-14.10554,0-15.35015"/>
          <path class="cls-3" d="M270.32916,30.8116c-.99564.083-1.90843,0-2.90408,0-3.153,0-3.153,0-3.153,3.319v17.3415c0,3.07-1.90843,5.22735-4.81251,5.31032-2.57217.083-3.98278-.82974-5.14433-3.98274-.41487-1.16163-.82974-1.2446-1.82538-1.07866a27.33518,27.33518,0,0,1-4.39765.82974c-1.41051.16594-1.74243.66379-1.32756,2.15731a11.58408,11.58408,0,0,0,10.62068,8.96117c6.55494.58081,10.78658-1.41056,13.52475-6.306a7.74033,7.74033,0,0,0,1.2446-3.07c.249-3.98274,0-7.96547.16591-11.28442,0-3.98274-.083-7.21871,0-10.53766-.08305-1.24461-.66383-1.74246-1.99139-1.65948"/>
          <path class="cls-3" d="M186.69163,45.74687h0v-15.931c0-1.07866-.16591-1.65948-1.41051-1.57651-1.65948.083-3.4019.083-4.97842,0-.82974,0-1.24461.166-1.24461,1.16164V61.84377c0,.99568.41487,1.16163,1.24461,1.16163a46.5234,46.5234,0,0,1,4.81251,0c1.32756.083,1.65947-.49784,1.57652-1.65947-.08305-5.06141-.0001-10.28875-.0001-15.59906"/>
          <path class="cls-3" d="M343.429,38.61113a8.688,8.688,0,0,0-7.05276,2.73813c-.49782.49784-.99564,1.07866-1.74243,1.99137v-3.07c.083-.82974-.249-1.24461-1.16165-1.24461a44.95719,44.95719,0,0,1-4.72946,0c-1.32756-.083-1.74243.24893-1.74243,1.65948.083,6.05708,0,12.28011,0,18.33719a24.04576,24.04576,0,0,0,.083,4.23166c2.48921,0,4.97842-.083,7.55058-.083v-.083h.083a69.21867,69.21867,0,0,1,0-8.29737c-.083-4.81247,2.48921-7.79953,7.21867-8.2144a6.23881,6.23881,0,0,1,1.2446,0c.74679,0,1.0787-.16594,1.16165-1.07865.083-1.82543.16591-3.65085.249-5.55924.083-.91272-.33192-1.16164-1.16166-1.32758"/>
          <path class="cls-3" d="M413.70766,38.943a1.42368,1.42368,0,0,0-1.65947,1.16164c-.74679,1.99137-1.65948,3.98273-2.48922,5.89113-.99564,2.24029-1.90843,4.3976-2.90407,6.63789a3.34362,3.34362,0,0,1-.99565-1.5765c-1.41051-3.65085-2.987-7.21871-4.39765-10.86956-.41486-.99568-.82973-1.32757-1.90843-1.2446-2.24025.083-4.39765,0-6.6379,0l-.08295.24892c3.153,7.38466,6.38893,14.85229,9.542,22.237a2.314,2.314,0,0,1-.083,1.82542c-.99564,2.32327-1.99139,4.64653-2.987,6.88682-.41487.82974-.249,1.16163.74678,1.16163,1.90844-.083,3.81677-.083,5.89111,0a1.639,1.639,0,0,0,1.74243-1.2446c1.41051-3.4849,2.90408-6.88682,4.31459-10.28874.99565-2.32327,1.90844-4.64653,3.07-6.88682.99564-1.82542,1.41051-4.06572,2.40626-5.89113,1.32756-2.57219,1.99139-5.39329,3.48485-8.2144-2.48911.16595-4.72936.16595-7.05266.16595"/>
          <path class="cls-3" d="M374.54411,41.43223a13.44452,13.44452,0,0,0-2.15729,18.25421c4.31459,5.47627,13.27579,6.472,18.58613,1.9084a12.20995,12.20995,0,0,0,2.987-3.81679c.083-.24892.58077-.74676,0-.99568-1.99139-.49784-4.14869-.82974-6.14007-1.2446a.758.758,0,0,0-.41487.24892c-.66383,1.07866-1.74243,1.32758-2.82113,1.82542A5.08011,5.08011,0,0,1,377.6141,54.874c-.41487-.99568-.249-1.32757.82974-1.32757,2.48921.083,4.97842,0,7.55058,0H393.628c.58078,0,1.16166,0,1.24461-.82974.08295-3.4849-.41487-6.88682-2.73817-9.459a12.6479,12.6479,0,0,0-17.59029-1.82543m11.61632,7.30169h-7.55059c-.99564,0-.99564-.41487-.58077-1.07866a5.41409,5.41409,0,0,1,4.56355-2.73813,4.76229,4.76229,0,0,1,4.39765,2.48921c.41477,1.07866.24876,1.49353-.82984,1.32758"/>
        </g>
        <rect class="cls-4" x="149.1045" y="69.3114" width="259.79064" height="44.4739"/>
        <text class="cls-5" transform="translate(149.12181 86.50546)">Powered by the HAA</text>
        <text class="cls-5" transform="translate(149.12181 107.96249)">Humanitarian Animation Action</text>
      </g>
    </g>
  </g>
</svg>
