<svg xmlns="http://www.w3.org/2000/svg" xmlns:xlink="http://www.w3.org/1999/xlink" id="Layer_1" x="0px" y="0px" viewBox="0 0 355 108.1" style="enable-background:new 0 0 355 108.1;" xml:space="preserve">
<style type="text/css">
	.st0{fill:#F2F2F2;}
	.st1{fill:none;}
	.st2{enable-background:new    ;}
</style>
<g>
	<g id="Page_3">
		<g id="Blue_Journey">
			<g id="Blue_Journey_Powered_by_the_HAA">
				<g>
					<path class="st0" d="M34.3,24.6c0.8-0.5,1.5-0.8,2.2-1.3c3-2.1,3.7-5.1,3.4-8.5c-0.3-4-2.4-6.5-5.9-8.1c-2-0.8-4.2-1.1-6.3-1       c-5.7,0-11.4,0.1-17.1,0c-2-0.1-2.3,0.6-2.3,2.4c0.1,12.2,0,24.3,0,36.5h23c0.7-0.2,1.4-0.4,2.1-0.6c4.5-1,7.8-5,7.8-9.6       C41.3,29.2,39.4,26.5,34.3,24.6 M19,13.4h7.6c2.4,0.1,4.1,1.6,4.1,3.8c0.2,2.2-1.5,4.2-3.7,4.4h-0.1c-2.7,0.1-5.3,0-8,0.1       c-0.6,0-1-0.1-1-0.9v-6.5C17.8,13.5,18.4,13.4,19,13.4 M31.4,32.7c0.1,2.2-1.6,4-3.8,4.1c-0.1,0-0.1,0-0.2,0       c-2.8,0.1-5.6,0-8.4,0.1c-0.8,0-1.2-0.2-1.2-1.2c0.1-2.3,0.1-4.5,0.1-6.9c0.3-0.8,1-0.5,1.5-0.5c2.8,0,5.5,0,8.3,0.1       C30.4,29,31.5,30.4,31.4,32.7"></path>
				</g>
				<g>
					<path class="st0" d="M90.9,17.8c-6.5,5.2-7.7,15.5-2.6,22c5.2,6.6,16,7.8,22.4,2.3c1.5-1.3,2.7-2.8,3.6-4.6       c0.1-0.3,0.7-0.9,0-1.2c-2.4-0.6-5-1-7.4-1.5c-0.2,0-0.4,0.1-0.5,0.3c-0.8,1.3-2.1,1.6-3.4,2.2c-3,1.5-6.7,0.2-8.2-2.8       c-0.1-0.2-0.1-0.3-0.2-0.5c-0.5-1.2-0.3-1.6,1-1.6c3,0.1,6,0,9.1,0h9.2c0.7,0,1.4,0,1.5-1c0.1-4.2-0.5-8.3-3.3-11.4       C105.9,12.4,96.2,13.6,90.9,17.8 M105,26.8h-9.1c-1.2,0-1.2-0.5-0.7-1.3c1.1-2,3.2-3.2,5.5-3.3c2.2-0.1,4.3,1.1,5.3,3       C106.5,26.3,106.3,26.8,105,26.8"></path>
				</g>
				<g>
					<path class="st0" d="M212,15.4c-3.1,0-3.1,0-3.1,3.1c0,4.2,0,8.4-0.2,12.7c0.1,2.2-1.1,4.3-3.1,5.3c-3.7,2-7.4-0.5-7.6-4.9       c-0.1-4.8-0.1-9.6,0-14.4c0-1.3-0.2-2-1.7-1.9c-1.9,0.1-3.9,0.1-5.8,0c-1.3-0.1-1.6,0.5-1.6,1.6v16.6c0.1,1.8,0.4,3.6,1,5.3       c1.3,4,8,8,12.3,6.4c2.4-0.7,4.7-1.8,6.7-3.3c-0.3,2.4,1,2.6,2.7,2.4c2.2-0.1,4.4,0,6.6-0.1V15.1       C216.1,15.4,214.1,15.5,212,15.4"></path>
				</g>
				<g>
					<path class="st0" d="M84.2,16.7c0-0.9-0.3-1.3-1.3-1.3c-2.2,0-4.4,0.1-6.6,0c-1.2,0-1.4,0.5-1.4,1.5V29       c0.1,1.6-0.2,3.3-0.8,4.8c-0.6,1.4-1.8,2.5-3.3,3c-3.7,1.2-6.7-1.2-6.9-5.5c-0.1-4.8-0.1-9.5,0-14.2c0-1.2-0.2-1.9-1.6-1.7       c-2,0.1-4.1,0.1-6,0c-1,0-1.5,0.3-1.5,1.4c0,5.8-0.1,11.7,0.1,17.6c0.2,7.7,6.2,12.2,13.7,10.9c2.2-0.5,4.3-1.5,6-2.9       c0.6,0.8-0.3,2.4,1.5,2.3c2.3-0.1,4.5,0,6.9,0c0.9,0,1.2-0.5,1.2-1.3C84.2,34.4,84.2,25.5,84.2,16.7"></path>
				</g>
				<g>
					<path class="st0" d="M171.9,14.7c-9.6-0.2-16,6.7-15.9,15.5s6.9,15.2,16,15.2c9.2,0,15.7-6.6,15.9-15.5       C188.2,20.6,179.9,14.2,171.9,14.7 M172.1,37.6c-4.1,0-7.1-3.3-7.1-7.6s3.1-7.6,7.2-7.4c3.9,0.1,7,3.4,6.9,7.4       c0,0.1,0,0.1,0,0.2C179.2,34.2,176.1,37.4,172.1,37.6"></path>
				</g>
				<g>
					<path class="st0" d="M272.1,25.4c-0.1-0.6-0.2-1.1-0.2-1.7c0,0-0.2-1.2-0.3-1.6l-0.1-0.1v-0.1c-3.7-7.8-11.6-9.6-18.5-4.5       c-0.2,0.2-0.5,0.5-0.9,0.1c0.3-2-0.8-2.1-2.3-2.1c-2.3,0.1-4.5,0-6.9,0c0,3-0.1,6.2-0.1,9.2c0,6.6,0.1,13.4,0.1,20       c2.3,0,4.5-0.1,6.9,0c1.7,0.1,2.4-0.3,2.3-2.2c-0.1-3.7,0-7.3,0-11c-0.1-1.7,0.2-3.3,0.7-4.9c0.5-1.5,1.6-2.7,3.1-3.3       c3.7-1.4,6.9,1,7,5.2c0.1,4.9,0,9.8,0,14.5c0,1.2,0.3,1.6,1.5,1.5c2.4-0.1,5,0,7.4,0c0.1-0.2,0.2-0.3,0.3-0.5       C272.1,41.2,272,26.9,272.1,25.4"></path>
				</g>
				<g>
					<path class="st0" d="M152.9,5.6c-1.2,0.1-2.3,0-3.5,0c-3.8,0-3.8,0-3.8,4v20.9c0,3.7-2.3,6.3-5.8,6.4c-3.1,0.1-4.8-1-6.2-4.8       c-0.5-1.4-1-1.5-2.2-1.3c-1.7,0.5-3.5,0.8-5.3,1c-1.7,0.2-2.1,0.8-1.6,2.6c1.4,6,6.6,10.4,12.8,10.8c7.9,0.7,13-1.7,16.3-7.6       c0.6-1.2,1.4-2.2,1.5-3.7c0.3-4.8,0-9.6,0.2-13.6c0-4.8-0.1-8.7,0-12.7C155.2,6.1,154.5,5.5,152.9,5.6"></path>
				</g>
				<g>
					<path class="st0" d="M52.1,23.6L52.1,23.6V4.4c0-1.3-0.2-2-1.7-1.9c-2,0.1-4.1,0.1-6,0c-1,0-1.5,0.2-1.5,1.4V43       c0,1.2,0.5,1.4,1.5,1.4c1.9-0.1,3.9-0.1,5.8,0c1.6,0.1,2-0.6,1.9-2C52,36.3,52.1,30,52.1,23.6"></path>
				</g>
				<g>
					<path class="st0" d="M241,15c-3.2-0.3-6.3,1-8.5,3.3c-0.6,0.6-1.2,1.3-2.1,2.4V17c0.1-1-0.3-1.5-1.4-1.5       c-1.9,0.1-3.8,0.1-5.7,0c-1.6-0.1-2.1,0.3-2.1,2c0.1,7.3,0,14.8,0,22.1c-0.1,1.7-0.1,3.4,0.1,5.1c3,0,6-0.1,9.1-0.1v-0.1h0.1       c-0.2-3.3-0.2-6.7,0-10c-0.1-5.8,3-9.4,8.7-9.9c0.5,0,1,0,1.5,0c0.9,0,1.3-0.2,1.4-1.3c0.1-2.2,0.2-4.4,0.3-6.7       C242.5,15.5,242,15.2,241,15"></path>
				</g>
				<g>
					<path class="st0" d="M325.7,15.4c-0.9-0.2-1.8,0.4-2,1.4l0,0c-0.9,2.4-2,4.8-3,7.1c-1.2,2.7-2.3,5.3-3.5,8       c-0.6-0.5-1-1.2-1.2-1.9c-1.7-4.4-3.6-8.7-5.3-13.1c-0.5-1.2-1-1.6-2.3-1.5c-2.7,0.1-5.3,0-8,0l-0.1,0.3       c3.8,8.9,7.7,17.9,11.5,26.8c0.3,0.7,0.2,1.5-0.1,2.2c-1.2,2.8-2.4,5.6-3.6,8.3c-0.5,1-0.3,1.4,0.9,1.4c2.3-0.1,4.6-0.1,7.1,0       c1,0.1,1.9-0.5,2.1-1.5c1.7-4.2,3.5-8.3,5.2-12.4c1.2-2.8,2.3-5.6,3.7-8.3c1.2-2.2,1.7-4.9,2.9-7.1c1.6-3.1,2.4-6.5,4.2-9.9       C331.2,15.4,328.5,15.4,325.7,15.4"></path>
				</g>
				<g>
					<path class="st0" d="M278.5,18.4c-6.5,5.2-7.7,15.5-2.6,22c5.2,6.6,16,7.8,22.4,2.3c1.5-1.3,2.7-2.8,3.6-4.6       c0.1-0.3,0.7-0.9,0-1.2c-2.4-0.6-5-1-7.4-1.5c-0.2,0-0.4,0.1-0.5,0.3c-0.8,1.3-2.1,1.6-3.4,2.2c-3,1.5-6.7,0.2-8.2-2.8       c-0.1-0.2-0.1-0.3-0.2-0.5c-0.5-1.2-0.3-1.6,1-1.6c3,0.1,6,0,9.1,0h9.2c0.7,0,1.4,0,1.5-1c0.1-4.2-0.5-8.3-3.3-11.4       C294.4,14.2,285,13.3,278.5,18.4 M292.5,27.2h-9.1c-1.2,0-1.2-0.5-0.7-1.3c1.1-2,3.2-3.2,5.5-3.3c2.2-0.1,4.3,1.1,5.3,3       C294,26.9,293.8,27.4,292.5,27.2"></path>
				</g>
			</g>
			<g>
				<rect x="6.8" y="54" class="st1" width="313.1" height="53.6"></rect>
			</g>
			<g class="st2">
				<path class="st0" d="M24.7,64.1c0,2.5-0.8,4.3-2.3,5.7c-1.5,1.4-3.7,2-6.6,2h-2.2v8.1H8.7v-23h7.4c2.8,0,4.9,0.6,6.3,1.8      C23.9,59.9,24.7,61.8,24.7,64.1z M13.6,67.8h1.5c1.5,0,2.6-0.3,3.4-0.9c0.8-0.6,1.1-1.4,1.1-2.6c0-1.1-0.3-2-0.9-2.6      c-0.6-0.6-1.5-0.8-2.9-0.8h-2.2V67.8z"></path>
				<path class="st0" d="M44.6,71.2c0,2.9-0.8,5.1-2.3,6.8s-3.7,2.5-6.3,2.5c-1.7,0-3.2-0.3-4.5-1.1s-2.3-1.8-2.9-3.2      c-0.6-1.4-1.1-3.1-1.1-4.9c0-2.9,0.8-5.1,2.3-6.8c1.5-1.5,3.7-2.5,6.3-2.5c1.7,0,3.2,0.3,4.5,1.1c1.2,0.8,2.3,1.8,2.9,3.2      C44.2,67.6,44.6,69.3,44.6,71.2z M32.4,71.2c0,1.7,0.3,3.1,0.9,4c0.6,0.9,1.5,1.4,2.8,1.4c1.2,0,2.2-0.5,2.8-1.4      c0.6-0.9,0.8-2.2,0.8-4c0-1.7-0.3-3.1-0.9-4s-1.5-1.4-2.8-1.4c-1.2,0-2.2,0.5-2.8,1.2C32.7,68.1,32.4,69.3,32.4,71.2z"></path>
				<path class="st0" d="M63.1,79.9l-1.4-6.1l-1.8-7.8h-0.2l-3.2,14h-5.2l-5.1-17.7h4.8l2,7.8c0.3,1.4,0.6,3.4,0.9,5.8H54      c0-0.8,0.2-2,0.6-3.8l0.3-1.4l2.2-8.4h5.2l2,8.4c0,0.3,0.2,0.6,0.2,1.1s0.2,0.9,0.3,1.4c0.2,0.5,0.2,1.1,0.2,1.5      c0,0.5,0.2,0.9,0.2,1.2h0.2c0.2-0.8,0.3-1.8,0.5-3.1c0.3-1.4,0.5-2.2,0.5-2.6l2.2-7.8h4.8L68,80.1h-4.9V79.9z"></path>
				<path class="st0" d="M84.1,80.2c-2.8,0-5.1-0.8-6.6-2.3s-2.5-3.8-2.5-6.6c0-2.9,0.8-5.2,2.2-6.9c1.5-1.5,3.5-2.5,6.1-2.5      c2.5,0,4.5,0.8,5.8,2.2c1.4,1.4,2.2,3.4,2.2,5.8v2.3H80c0,1.4,0.5,2.5,1.2,3.2s1.8,1.1,3.2,1.1c1.1,0,2-0.2,3.1-0.3      s2-0.6,2.9-1.1v3.7c-0.8,0.5-1.7,0.8-2.8,0.9C86.7,80.2,85.5,80.2,84.1,80.2z M83.5,65.5c-1.1,0-1.8,0.3-2.5,0.9      c-0.6,0.6-0.9,1.5-0.9,2.8h6.8c0-1.2-0.3-2.2-0.9-2.8C85.4,65.8,84.4,65.5,83.5,65.5z"></path>
				<path class="st0" d="M105,61.9c0.6,0,1.2,0,1.7,0.2l-0.3,4.5c-0.5-0.2-0.9-0.2-1.4-0.2c-1.5,0-2.8,0.5-3.5,1.2      c-0.9,0.8-1.2,1.8-1.2,3.4v8.9h-5.1V62.4h3.7l0.8,2.9h0.2c0.6-0.9,1.2-1.8,2.2-2.5C103,62.2,103.9,61.9,105,61.9z"></path>
				<path class="st0" d="M117.9,80.2c-2.8,0-5.1-0.8-6.6-2.3s-2.5-3.8-2.5-6.6c0-2.9,0.8-5.2,2.2-6.9c1.5-1.5,3.5-2.5,6.1-2.5      c2.5,0,4.5,0.8,5.8,2.2c1.4,1.4,2.2,3.4,2.2,5.8v2.3h-11.5c0,1.4,0.5,2.5,1.2,3.2s1.8,1.1,3.2,1.1c1.1,0,2-0.2,3.1-0.3      c1.1-0.2,2-0.6,2.9-1.1v3.7c-0.8,0.5-1.7,0.8-2.8,0.9C120.4,80.2,119.3,80.2,117.9,80.2z M117.1,65.5c-1.1,0-1.8,0.3-2.5,0.9      c-0.6,0.6-0.9,1.5-0.9,2.8h6.8c0-1.2-0.3-2.2-0.9-2.8C119,65.8,118.2,65.5,117.1,65.5z"></path>
				<path class="st0" d="M134.5,80.2c-2,0-3.7-0.8-4.9-2.5c-1.2-1.5-1.8-3.8-1.8-6.6c0-2.9,0.6-5.1,1.8-6.8c1.2-1.5,2.9-2.5,4.9-2.5      c2.2,0,3.8,0.9,5.1,2.6h0.2c-0.3-1.4-0.3-2.5-0.3-3.5v-5.7h4.9v24.6h-3.7l-0.9-2.3h-0.2C138.3,79.5,136.8,80.2,134.5,80.2z       M136.2,76.4c1.2,0,2.2-0.3,2.8-1.1s0.9-2,0.9-3.7v-0.5c0-1.8-0.3-3.2-0.9-4s-1.5-1.2-2.9-1.2c-1.1,0-1.8,0.5-2.5,1.4      c-0.6,0.9-0.9,2.3-0.9,4s0.3,3.1,0.9,3.8C134.2,76.1,135.1,76.4,136.2,76.4z"></path>
				<path class="st0" d="M167.5,61.9c2.2,0,3.7,0.8,4.9,2.5c1.2,1.7,1.7,3.8,1.7,6.6c0,2.9-0.6,5.2-1.8,6.8s-2.9,2.5-4.9,2.5      c-2,0-3.7-0.8-4.9-2.3h-0.3l-0.8,2h-3.7V55.3h4.8V61c0,0.8,0,1.8-0.2,3.5h0.2C163.7,62.9,165.4,61.9,167.5,61.9z M166,65.8      c-1.2,0-2,0.3-2.6,1.1c-0.6,0.8-0.8,2-0.9,3.7V71c0,1.8,0.3,3.2,0.8,4s1.4,1.2,2.6,1.2c0.9,0,1.8-0.5,2.3-1.4      c0.6-0.9,0.9-2.3,0.9-4c0-1.7-0.3-3.1-0.9-3.8C167.8,66.2,167.1,65.8,166,65.8z"></path>
				<path class="st0" d="M175.7,62.4h5.2l3.4,10c0.3,0.9,0.5,1.8,0.6,3.1h0.2c0.2-1.1,0.3-2.2,0.6-3.1l3.2-10h5.2l-7.5,19.8      c-0.6,1.8-1.7,3.2-2.9,4.1c-1.2,0.9-2.8,1.4-4.5,1.4c-0.8,0-1.7-0.2-2.5-0.3v-3.8c0.6,0.2,1.2,0.2,1.8,0.2      c0.9,0,1.5-0.3,2.3-0.8c0.6-0.5,1.1-1.2,1.5-2.3l0.3-0.9L175.7,62.4z"></path>
				<path class="st0" d="M212.2,76.4c0.8,0,1.8-0.2,3.1-0.6v3.5c-1.2,0.5-2.6,0.8-4.5,0.8c-2,0-3.4-0.5-4.1-1.4      c-0.9-0.9-1.4-2.5-1.4-4.3v-8.4H203v-2l2.6-1.5l1.4-3.7h3.1v3.7h4.9v3.5h-4.9v8.4c0,0.6,0.2,1.2,0.6,1.5S211.6,76.4,212.2,76.4z      "></path>
				<path class="st0" d="M235.1,79.9h-4.8V69.6c0-2.6-0.9-3.8-2.8-3.8c-1.4,0-2.3,0.5-2.9,1.4c-0.6,0.9-0.9,2.5-0.9,4.5v8.3H219      V55.3h4.8v4.9c0,0.5,0,1.2-0.2,2.8l-0.2,1.4h0.3c1.1-1.7,2.8-2.6,5.1-2.6c2,0,3.7,0.6,4.8,1.7c1.1,1.1,1.5,2.8,1.5,4.8      L235.1,79.9L235.1,79.9z"></path>
				<path class="st0" d="M248,80.2c-2.8,0-5.1-0.8-6.6-2.3s-2.5-3.8-2.5-6.6c0-2.9,0.8-5.2,2.2-6.9c1.5-1.5,3.5-2.5,6.1-2.5      c2.5,0,4.5,0.8,5.8,2.2c1.4,1.4,2.2,3.4,2.2,5.8v2.3h-11.4c0,1.4,0.5,2.5,1.2,3.2s1.8,1.1,3.2,1.1c1.1,0,2-0.2,3.1-0.3      s2-0.6,2.9-1.1v3.7c-0.8,0.5-1.7,0.8-2.8,0.9C250.6,80.2,249.4,80.2,248,80.2z M247.4,65.5c-1.1,0-1.8,0.3-2.5,0.9      c-0.6,0.6-0.9,1.5-0.9,2.8h6.8c0-1.2-0.3-2.2-0.9-2.8C249.3,65.8,248.3,65.5,247.4,65.5z"></path>
				<path class="st0" d="M286.7,79.9h-4.9v-10h-9.1v10h-4.9v-23h4.9v9.1h9.1v-9.1h4.9V79.9z"></path>
				<path class="st0" d="M306.7,79.9l-1.7-5.5h-8.4l-1.7,5.5h-5.2l8.1-23.2h6l8.1,23.2H306.7z M303.8,70.4c-1.5-4.9-2.5-7.8-2.6-8.4      c-0.2-0.6-0.3-1.2-0.5-1.5c-0.3,1.4-1.4,4.6-2.9,10H303.8z"></path>
				<path class="st0" d="M329,79.9l-1.7-5.5h-8.4l-1.7,5.5h-5.2l8.1-23.2h6l8.1,23.2H329z M326.1,70.4c-1.5-4.9-2.5-7.8-2.6-8.4      c-0.2-0.6-0.3-1.2-0.5-1.5c-0.3,1.4-1.4,4.6-2.9,10H326.1z"></path>
			</g>
			<g class="st2">
				<path class="st0" d="M20.6,104.2h-3.1v-6.4h-5.8v6.4h-3V89.6h3.1v5.8h5.8v-5.8h3.1L20.6,104.2L20.6,104.2z"></path>
				<path class="st0" d="M32.1,104.2l-0.4-1.5h-0.2c-0.3,0.5-0.8,0.9-1.4,1.2c-0.6,0.3-1.3,0.4-2.1,0.4c-1.3,0-2.3-0.4-2.9-1.1      c-0.7-0.7-1-1.8-1-3v-7.3h3v6.5c0,0.8,0.1,1.4,0.4,1.9c0.3,0.4,0.8,0.6,1.4,0.6c0.9,0,1.5-0.3,1.9-0.9c0.4-0.6,0.6-1.6,0.6-2.8      v-5.3h3v11.2L32.1,104.2L32.1,104.2z"></path>
				<path class="st0" d="M47.7,104.2h-3v-6.5c0-0.8-0.1-1.4-0.4-1.9c-0.3-0.4-0.7-0.6-1.3-0.6c-0.8,0-1.4,0.3-1.7,0.9      c-0.3,0.6-0.5,1.6-0.5,2.8v5.3h-3V93h2.3l0.4,1.5h0.2c0.3-0.5,0.8-0.9,1.3-1.2c0.6-0.3,1.2-0.4,2-0.4c1.7,0,2.8,0.6,3.4,1.7h0.3      c0.3-0.5,0.8-0.9,1.4-1.2c0.6-0.3,1.3-0.4,2-0.4c1.3,0,2.2,0.3,2.8,1c0.7,0.7,1,1.7,1,3.1v7.3h-3v-6.5c0-0.8-0.1-1.4-0.4-1.9      c-0.3-0.4-0.7-0.6-1.3-0.6c-0.8,0-1.3,0.3-1.7,0.8c-0.4,0.5-0.6,1.4-0.6,2.5v5.5H47.7z"></path>
				<path class="st0" d="M64.9,104.2l-0.6-1.6h-0.1c-0.5,0.7-1.1,1.1-1.6,1.4c-0.6,0.3-1.3,0.4-2.2,0.4c-1.1,0-2-0.3-2.5-0.9      c-0.6-0.6-0.9-1.5-0.9-2.6c0-1.2,0.4-2.1,1.3-2.6s2.1-0.9,3.8-1l2-0.1v-0.5c0-1.2-0.6-1.7-1.8-1.7c-0.9,0-2,0.3-3.1,0.8l-1-2.1      c1.3-0.7,2.7-1,4.3-1c1.5,0,2.6,0.3,3.4,1c0.8,0.7,1.2,1.7,1.2,3v7.4L64.9,104.2L64.9,104.2z M64,99h-1.2c-0.9,0-1.6,0.2-2,0.5      c-0.4,0.3-0.7,0.8-0.7,1.4c0,0.9,0.5,1.3,1.5,1.3c0.7,0,1.3-0.2,1.7-0.6c0.4-0.4,0.7-1,0.7-1.7V99z"></path>
				<path class="st0" d="M80.5,104.2h-3.1v-6.5c0-0.8-0.1-1.4-0.4-1.9c-0.3-0.4-0.8-0.6-1.4-0.6c-0.9,0-1.5,0.3-1.9,0.9      c-0.4,0.6-0.6,1.6-0.6,2.8v5.3h-3V93h2.3l0.4,1.5h0.2c0.3-0.6,0.8-1,1.4-1.3c0.6-0.3,1.3-0.4,2.1-0.4c1.3,0,2.2,0.4,2.9,1.1      c0.7,0.7,1,1.8,1,3L80.5,104.2L80.5,104.2z"></path>
				<path class="st0" d="M83.6,90.1c0-1,0.6-1.5,1.7-1.5c1.1,0,1.7,0.5,1.7,1.5c0,0.5-0.1,0.9-0.4,1.1c-0.3,0.3-0.8,0.4-1.3,0.4      C84.1,91.6,83.6,91.1,83.6,90.1z M86.7,104.2h-3V93h3V104.2z"></path>
				<path class="st0" d="M94.6,102c0.5,0,1.2-0.1,2-0.4v2.2c-0.8,0.3-1.7,0.5-2.8,0.5c-1.3,0-2.2-0.3-2.6-0.9      c-0.6-0.6-0.9-1.6-0.9-2.7v-5.4h-1.5V94l1.7-1l0.9-2.3h2v2.3h3.1v2.2h-3.1v5.4c0,0.4,0.1,0.8,0.4,1S94.2,102,94.6,102z"></path>
				<path class="st0" d="M106,104.2l-0.6-1.6h-0.1c-0.5,0.7-1.1,1.1-1.6,1.4c-0.6,0.3-1.3,0.4-2.2,0.4c-1.1,0-2-0.3-2.5-0.9      c-0.6-0.6-0.9-1.5-0.9-2.6c0-1.2,0.4-2.1,1.3-2.6s2.1-0.9,3.8-1l2-0.1v-0.5c0-1.2-0.6-1.7-1.8-1.7c-0.9,0-2,0.3-3.1,0.8l-1-2.1      c1.3-0.7,2.7-1,4.3-1c1.5,0,2.6,0.3,3.4,1c0.8,0.7,1.2,1.7,1.2,3v7.4L106,104.2L106,104.2z M105.1,99h-1.2c-0.9,0-1.6,0.2-2,0.5      c-0.4,0.3-0.7,0.8-0.7,1.4c0,0.9,0.5,1.3,1.5,1.3c0.7,0,1.3-0.2,1.7-0.6c0.4-0.4,0.7-1,0.7-1.7V99z"></path>
				<path class="st0" d="M117.5,92.8c0.4,0,0.8,0,1.1,0.1l-0.2,2.8c-0.3-0.1-0.6-0.1-0.9-0.1c-1,0-1.8,0.3-2.2,0.8      c-0.6,0.5-0.8,1.2-0.8,2.2v5.7h-3V93h2.3l0.5,1.9h0.2c0.4-0.6,0.8-1.2,1.4-1.6C116.1,93,116.8,92.8,117.5,92.8z"></path>
				<path class="st0" d="M120.4,90.1c0-1,0.6-1.5,1.7-1.5s1.7,0.5,1.7,1.5c0,0.5-0.1,0.9-0.4,1.1c-0.3,0.3-0.7,0.4-1.3,0.4      C121,91.6,120.4,91.1,120.4,90.1z M123.7,104.2h-3V93h3V104.2z"></path>
				<path class="st0" d="M133.9,104.2l-0.6-1.6h-0.1c-0.5,0.7-1.1,1.1-1.6,1.4c-0.6,0.3-1.3,0.4-2.2,0.4c-1.1,0-2-0.3-2.5-0.9      s-0.9-1.5-0.9-2.6c0-1.2,0.4-2.1,1.3-2.6c0.9-0.6,2.1-0.9,3.8-1l2-0.1v-0.5c0-1.2-0.6-1.7-1.8-1.7c-0.9,0-2,0.3-3.1,0.8l-1-2.1      c1.3-0.7,2.7-1,4.3-1c1.5,0,2.6,0.3,3.4,1c0.8,0.7,1.2,1.7,1.2,3v7.4L133.9,104.2L133.9,104.2z M133,99h-1.2      c-0.9,0-1.6,0.2-2,0.5c-0.4,0.3-0.7,0.8-0.7,1.4c0,0.9,0.5,1.3,1.5,1.3c0.7,0,1.3-0.2,1.7-0.6c0.4-0.4,0.7-1,0.7-1.7V99z"></path>
				<path class="st0" d="M149.6,104.2h-3v-6.5c0-0.8-0.1-1.4-0.4-1.9c-0.3-0.4-0.8-0.6-1.4-0.6c-0.9,0-1.5,0.3-1.9,0.9      c-0.4,0.6-0.6,1.6-0.6,2.8v5.3h-3V93h2.3l0.4,1.5h0.2c0.3-0.6,0.8-1,1.4-1.3s1.3-0.4,2.1-0.4c1.3,0,2.2,0.4,2.9,1.1      c0.7,0.7,1,1.8,1,3L149.6,104.2L149.6,104.2z"></path>
				<path class="st0" d="M167.2,104.2l-1.1-3.5h-5.4l-1.1,3.5h-3.3l5.2-14.8h3.8l5.2,14.8H167.2z M165.5,98.2c-1-3.1-1.6-5-1.7-5.4      c-0.1-0.4-0.2-0.8-0.3-1c-0.2,0.9-0.9,2.9-1.9,6.4H165.5z"></path>
				<path class="st0" d="M182.6,104.2h-3v-6.5c0-0.8-0.1-1.4-0.4-1.9c-0.3-0.4-0.8-0.6-1.4-0.6c-0.9,0-1.5,0.3-1.9,0.9      c-0.4,0.6-0.6,1.6-0.6,2.8v5.3h-3.1V93h2.3l0.4,1.5h0.2c0.3-0.6,0.8-1,1.4-1.3s1.3-0.4,2.1-0.4c1.3,0,2.2,0.4,2.9,1.1      c0.7,0.7,1,1.8,1,3L182.6,104.2L182.6,104.2z"></path>
				<path class="st0" d="M185.5,90.1c0-1,0.6-1.5,1.7-1.5s1.7,0.5,1.7,1.5c0,0.5-0.1,0.9-0.4,1.1c-0.3,0.3-0.7,0.4-1.3,0.4      C186.1,91.6,185.5,91.1,185.5,90.1z M188.8,104.2h-3V93h3V104.2z"></path>
				<path class="st0" d="M202,104.2h-3v-6.5c0-0.8-0.1-1.4-0.4-1.9c-0.3-0.4-0.7-0.6-1.3-0.6c-0.8,0-1.4,0.3-1.7,0.9      c-0.3,0.6-0.5,1.6-0.5,2.8v5.3h-3V93h2.3l0.4,1.5h0.2c0.3-0.5,0.8-0.9,1.3-1.2c0.6-0.3,1.2-0.4,2-0.4c1.7,0,2.8,0.6,3.4,1.7h0.3      c0.3-0.5,0.8-0.9,1.4-1.2s1.3-0.4,2-0.4c1.3,0,2.2,0.3,2.8,1c0.7,0.7,1,1.7,1,3.1v7.3h-3v-6.5c0-0.8-0.1-1.4-0.4-1.9      c-0.3-0.4-0.7-0.6-1.3-0.6c-0.8,0-1.3,0.3-1.7,0.8c-0.4,0.5-0.6,1.4-0.6,2.5v5.5H202z"></path>
				<path class="st0" d="M219.2,104.2l-0.6-1.6h-0.1c-0.5,0.7-1.1,1.1-1.6,1.4c-0.6,0.3-1.3,0.4-2.2,0.4c-1.1,0-2-0.3-2.5-0.9      s-0.9-1.5-0.9-2.6c0-1.2,0.4-2.1,1.3-2.6c0.9-0.6,2.1-0.9,3.7-1l2-0.1v-0.5c0-1.2-0.6-1.7-1.8-1.7c-0.9,0-2,0.3-3.1,0.8l-1-2.1      c1.3-0.7,2.7-1,4.3-1c1.5,0,2.6,0.3,3.4,1c0.8,0.7,1.2,1.7,1.2,3v7.4L219.2,104.2L219.2,104.2z M218.4,99h-1.2      c-0.9,0-1.6,0.2-2,0.5c-0.4,0.3-0.7,0.8-0.7,1.4c0,0.9,0.5,1.3,1.5,1.3c0.7,0,1.3-0.2,1.7-0.6c0.4-0.4,0.7-1,0.7-1.7V99z"></path>
				<path class="st0" d="M229.2,102c0.5,0,1.2-0.1,2-0.4v2.2c-0.8,0.3-1.7,0.5-2.8,0.5c-1.3,0-2.2-0.3-2.6-0.9      c-0.6-0.6-0.9-1.6-0.9-2.7v-5.4h-1.5V94l1.7-1l1-2.4h2V93h3.1v2.2h-3.1v5.4c0,0.4,0.1,0.8,0.4,1      C228.6,101.8,228.8,102,229.2,102z"></path>
				<path class="st0" d="M233.3,90.1c0-1,0.6-1.5,1.7-1.5s1.7,0.5,1.7,1.5c0,0.5-0.1,0.9-0.4,1.1c-0.3,0.3-0.7,0.4-1.3,0.4      C233.8,91.6,233.3,91.1,233.3,90.1z M236.5,104.2h-3V93h3V104.2z"></path>
				<path class="st0" d="M249.8,98.5c0,1.9-0.5,3.2-1.5,4.3c-1,1.1-2.3,1.6-4,1.6c-1.1,0-2.1-0.2-2.8-0.7c-0.8-0.5-1.5-1.2-1.9-2.1      c-0.4-0.9-0.7-2-0.7-3.1c0-1.9,0.5-3.2,1.5-4.3c1-1,2.3-1.6,4-1.6c1.1,0,2.1,0.2,2.8,0.7c0.8,0.5,1.5,1.2,1.9,2.1      C249.6,96.3,249.8,97.4,249.8,98.5z M242.1,98.5c0,1.1,0.2,2,0.6,2.5s1,0.9,1.8,0.9c0.8,0,1.4-0.3,1.8-0.9      c0.4-0.6,0.5-1.4,0.5-2.5c0-1.1-0.2-2-0.6-2.5c-0.4-0.6-1-0.9-1.8-0.9s-1.4,0.3-1.8,0.8C242.3,96.6,242.1,97.5,242.1,98.5z"></path>
				<path class="st0" d="M262.7,104.2h-3v-6.5c0-0.8-0.1-1.4-0.4-1.9c-0.3-0.4-0.8-0.6-1.4-0.6c-0.9,0-1.5,0.3-1.9,0.9      c-0.4,0.6-0.6,1.6-0.6,2.8v5.3h-3.1V93h2.3l0.4,1.5h0.2c0.3-0.6,0.8-1,1.4-1.3c0.6-0.3,1.3-0.4,2.1-0.4c1.3,0,2.2,0.4,2.9,1.1      c0.7,0.7,1,1.8,1,3L262.7,104.2L262.7,104.2z"></path>
				<path class="st0" d="M280.4,104.2l-1.1-3.5H274l-1.1,3.5h-3.3l5.2-14.8h3.8l5.2,14.8H280.4z M278.7,98.2c-1-3.1-1.6-5-1.7-5.4      s-0.2-0.8-0.3-1c-0.2,0.9-0.9,2.9-1.9,6.4H278.7z"></path>
				<path class="st0" d="M289.9,104.4c-3.5,0-5.3-2-5.3-5.8c0-1.9,0.5-3.3,1.5-4.4c1-1,2.3-1.5,4.1-1.5c1.3,0,2.4,0.3,3.5,0.8      l-0.9,2.3c-0.5-0.2-1-0.4-1.4-0.5s-0.8-0.2-1.3-0.2c-1.6,0-2.3,1.2-2.3,3.4c0,2.2,0.8,3.3,2.3,3.3c0.6,0,1.2-0.1,1.7-0.2      c0.5-0.2,1-0.4,1.5-0.8v2.6c-0.5,0.3-1,0.5-1.5,0.7C291.4,104.3,290.7,104.4,289.9,104.4z"></path>
				<path class="st0" d="M300.7,102c0.5,0,1.2-0.1,2-0.4v2.2c-0.8,0.3-1.7,0.5-2.8,0.5s-2.2-0.3-2.6-0.9c-0.6-0.6-0.9-1.6-0.9-2.7      v-5.4h-1.5V94l1.7-1l0.9-2.4h2V93h3.1v2.2h-3.1v5.4c0,0.4,0.1,0.8,0.4,1C300,101.8,300.3,102,300.7,102z"></path>
				<path class="st0" d="M304.7,90.1c0-1,0.6-1.5,1.7-1.5c1.1,0,1.7,0.5,1.7,1.5c0,0.5-0.1,0.9-0.4,1.1c-0.3,0.3-0.7,0.4-1.3,0.4      C305.3,91.6,304.7,91.1,304.7,90.1z M307.9,104.2h-3V93h3V104.2z"></path>
				<path class="st0" d="M321.3,98.5c0,1.9-0.5,3.2-1.5,4.3c-1,1.1-2.3,1.6-4,1.6c-1.1,0-2.1-0.2-2.8-0.7s-1.5-1.2-1.9-2.1      s-0.7-2-0.7-3.1c0-1.9,0.5-3.2,1.5-4.3c1-1,2.3-1.6,4-1.6c1.1,0,2.1,0.2,2.8,0.7c0.8,0.5,1.5,1.2,1.9,2.1      C321,96.3,321.3,97.4,321.3,98.5z M313.6,98.5c0,1.1,0.2,2,0.6,2.5c0.4,0.6,1,0.9,1.8,0.9c0.8,0,1.4-0.3,1.8-0.9      c0.4-0.6,0.5-1.4,0.5-2.5c0-1.1-0.2-2-0.6-2.5s-1-0.9-1.8-0.9c-0.8,0-1.4,0.3-1.8,0.8C313.8,96.6,313.6,97.5,313.6,98.5z"></path>
				<path class="st0" d="M334.2,104.2h-3v-6.5c0-0.8-0.1-1.4-0.4-1.9c-0.3-0.4-0.8-0.6-1.4-0.6c-0.9,0-1.5,0.3-1.9,0.9      c-0.4,0.6-0.6,1.6-0.6,2.8v5.3h-3V93h2.3l0.4,1.5h0.2c0.3-0.6,0.8-1,1.4-1.3s1.3-0.4,2.1-0.4c1.3,0,2.2,0.4,2.9,1.1      c0.7,0.7,1,1.8,1,3V104.2z"></path>
			</g>
		</g>
	</g>
</g>
</svg>