<svg xmlns="http://www.w3.org/2000/svg" viewBox="0 0 419.12403 137.43215"><defs><style>.cls-1{fill:#b1b1b0;}.cls-2{fill:#135aa7;}.cls-3,.cls-5{fill:#f2f2f2;}.cls-4{fill:none;}.cls-5{isolation:isolate;font-size:17px;font-family:OpenSans-Bold, Open Sans;font-weight:700;}</style></defs><title>Blue Heart and bold title combined</title><g id="Layer_2" data-name="Layer 2"><g id="Layer_1-2" data-name="Layer 1"><g id="Layer_1-2-2" data-name="Layer 1-2"><path class="cls-1" d="M57.59251,59.23588a2.899,2.899,0,0,1,.159,1.43506c.008.24194-.102.478-.367.474a.82016.82016,0,0,1-.658-.34406c-.217-.315.117-.383.278-.478.381-.224.303-.678.588-1.087"/><path class="cls-2" d="M33.30681,2.99027s-8.874-6.366-17.168,2.7c-10.995,4.823-20.447,21.412-14.082,36.844,8.983,18.153,16.076,22.264,20.571,27.188,10.248,11.229,14.537,12.164,17.238,42.063,2.574-12.504,8.68-24.691-10.61-49.189-22.569-24.113-16.011-38.387-16.011-38.387s1.158,9.452,13.311,11.188c-5.369-11.767-8.488-18.325.578-25.848-2.701,7.33-.193,11.38-.193,11.38s5.787-15.432,17.94-10.609a22.20656,22.20656,0,0,0-6.945,9.066s9.26-8.487,16.976.772c5.208-6.366-2.122-11.189-5.98-10.609.964-2.508-5.401-15.24-15.625-6.559"/><path d="M58.59491,28.372l2.263-2.153s1.325,3.864-3.809,5.244c1.38-1.601,1.982-2.153,1.546-3.091"/><path class="cls-1" d="M39.93081,24.79649a6.1009,6.1009,0,0,0-2.897,5.53405,10.88867,10.88867,0,0,0,1.151,4.012c.706,1.495,1.066,3.138,2.058,4.512a10.92049,10.92049,0,0,0,6.834,4.382,18.25638,18.25638,0,0,0,2.286.281,5.5791,5.5791,0,0,1-3.72.178,27.35405,27.35405,0,0,1,4.745,10.579c.357-.001.439-.443.884-.527-.202.945-.381,1.85095-.592,2.749-.284,1.205-.601,2.403-.888,3.608a2.3387,2.3387,0,0,0,1.183,2.517,14.96688,14.96688,0,0,0,1.654.748c.614.277.788.01794.667-.60706a15.04083,15.04083,0,0,0,1.863.864c2,.62,3.689-.142,4.801-2.106a11.05043,11.05043,0,0,0,1.183-7.115,7.3,7.3,0,0,1-.028-1.057c.053-3.646-.398-7.264-.606-10.896-.16-2.793-.491-5.576-.749-8.363a3.357,3.357,0,0,1-.084-1.77,34.67185,34.67185,0,0,1,1.234,5.251q.621,3.90144,1.134,7.82c.196,1.514.293,3.041.41,4.565.272,3.51795.223,7.044.187,10.568a4.89467,4.89467,0,0,1-2.109,4.279,5.74329,5.74329,0,0,1-5.672.282,5.87072,5.87072,0,0,0-2.29-.465,6.75689,6.75689,0,0,1-3.119-.75,4.40243,4.40243,0,0,1-1.697-4.71406c.347-1.026.7-2.051,1.039-3.081a6.04469,6.04469,0,0,0-.625-4.433,38.32814,38.32814,0,0,0-4.543-7.275,1.449,1.449,0,0,0-.938-.614,5.82081,5.82081,0,0,1-3.525-2.625,24.60432,24.60432,0,0,1-4.422-10.166,5.09543,5.09543,0,0,1,3.444-5.811,3.105,3.105,0,0,1,1.747-.354"/><path class="cls-1" d="M66.99241,22.05076c-3.147,1.597-6.206,3.104-8.57,5.623-.081-.95905.744-2.241,2.257-3.417a16.058,16.058,0,0,1,4.017-2.071,27.85687,27.85687,0,0,0-9.963-.813c2.116-1.689,8.885-1.294,12.259.678"/><path class="cls-1" d="M52.14711,28.6807c0,.885-.047,1.649.01,2.406.123,1.623.452,1.823,1.935,1.279a3.13536,3.13536,0,0,1-1.754,1.647c-.48.098-.69-.178-.875-.559a8.475,8.475,0,0,1-.397-5.706,3.82843,3.82843,0,0,1,.589-1.689c.927,2.06195,2.527,3.583,4.279,5.31195-1.925-.20794-2.62-1.615-3.787-2.69"/><path class="cls-2" d="M57.405,31.20945a5.1095,5.1095,0,0,0,1.337-2.629c.247-.969,1.25-1.483,1.942-2.169.264-.262.304.114.33.331a4.02982,4.02982,0,0,1-3.36918,4.59646q-.04384.00675-.08782.01254c-.051-.047-.102-.095-.152-.142"/><path class="cls-1" d="M65.89961,33.28715s27.961-12.097,42.583,5.446c15.116,18.138,4.456,30.039,4.456,30.039s-6.602,10.728-25.087,17.826c-18.486,7.096-55.457,17.99-50.01,50.834.825-18.155,18.65-26.903,57.271-37.631,38.622-10.728,42.402-34.004,41.808-37.26,2.222-23.922-36.908-55.534-71.021-29.254"/></g><g id="Layer_1-2-3" data-name="Layer 1-2"><g id="Layer_1-2-2-2" data-name="Layer 1-2-2"><g id="Blue_Journey" data-name="Blue Journey"><g id="Blue_Journey_Powered_by_the_HAA" data-name="Blue Journey Powered by the HAA"><path class="cls-3" d="M169.54272,47.58762c.66384-.41486,1.24462-.66379,1.82538-1.07865,2.48921-1.74245,3.07-4.23166,2.82114-7.05277a7.5664,7.5664,0,0,0-4.89548-6.72087,12.58212,12.58212,0,0,0-5.22738-.82977c-4.72947,0-9.459.083-14.18848,0-1.65947-.083-1.90843.49787-1.90843,1.9914.083,10.1228,0,20.16261,0,30.2854h19.084a13.73392,13.73392,0,0,1,1.74243-.49784,8.22292,8.22292,0,0,0,6.472-7.96547c.08305-4.31464-1.49336-6.55493-5.7251-8.13143m-12.69492-9.29306h6.306c1.99138.083,3.40191,1.32758,3.40191,3.153a3.37137,3.37137,0,0,1-3.07346,3.645q-.03974.00338-.07954.00582c-2.24025.083-4.39765,0-6.6379.083-.49782,0-.82974-.083-.82974-.74677V39.04133c-.083-.66379.415-.74676.9128-.74676M167.1367,54.30849a3.29447,3.29447,0,0,1-3.18516,3.40027h0q-.06687.00219-.13376.00165c-2.3233.083-4.64651,0-6.96981.083-.66384,0-.99564-.166-.99564-.99569.083-1.90839.083-3.73381.083-5.72518.249-.66379.82974-.41487,1.24462-.41487,2.3233,0,4.56355,0,6.88685.083,2.24025.49784,3.15294,1.65948,3.07,3.56787"/><path class="cls-3" d="M216.506,41.94541a13.44452,13.44452,0,0,0-2.15731,18.25421c4.31459,5.47627,13.27578,6.472,18.58613,1.9084a12.20984,12.20984,0,0,0,2.987-3.81679c.083-.24892.58078-.74676,0-.99568-1.99139-.49784-4.14868-.82974-6.14007-1.2446a.758.758,0,0,0-.41487.24892c-.66384,1.07866-1.74244,1.32758-2.82113,1.82542A5.08012,5.08012,0,0,1,219.75149,55.79q-.09648-.1975-.17559-.4028c-.41487-.99568-.249-1.32757.82974-1.32757,2.48922.083,4.97842,0,7.55059,0h7.63355c.58076,0,1.16165,0,1.2446-.82974.083-3.4849-.41488-6.88682-2.73818-9.459-5.14424-6.306-13.19278-5.31028-17.59034-1.82542M228.2052,49.413h-7.55059c-.99564,0-.99564-.41487-.58077-1.07865a5.4141,5.4141,0,0,1,4.56356-2.73814,4.76229,4.76229,0,0,1,4.39765,2.48921c.41475.91271.24875,1.32758-.82983,1.32758"/><path class="cls-3" d="M316.98706,39.954c-2.57218,0-2.57218,0-2.57218,2.57219,0,3.48489,0,6.96979-.16592,10.53766a4.771,4.771,0,0,1-2.57217,4.39761c-3.07,1.65947-6.14008-.41487-6.306-4.06572q-.12442-5.9741,0-11.94821c0-1.07866-.1659-1.65948-1.41053-1.5765a46.52627,46.52627,0,0,1-4.8125,0c-1.0787-.083-1.32754.41487-1.32754,1.32757V54.97228a15.306,15.306,0,0,0,.82974,4.39761c1.07871,3.319,6.63791,6.6379,10.20581,5.31032a19.20389,19.20389,0,0,0,5.55919-2.73814c-.249,1.99137.82974,2.15731,2.24027,1.99137,1.82537-.083,3.65084,0,5.47622-.083V39.70512a27.37749,27.37749,0,0,1-5.14444.24892"/><path class="cls-3" d="M210.94661,41.0327c0-.74676-.249-1.07866-1.0787-1.07866-1.82537,0-3.65086.083-5.47623,0-.99566,0-1.16168.41487-1.16168,1.24461V51.23847a9.374,9.374,0,0,1-.66382,3.98274,4.5242,4.5242,0,0,1-2.73822,2.48921c-3.07.99568-5.5592-.99568-5.7252-4.56355-.083-3.98274-.083-7.88251,0-11.78227,0-.99569-.1659-1.5765-1.32755-1.41055-1.65948.083-3.40191.083-4.97842,0-.82973,0-1.2446.24892-1.2446,1.16163,0,4.81246-.083,9.70792.083,14.60336.16591,6.389,5.14433,10.1228,11.36735,9.04413A12.10887,12.10887,0,0,0,202.981,62.357c.49781.66379-.249,1.99137,1.24461,1.90839,1.90843-.083,3.73381,0,5.7252,0,.7468,0,.99566-.41487.99566-1.07866q.0003-11.20146.00019-22.154"/><path class="cls-3" d="M283.71463,39.37323c-7.96546-.166-13.27579,5.55923-13.19284,12.86092s5.72519,12.612,13.27578,12.612a12.74419,12.74419,0,0,0,13.18555-12.287h0q.01013-.28683.00733-.5739c.24887-7.71655-6.63791-13.02687-13.27579-12.612m.16589,19.001c-3.40188,0-5.89111-2.73815-5.89111-6.306s2.57217-6.306,5.97406-6.14a5.93162,5.93162,0,0,1,5.734,6.12281q-.003.09165-.00885.18319a6.06426,6.06426,0,0,1-5.80816,6.14006"/><path class="cls-3" d="M366.85425,48.25141a9.24492,9.24492,0,0,1-.16593-1.41055s-.16592-.99569-.249-1.32758l-.083-.083v-.083c-3.07-6.47195-9.62494-7.96548-15.35013-3.73382-.16593.166-.41486.41487-.74677.083.249-1.65947-.66385-1.74244-1.90844-1.74244-1.90845.083-3.73383,0-5.72522,0,0,2.48921-.083,5.14437-.083,7.63358,0,5.47626.083,11.11847.083,16.59474,1.90844,0,3.73382-.083,5.72522,0,1.41052.083,1.99139-.24892,1.90844-1.82542-.083-3.07,0-6.05708,0-9.12711a11.49917,11.49917,0,0,1,.58078-4.06571,4.65451,4.65451,0,0,1,2.57224-2.73808c3.07-1.16163,5.72519.82974,5.80813,4.31463.083,4.06572,0,8.13143,0,12.03119,0,.99568.249,1.32758,1.2446,1.24461,1.9914-.083,4.14868,0,6.14008,0a1.81887,1.81887,0,0,0,.249-.41487c0-2.2403-.083-14.10554,0-15.35015"/><path class="cls-3" d="M267.94962,31.82262c-.99564.083-1.90842,0-2.90409,0-3.153,0-3.153,0-3.153,3.319v17.3415c0,3.07-1.90842,5.22735-4.8125,5.31032-2.57218.083-3.98278-.82974-5.14434-3.98274-.41487-1.16163-.82974-1.2446-1.82537-1.07866a27.33554,27.33554,0,0,1-4.39765.82974c-1.41051.16594-1.74243.66379-1.32756,2.15731a11.5841,11.5841,0,0,0,10.62067,8.96117c6.55493.58081,10.78659-1.41056,13.52475-6.306a7.74015,7.74015,0,0,0,1.2446-3.07c.249-3.98274,0-7.96547.16592-11.28442,0-3.98274-.083-7.21871,0-10.53766-.083-1.24461-.66382-1.74246-1.99139-1.65948"/><path class="cls-3" d="M184.31209,46.75789h0v-15.931c0-1.07866-.16591-1.65948-1.41051-1.57651-1.65948.083-3.4019.083-4.97842,0-.82975,0-1.24462.166-1.24462,1.16164V62.85479c0,.99568.41487,1.16163,1.24462,1.16163a46.51527,46.51527,0,0,1,4.81251,0c1.32756.083,1.65947-.49785,1.57652-1.65947-.083-5.06141-.0001-10.28875-.0001-15.59906"/><path class="cls-3" d="M341.04944,39.62215a8.688,8.688,0,0,0-7.05277,2.73813c-.49783.49784-.99563,1.07866-1.74243,1.99137v-3.07c.083-.82974-.249-1.24461-1.16165-1.24461a44.95719,44.95719,0,0,1-4.72946,0c-1.32755-.083-1.74244.24893-1.74244,1.65948.083,6.05708,0,12.28011,0,18.33719a24.04525,24.04525,0,0,0,.083,4.23166c2.48919,0,4.97842-.083,7.55056-.083v-.083h.083a69.21422,69.21422,0,0,1,0-8.29737c-.083-4.81247,2.48919-7.79953,7.21866-8.2144a6.238,6.238,0,0,1,1.24459,0c.7468,0,1.07871-.16594,1.16166-1.07866.083-1.82543.16592-3.65084.249-5.55923.083-.91272-.33191-1.16164-1.16165-1.32758"/><path class="cls-3" d="M411.32811,39.954a1.42369,1.42369,0,0,0-1.65647,1.14449h0l-.003.01714c-.74679,1.99137-1.65948,3.98273-2.48922,5.89113-.99564,2.24029-1.90842,4.3976-2.90409,6.63789a3.34388,3.34388,0,0,1-.99563-1.5765c-1.41053-3.65085-2.987-7.21871-4.39765-10.86956-.41485-.99568-.82974-1.32757-1.90841-1.2446-2.24027.083-4.39765,0-6.63791,0l-.08295.24892c3.153,7.38466,6.38892,14.85229,9.542,22.237a2.31392,2.31392,0,0,1-.083,1.82542c-.99564,2.32327-1.99139,4.64653-2.987,6.88682-.41486.82974-.249,1.16163.74677,1.16163,1.90844-.083,3.81677-.083,5.89109,0a1.639,1.639,0,0,0,1.74243-1.2446c1.41053-3.4849,2.90409-6.88682,4.31458-10.28874.99564-2.32327,1.90845-4.64653,3.07-6.88682.99563-1.82542,1.41052-4.06572,2.40625-5.89113,1.32754-2.57219,1.99139-5.39329,3.48486-8.2144-2.4891.166-4.72937.166-7.05267.166"/><path class="cls-3" d="M372.16455,42.44325a13.44451,13.44451,0,0,0-2.15729,18.25421c4.31458,5.47627,13.27579,6.472,18.58612,1.9084a12.20973,12.20973,0,0,0,2.987-3.81679c.083-.24892.58078-.74676,0-.99568-1.99139-.49784-4.14868-.82974-6.14007-1.2446a.758.758,0,0,0-.41486.24892c-.66382,1.07866-1.74243,1.32758-2.82114,1.82542a5.0801,5.0801,0,0,1-6.79417-2.33535h0q-.09648-.19748-.17557-.40275c-.41485-.99568-.249-1.32757.82974-1.32757,2.4892.083,4.97843,0,7.55057,0h7.63358c.58078,0,1.16165,0,1.24459-.82974.083-3.4849-.41485-6.88682-2.73815-9.459a12.64791,12.64791,0,0,0-17.59031-1.82543M383.781,49.745h-7.55059c-.99563,0-.99563-.41487-.58078-1.07866a5.41411,5.41411,0,0,1,4.56353-2.73813,4.76228,4.76228,0,0,1,4.39764,2.48921c.41477,1.07866.24875,1.49353-.82983,1.32758"/></g><rect class="cls-4" x="146.72496" y="70.32242" width="259.79062" height="44.4739"/><text class="cls-5" transform="translate(146.74243 87.51638)">Powered by the HAA</text><text class="cls-5" transform="translate(146.74243 108.97341)">Humanitarian Animation Action</text></g></g></g></g></g></svg>