<svg xmlns="http://www.w3.org/2000/svg" xmlns:xlink="http://www.w3.org/1999/xlink" viewBox="0 0 697.49 496.56"><defs><style>.cls-1{fill:none;stroke:#fff;}.cls-1,.cls-3{stroke-miterlimit:10;stroke-width:2px;}.cls-2{fill:url(#radial-gradient);}.cls-3{fill:url(#linear-gradient);stroke:url(#linear-gradient-2);}.cls-4{fill:#0f3526;}.cls-5{fill:#fff;}</style><radialGradient id="radial-gradient" cx="107.76" cy="104.77" r="107.76" gradientTransform="translate(0 31.36) scale(1 0.89)" gradientUnits="userSpaceOnUse"><stop offset="0" stop-color="#213419"></stop><stop offset="0.01" stop-color="#21351a" stop-opacity="0.99"></stop><stop offset="1" stop-color="#3ab98d" stop-opacity="0"></stop></radialGradient><linearGradient id="linear-gradient" x1="107.76" y1="1" x2="107.76" y2="189.49" gradientUnits="userSpaceOnUse"><stop offset="0" stop-color="#3ab98d" stop-opacity="0"></stop><stop offset="0.11" stop-color="#3cb988" stop-opacity="0.17"></stop><stop offset="0.35" stop-color="#40b87b" stop-opacity="0.61"></stop><stop offset="0.44" stop-color="#42b875" stop-opacity="0.8"></stop><stop offset="0.69" stop-color="#4bbb83"></stop><stop offset="1" stop-color="#38bdb1"></stop></linearGradient><linearGradient id="linear-gradient-2" x1="107.76" x2="107.76" y2="190.49" gradientUnits="userSpaceOnUse"><stop offset="0" stop-color="#fff"></stop><stop offset="0.6" stop-color="#7ec789"></stop><stop offset="1" stop-color="#fff"></stop></linearGradient></defs><g id="Layer_2" data-name="Layer 2"><g id="Emerald_Dialogue" data-name="Emerald Dialogue"><g id="Circle_Buttons" data-name="Circle Buttons"><g id="Layer_9" data-name="Layer 9"><line class="cls-1" x1="183.92" y1="150.76" x2="696.94" y2="495.73"></line><ellipse class="cls-2" cx="107.76" cy="124.91" rx="107.76" ry="96.22"></ellipse><circle class="cls-3" cx="107.76" cy="95.24" r="94.24"></circle><path class="cls-4" d="M26,81.66l.8-.19c1.82-.53,2.43-1,3.15-3.19l5.4-15.58A6.49,6.49,0,0,0,35.71,61c0-.83-.46-1.29-1.52-1.52l-.8-.19.42-1.18h6.61l6.95,19.91a7.37,7.37,0,0,0,3.12,4.22l-.46.57H42.24l-.38-1.18.84-.19c1-.26,1.52-.68,1.52-1.56a6,6,0,0,0-.42-1.63l-1.64-4.82H34.22L33.39,76a11.88,11.88,0,0,0-.76,3.61,3.85,3.85,0,0,0,.49,2.09l.27.61-.65.57H26.43Zm15.5-10.37-3.3-9.65L35,71.29Z"></path><path class="cls-4" d="M51.25,74.33c0-5.51,3.3-9,8.36-9,3.57,0,6,1.9,6,4.55a3.23,3.23,0,0,1-3.38,3.35c-.46,0-.65-.08-.65-.34A5.43,5.43,0,0,0,62.49,70c0-1.83-1.29-2.93-3.26-2.93-2.62,0-4.37,2.77-4.37,7s2,6.92,5.28,6.92a6.87,6.87,0,0,0,4.56-1.75.47.47,0,0,1,.3-.08,1.11,1.11,0,0,1,.88,1c0,.12,0,.27-.08.27a8.23,8.23,0,0,1-6.19,2.88C54.74,83.33,51.25,79.5,51.25,74.33Z"></path><path class="cls-4" d="M68.73,74.94c0-5.93,3.46-9.61,8.93-9.61,2.12,0,4.56.68,6.87.83l.46.42-.49.65A2.22,2.22,0,0,0,84,68.59V79.8a1,1,0,0,0,1.1,1.07,3.1,3.1,0,0,0,1.71-.61l.65.87a5.91,5.91,0,0,1-3.8,2.2c-1.9,0-2.74-1.06-2.74-3.64-1.94,2.81-3.87,3.64-6,3.64C71.73,83.33,68.73,80.52,68.73,74.94ZM81,77.52V68.21a5.92,5.92,0,0,0-3.34-1c-3.31,0-5.24,2.54-5.24,7.06,0,4.71,1.93,6.35,3.91,6.35C78,80.64,79.71,79.73,81,77.52Z"></path><path class="cls-4" d="M89.48,74.94c0-5.93,3.45-9.61,8.92-9.61a10,10,0,0,1,3.27.41V59.63c0-.57-.19-.76-.64-.76H99.51L99.2,58a7.7,7.7,0,0,1,4.49-2.09,1,1,0,0,1,1.1,1.1V79.8a1,1,0,0,0,1.1,1.07,3.13,3.13,0,0,0,1.71-.61l.64.87a5.87,5.87,0,0,1-3.79,2.2c-1.9,0-2.74-1.06-2.74-3.64-1.94,2.81-3.88,3.64-6,3.64C92.48,83.33,89.48,80.52,89.48,74.94Zm12.23,2.58V68.21a6,6,0,0,0-3.34-1c-3.31,0-5.25,2.54-5.25,7.06,0,4.71,1.94,6.35,3.92,6.35C98.78,80.64,100.46,79.73,101.71,77.52Z"></path><path class="cls-4" d="M110.22,74.52c0-5.51,3.54-9.19,8.93-9.19,4,0,5.89,2.46,5.89,5,0,2.81-2.32,5.77-6.57,5.77-1,0-3.8-.38-3.8-1.59,0-.42.23-.76.49-.76a7.87,7.87,0,0,0,2.24.42c2.93,0,4.37-1.9,4.37-3.88A3.2,3.2,0,0,0,118.51,67c-3,0-4.72,2.66-4.72,7.52,0,4.07,1.75,6.54,5.1,6.54a6.86,6.86,0,0,0,5-2,.37.37,0,0,1,.31-.11,1.12,1.12,0,0,1,1,.94c0,.16-.12.27-.16.35a8.89,8.89,0,0,1-6.84,3.07C113.34,83.33,110.22,79.84,110.22,74.52Z"></path><path class="cls-4" d="M152.1,79.69V71.48c0-2.32-.84-3.53-2.55-3.53-2.85,0-4.86,3.61-5,9v.42c0,2.21.23,3.46,1.48,5l-.41.53h-4.15V71.48c0-2.32-.91-3.53-2.62-3.53-3,0-4.94,3.8-4.94,9.38A6.82,6.82,0,0,0,135,81.78l.41.53-.41.53h-6l-.34-1.06.65-.19c1.21-.23,1.48-.84,1.48-2.59V69.35c0-.53-.19-.76-.68-.76h-1.48l-.35-.91a7.82,7.82,0,0,1,4.56-2.05,1,1,0,0,1,1.1,1.06v3.76c1.18-3,3.69-5.12,6.24-5.12,2.81,0,4.17,1.55,4.4,5.12,1.18-3,3.73-5.12,6.23-5.12,3.08,0,4.41,1.9,4.41,6.15V79.8c0,.76.31,1.18,1,1.18a2.69,2.69,0,0,0,1.71-.72l.68.87a5.88,5.88,0,0,1-3.83,2.2C152.86,83.33,152.1,82.27,152.1,79.69Z"></path><path class="cls-4" d="M163,79.69V69.05c0-.61-.19-.84-.68-.84h-1.56l-.26-.83a7.67,7.67,0,0,1,4.48-2,1,1,0,0,1,1.14,1V79.8c0,.76.3,1.18,1,1.18a2.92,2.92,0,0,0,1.74-.72l.65.87a6.2,6.2,0,0,1-3.88,2.2C163.76,83.33,163,82.27,163,79.69Zm-.57-19.49A2.89,2.89,0,0,1,164.52,58a2.85,2.85,0,0,1,2.17,2.25,2.85,2.85,0,0,1-2.17,2.24A2.94,2.94,0,0,1,162.43,60.2Z"></path><path class="cls-4" d="M171.52,74.33c0-5.51,3.3-9,8.36-9,3.57,0,6,1.9,6,4.55a3.23,3.23,0,0,1-3.38,3.35c-.46,0-.65-.08-.65-.34a5.43,5.43,0,0,0,.87-2.85c0-1.83-1.29-2.93-3.26-2.93-2.63,0-4.37,2.77-4.37,7s2,6.92,5.28,6.92A6.87,6.87,0,0,0,185,79.27a.45.45,0,0,1,.3-.08,1.1,1.1,0,0,1,.87,1c0,.12,0,.27-.07.27a8.26,8.26,0,0,1-6.19,2.88C175,83.33,171.52,79.5,171.52,74.33Z"></path><path class="cls-4" d="M45.36,124.87l-2.62-5.51c-.42-.87-.73-1.14-2.32-1.67a1,1,0,0,1-.65-.88c0-.45.19-.75.57-.75a7.5,7.5,0,0,0,1.64.22c3.38,0,5.47-2,5.47-5.35a5.4,5.4,0,0,0-5.82-5.78c-1.71,0-2.66.57-2.66,1.63v14.75c0,2.77.38,4.14,1.6,5.73l.42.61-.42.57H33l-.42-1.18.8-.19c1.71-.45,2.2-1.06,2.2-3.19v-17c0-.57-.19-.8-.76-.8h-2l-.42-1.29A27,27,0,0,1,41,103.25c6.3,0,10,2.77,10,7.52a6.85,6.85,0,0,1-5.59,7,4.3,4.3,0,0,1,1.45,1.67L50.07,126a1.43,1.43,0,0,0,1.33,1,2,2,0,0,0,1.29-.5l.61,1a4.83,4.83,0,0,1-3.19,1.37C48,128.94,46.76,127.87,45.36,124.87Z"></path><path class="cls-4" d="M55.43,120.12c0-5.51,3.53-9.19,8.93-9.19,4,0,5.89,2.46,5.89,5,0,2.81-2.32,5.77-6.58,5.77-1,0-3.8-.38-3.8-1.59,0-.42.23-.76.5-.76a7.87,7.87,0,0,0,2.24.42c2.93,0,4.37-1.9,4.37-3.88a3.21,3.21,0,0,0-3.27-3.34c-3,0-4.71,2.66-4.71,7.52,0,4.07,1.75,6.54,5.09,6.54a6.88,6.88,0,0,0,5-2,.35.35,0,0,1,.3-.11,1.12,1.12,0,0,1,1,1,.72.72,0,0,1-.15.34,8.92,8.92,0,0,1-6.84,3.08C58.54,128.94,55.43,125.44,55.43,120.12Z"></path><path class="cls-4" d="M74,124.6a2.71,2.71,0,0,1,2.89-2.69c.34,0,.72.15.72.41a6.84,6.84,0,0,0-.45,2,3,3,0,0,0,3.26,2.93c1.9,0,3.27-1.11,3.27-2.74s-1.82-2.51-3.76-3.31c-2.51-1.06-5.51-2.39-5.51-5.66,0-2.73,2.7-4.59,6.27-4.59,3.19,0,5.66,1.25,5.66,3.49a2.82,2.82,0,0,1-2.89,3c-.57,0-.76-.23-.76-.49s.57-.8.57-1.9a2.56,2.56,0,0,0-2.85-2.47c-1.9,0-3,1-3,2.47,0,1.9,1.94,2.85,4.07,3.65,2.51,1.06,5.39,2.31,5.39,5,0,3.15-2.73,5.21-6.83,5.21C76.59,128.94,74,127.26,74,124.6Z"></path><path class="cls-4" d="M90.2,120.12c0-5.51,3.53-9.19,8.93-9.19,4,0,5.89,2.46,5.89,5,0,2.81-2.32,5.77-6.58,5.77-1,0-3.8-.38-3.8-1.59,0-.42.23-.76.5-.76a7.78,7.78,0,0,0,2.24.42c2.92,0,4.37-1.9,4.37-3.88a3.21,3.21,0,0,0-3.27-3.34c-3,0-4.71,2.66-4.71,7.52,0,4.07,1.75,6.54,5.09,6.54a6.88,6.88,0,0,0,5-2,.35.35,0,0,1,.3-.11,1.12,1.12,0,0,1,.95,1,.72.72,0,0,1-.15.34,8.92,8.92,0,0,1-6.84,3.08C93.31,128.94,90.2,125.44,90.2,120.12Z"></path><path class="cls-4" d="M108.4,120.54c0-5.93,3.46-9.61,8.93-9.61,2.13,0,4.56.68,6.88.83l.45.42-.49.65a2.22,2.22,0,0,0-.46,1.36V125.4a1,1,0,0,0,1.1,1.07,3.1,3.1,0,0,0,1.71-.61l.65.87a5.93,5.93,0,0,1-3.8,2.21c-1.9,0-2.74-1.07-2.74-3.65-1.93,2.81-3.87,3.65-6,3.65C111.4,128.94,108.4,126.12,108.4,120.54Zm12.23,2.58v-9.31a5.92,5.92,0,0,0-3.34-1c-3.31,0-5.24,2.54-5.24,7.06,0,4.71,1.93,6.35,3.91,6.35C117.71,126.24,119.38,125.33,120.63,123.12Z"></path><path class="cls-4" d="M129.37,127.38l.65-.19c1.22-.23,1.48-.84,1.48-2.59V115c0-.53-.19-.76-.68-.76h-1.48l-.35-.91a7.85,7.85,0,0,1,4.56-2,1,1,0,0,1,1.11,1.06v3.77h.19c.79-3.08,2.58-5.13,4.52-5.13a3.2,3.2,0,0,1,3.3,3.49,3.12,3.12,0,0,1-3.34,3c-.46,0-.68-.07-.68-.34s.91-1.06.91-2.36c0-.83-.42-1.37-1.1-1.37-1.41,0-3.8,2.44-3.8,9.66a6.53,6.53,0,0,0,1.1,4.33l.42.53-.42.53h-6Z"></path><path class="cls-4" d="M144.19,119.93c0-5.51,3.31-9,8.36-9,3.58,0,6,1.9,6,4.55a3.22,3.22,0,0,1-3.38,3.35c-.45,0-.64-.08-.64-.34a5.43,5.43,0,0,0,.87-2.85c0-1.83-1.29-2.93-3.27-2.93-2.62,0-4.37,2.77-4.37,7s2,6.92,5.29,6.92a6.83,6.83,0,0,0,4.55-1.75.5.5,0,0,1,.31-.08,1.1,1.1,0,0,1,.87,1c0,.12,0,.27-.07.27a8.27,8.27,0,0,1-6.2,2.89C147.69,128.94,144.19,125.1,144.19,119.93Z"></path><path class="cls-4" d="M175,125.33v-8.17c0-2.32-.8-3.61-3-3.61-3,0-5,3.8-5,9.38a6.87,6.87,0,0,0,1.14,4.45l.42.53-.42.53h-6l-.42-1.06.76-.19c1.18-.23,1.45-.84,1.45-2.59V105.23c0-.57-.19-.76-.69-.76h-1.55l-.27-.88a7.81,7.81,0,0,1,4.48-2.09,1.07,1.07,0,0,1,1.14,1.1v13.46c1.18-3,3.84-5.13,6.5-5.13,3.42,0,4.6,1.93,4.6,6.23v8.32c0,.76.3,1.18,1,1.18a2.81,2.81,0,0,0,1.71-.69l.72.84a6.14,6.14,0,0,1-3.92,2.2C175.69,129,175,127.91,175,125.33Z"></path><path class="cls-5" d="M26,79.66l.8-.19c1.82-.53,2.43-1,3.15-3.19l5.4-15.58A6.49,6.49,0,0,0,35.71,59c0-.83-.46-1.29-1.52-1.52l-.8-.19.42-1.18h6.61l6.95,19.91a7.37,7.37,0,0,0,3.12,4.22l-.46.57H42.24l-.38-1.18.84-.19c1-.26,1.52-.68,1.52-1.56a6,6,0,0,0-.42-1.63l-1.64-4.82H34.22L33.39,74a11.88,11.88,0,0,0-.76,3.61,3.85,3.85,0,0,0,.49,2.09l.27.61-.65.57H26.43Zm15.5-10.37-3.3-9.65L35,69.29Z"></path><path class="cls-5" d="M51.25,72.33c0-5.51,3.3-9,8.36-9,3.57,0,6,1.9,6,4.55a3.23,3.23,0,0,1-3.38,3.35c-.46,0-.65-.08-.65-.34A5.43,5.43,0,0,0,62.49,68c0-1.83-1.29-2.93-3.26-2.93-2.62,0-4.37,2.77-4.37,7s2,6.92,5.28,6.92a6.87,6.87,0,0,0,4.56-1.75.47.47,0,0,1,.3-.08,1.11,1.11,0,0,1,.88,1c0,.12,0,.27-.08.27a8.23,8.23,0,0,1-6.19,2.88C54.74,81.33,51.25,77.5,51.25,72.33Z"></path><path class="cls-5" d="M68.73,72.94c0-5.93,3.46-9.61,8.93-9.61,2.12,0,4.56.68,6.87.83l.46.42-.49.65A2.22,2.22,0,0,0,84,66.59V77.8a1,1,0,0,0,1.1,1.07,3.1,3.1,0,0,0,1.71-.61l.65.87a5.91,5.91,0,0,1-3.8,2.2c-1.9,0-2.74-1.06-2.74-3.64-1.94,2.81-3.87,3.64-6,3.64C71.73,81.33,68.73,78.52,68.73,72.94ZM81,75.52V66.21a5.92,5.92,0,0,0-3.34-1c-3.31,0-5.24,2.54-5.24,7.06,0,4.71,1.93,6.35,3.91,6.35C78,78.64,79.71,77.73,81,75.52Z"></path><path class="cls-5" d="M89.48,72.94c0-5.93,3.45-9.61,8.92-9.61a10,10,0,0,1,3.27.41V57.63c0-.57-.19-.76-.64-.76H99.51L99.2,56a7.7,7.7,0,0,1,4.49-2.09,1,1,0,0,1,1.1,1.1V77.8a1,1,0,0,0,1.1,1.07,3.13,3.13,0,0,0,1.71-.61l.64.87a5.87,5.87,0,0,1-3.79,2.2c-1.9,0-2.74-1.06-2.74-3.64-1.94,2.81-3.88,3.64-6,3.64C92.48,81.33,89.48,78.52,89.48,72.94Zm12.23,2.58V66.21a6,6,0,0,0-3.34-1c-3.31,0-5.25,2.54-5.25,7.06,0,4.71,1.94,6.35,3.92,6.35C98.78,78.64,100.46,77.73,101.71,75.52Z"></path><path class="cls-5" d="M110.22,72.52c0-5.51,3.54-9.19,8.93-9.19,4,0,5.89,2.46,5.89,5,0,2.81-2.32,5.77-6.57,5.77-1,0-3.8-.38-3.8-1.59,0-.42.23-.76.49-.76a7.87,7.87,0,0,0,2.24.42c2.93,0,4.37-1.9,4.37-3.88A3.2,3.2,0,0,0,118.51,65c-3,0-4.72,2.66-4.72,7.52,0,4.07,1.75,6.54,5.1,6.54a6.86,6.86,0,0,0,5-2,.37.37,0,0,1,.31-.11,1.12,1.12,0,0,1,1,.94c0,.16-.12.27-.16.35a8.89,8.89,0,0,1-6.84,3.07C113.34,81.33,110.22,77.84,110.22,72.52Z"></path><path class="cls-5" d="M152.1,77.69V69.48c0-2.32-.84-3.53-2.55-3.53-2.85,0-4.86,3.61-5,9v.42c0,2.21.23,3.46,1.48,5l-.41.53h-4.15V69.48c0-2.32-.91-3.53-2.62-3.53-3,0-4.94,3.8-4.94,9.38A6.82,6.82,0,0,0,135,79.78l.41.53-.41.53h-6l-.34-1.06.65-.19c1.21-.23,1.48-.84,1.48-2.59V67.35c0-.53-.19-.76-.68-.76h-1.48l-.35-.91a7.82,7.82,0,0,1,4.56-2.05,1,1,0,0,1,1.1,1.06v3.76c1.18-3,3.69-5.12,6.24-5.12,2.81,0,4.17,1.55,4.4,5.12,1.18-3,3.73-5.12,6.23-5.12,3.08,0,4.41,1.9,4.41,6.15V77.8c0,.76.31,1.18,1,1.18a2.69,2.69,0,0,0,1.71-.72l.68.87a5.88,5.88,0,0,1-3.83,2.2C152.86,81.33,152.1,80.27,152.1,77.69Z"></path><path class="cls-5" d="M163,77.69V67.05c0-.61-.19-.84-.68-.84h-1.56l-.26-.83a7.67,7.67,0,0,1,4.48-2,1,1,0,0,1,1.14,1V77.8c0,.76.3,1.18,1,1.18a2.92,2.92,0,0,0,1.74-.72l.65.87a6.2,6.2,0,0,1-3.88,2.2C163.76,81.33,163,80.27,163,77.69Zm-.57-19.49A2.89,2.89,0,0,1,164.52,56a2.85,2.85,0,0,1,2.17,2.25,2.85,2.85,0,0,1-2.17,2.24A2.94,2.94,0,0,1,162.43,58.2Z"></path><path class="cls-5" d="M171.52,72.33c0-5.51,3.3-9,8.36-9,3.57,0,6,1.9,6,4.55a3.23,3.23,0,0,1-3.38,3.35c-.46,0-.65-.08-.65-.34a5.43,5.43,0,0,0,.87-2.85c0-1.83-1.29-2.93-3.26-2.93-2.63,0-4.37,2.77-4.37,7s2,6.92,5.28,6.92A6.87,6.87,0,0,0,185,77.27a.45.45,0,0,1,.3-.08,1.1,1.1,0,0,1,.87,1c0,.12,0,.27-.07.27a8.26,8.26,0,0,1-6.19,2.88C175,81.33,171.52,77.5,171.52,72.33Z"></path><path class="cls-5" d="M45.36,122.87l-2.62-5.51c-.42-.87-.73-1.14-2.32-1.67a1,1,0,0,1-.65-.88c0-.45.19-.75.57-.75a7.5,7.5,0,0,0,1.64.22c3.38,0,5.47-2,5.47-5.35a5.4,5.4,0,0,0-5.82-5.78c-1.71,0-2.66.57-2.66,1.63v14.75c0,2.77.38,4.14,1.6,5.73l.42.61-.42.57H33l-.42-1.18.8-.19c1.71-.45,2.2-1.06,2.2-3.19v-17c0-.57-.19-.8-.76-.8h-2l-.42-1.29A27,27,0,0,1,41,101.25c6.3,0,10,2.77,10,7.52a6.85,6.85,0,0,1-5.59,7,4.3,4.3,0,0,1,1.45,1.67L50.07,124a1.43,1.43,0,0,0,1.33,1,2,2,0,0,0,1.29-.5l.61,1a4.83,4.83,0,0,1-3.19,1.37C48,126.94,46.76,125.87,45.36,122.87Z"></path><path class="cls-5" d="M55.43,118.12c0-5.51,3.53-9.19,8.93-9.19,4,0,5.89,2.46,5.89,5,0,2.81-2.32,5.77-6.58,5.77-1,0-3.8-.38-3.8-1.59,0-.42.23-.76.5-.76a7.87,7.87,0,0,0,2.24.42c2.93,0,4.37-1.9,4.37-3.88a3.21,3.21,0,0,0-3.27-3.34c-3,0-4.71,2.66-4.71,7.52,0,4.07,1.75,6.54,5.09,6.54a6.88,6.88,0,0,0,5-2,.35.35,0,0,1,.3-.11,1.12,1.12,0,0,1,1,1,.72.72,0,0,1-.15.34,8.92,8.92,0,0,1-6.84,3.08C58.54,126.94,55.43,123.44,55.43,118.12Z"></path><path class="cls-5" d="M74,122.6a2.71,2.71,0,0,1,2.89-2.69c.34,0,.72.15.72.41a6.84,6.84,0,0,0-.45,2,3,3,0,0,0,3.26,2.93c1.9,0,3.27-1.11,3.27-2.74s-1.82-2.51-3.76-3.31c-2.51-1.06-5.51-2.39-5.51-5.66,0-2.73,2.7-4.59,6.27-4.59,3.19,0,5.66,1.25,5.66,3.49a2.82,2.82,0,0,1-2.89,3c-.57,0-.76-.23-.76-.49s.57-.8.57-1.9a2.56,2.56,0,0,0-2.85-2.47c-1.9,0-3,1-3,2.47,0,1.9,1.94,2.85,4.07,3.65,2.51,1.06,5.39,2.31,5.39,5,0,3.15-2.73,5.21-6.83,5.21C76.59,126.94,74,125.26,74,122.6Z"></path><path class="cls-5" d="M90.2,118.12c0-5.51,3.53-9.19,8.93-9.19,4,0,5.89,2.46,5.89,5,0,2.81-2.32,5.77-6.58,5.77-1,0-3.8-.38-3.8-1.59,0-.42.23-.76.5-.76a7.78,7.78,0,0,0,2.24.42c2.92,0,4.37-1.9,4.37-3.88a3.21,3.21,0,0,0-3.27-3.34c-3,0-4.71,2.66-4.71,7.52,0,4.07,1.75,6.54,5.09,6.54a6.88,6.88,0,0,0,5-2,.35.35,0,0,1,.3-.11,1.12,1.12,0,0,1,.95,1,.72.72,0,0,1-.15.34,8.92,8.92,0,0,1-6.84,3.08C93.31,126.94,90.2,123.44,90.2,118.12Z"></path><path class="cls-5" d="M108.4,118.54c0-5.93,3.46-9.61,8.93-9.61,2.13,0,4.56.68,6.88.83l.45.42-.49.65a2.22,2.22,0,0,0-.46,1.36V123.4a1,1,0,0,0,1.1,1.07,3.1,3.1,0,0,0,1.71-.61l.65.87a5.93,5.93,0,0,1-3.8,2.21c-1.9,0-2.74-1.07-2.74-3.65-1.93,2.81-3.87,3.65-6,3.65C111.4,126.94,108.4,124.12,108.4,118.54Zm12.23,2.58v-9.31a5.92,5.92,0,0,0-3.34-1c-3.31,0-5.24,2.54-5.24,7.06,0,4.71,1.93,6.35,3.91,6.35C117.71,124.24,119.38,123.33,120.63,121.12Z"></path><path class="cls-5" d="M129.37,125.38l.65-.19c1.22-.23,1.48-.84,1.48-2.59V113c0-.53-.19-.76-.68-.76h-1.48l-.35-.91a7.85,7.85,0,0,1,4.56-2,1,1,0,0,1,1.11,1.06v3.77h.19c.79-3.08,2.58-5.13,4.52-5.13a3.2,3.2,0,0,1,3.3,3.49,3.12,3.12,0,0,1-3.34,3c-.46,0-.68-.07-.68-.34s.91-1.06.91-2.36c0-.83-.42-1.37-1.1-1.37-1.41,0-3.8,2.44-3.8,9.66a6.53,6.53,0,0,0,1.1,4.33l.42.53-.42.53h-6Z"></path><path class="cls-5" d="M144.19,117.93c0-5.51,3.31-9,8.36-9,3.58,0,6,1.9,6,4.55a3.22,3.22,0,0,1-3.38,3.35c-.45,0-.64-.08-.64-.34a5.43,5.43,0,0,0,.87-2.85c0-1.83-1.29-2.93-3.27-2.93-2.62,0-4.37,2.77-4.37,7s2,6.92,5.29,6.92a6.83,6.83,0,0,0,4.55-1.75.5.5,0,0,1,.31-.08,1.1,1.1,0,0,1,.87,1c0,.12,0,.27-.07.27a8.27,8.27,0,0,1-6.2,2.89C147.69,126.94,144.19,123.1,144.19,117.93Z"></path><path class="cls-5" d="M175,123.33v-8.17c0-2.32-.8-3.61-3-3.61-3,0-5,3.8-5,9.38a6.87,6.87,0,0,0,1.14,4.45l.42.53-.42.53h-6l-.42-1.06.76-.19c1.18-.23,1.45-.84,1.45-2.59V103.23c0-.57-.19-.76-.69-.76h-1.55l-.27-.88a7.81,7.81,0,0,1,4.48-2.09,1.07,1.07,0,0,1,1.14,1.1v13.46c1.18-3,3.84-5.13,6.5-5.13,3.42,0,4.6,1.93,4.6,6.23v8.32c0,.76.3,1.18,1,1.18a2.81,2.81,0,0,0,1.71-.69l.72.84a6.14,6.14,0,0,1-3.92,2.2C175.69,127,175,125.91,175,123.33Z"></path></g></g></g></g></svg>