<svg xmlns="http://www.w3.org/2000/svg" xmlns:xlink="http://www.w3.org/1999/xlink" viewBox="0 0 604.59 431.85"><defs><style>.cls-1{fill:url(#linear-gradient);}</style><linearGradient id="linear-gradient" x1="95.28" y1="75.28" x2="595.83" y2="414.36" gradientUnits="userSpaceOnUse"><stop offset="0" stop-color="#8fcb86"></stop><stop offset="0.01" stop-color="#8fcc8a"></stop><stop offset="0.13" stop-color="#91cfa5"></stop><stop offset="0.23" stop-color="#93d1b6"></stop><stop offset="0.3" stop-color="#93d2bc"></stop><stop offset="0.65" stop-color="#82b6e2"></stop><stop offset="1" stop-color="#a879b5"></stop></linearGradient></defs><g id="Layer_2" data-name="Layer 2"><g id="Layer_5" data-name="Layer 5"><g id="Layer_2-2" data-name="Layer 2"><path class="cls-1" d="M64.78,0A64.75,64.75,0,0,0,0,64.78C.8,163,0,267,0,367.07a64.51,64.51,0,0,0,60.73,64.44l481.78.34a64.76,64.76,0,0,0,62.08-64.78V53.65A64.61,64.61,0,0,0,540.83,0Q302.93.11,64.78,0Zm-1,34.08H542.85L311.06,265.86a10.67,10.67,0,0,1-15.18,0L63.76,34.08ZM572.2,50.61v314.1c0,18.72-6.74,29.29-20.24,33.07L388.67,234.15,572.2,50.61ZM36.11,52l180.5,180.5-165,165c-11.29-3.81-15.23-12.91-15.52-25.31V52Zm203.44,203.1,56.34,56.68a10.68,10.68,0,0,0,15.19,0l54.65-54.66L508.11,399.46H95.16l144.4-144.4Z"></path></g></g></g></svg>