<svg xmlns="http://www.w3.org/2000/svg" xmlns:xlink="http://www.w3.org/1999/xlink" viewBox="0 0 40.56 40.31"><defs><style>.cls-1{fill:url(#linear-gradient);}</style><linearGradient id="linear-gradient" y1="20.16" x2="40.56" y2="20.16" gradientUnits="userSpaceOnUse"><stop offset="0" stop-color="#8fcb86"></stop><stop offset="0.01" stop-color="#8fcc8a"></stop><stop offset="0.13" stop-color="#91cfa5"></stop><stop offset="0.23" stop-color="#93d1b6"></stop><stop offset="0.3" stop-color="#93d2bc"></stop><stop offset="0.65" stop-color="#82b6e2"></stop><stop offset="1" stop-color="#a879b5"></stop></linearGradient></defs><g id="Layer_2" data-name="Layer 2"><g id="Layer_5" data-name="Layer 5"><g id="Layer_2-2" data-name="Layer 2"><path class="cls-1" d="M18.62,40.21a11.45,11.45,0,0,1-2.85-.56c0-.07.16-.18.46-.24a4.19,4.19,0,0,1,1.82,0c.62.08,1,.05,1.06-.07s.31-.11.77.08a2.61,2.61,0,0,0,1.84,0c.15,0,.23,0,.2.16s0,.19.26.1a2.29,2.29,0,0,1,.8-.1l.5,0-.4-.28-.41-.29.39-.14a.63.63,0,0,1,.62,0,6.28,6.28,0,0,0,3.19-.27A3.48,3.48,0,0,1,28,38.47a2.12,2.12,0,0,0,.94-.25c.47-.26.84-.32.84-.12a12.44,12.44,0,0,1-3.1,1.39,22.21,22.21,0,0,1-8,.72Zm4.48-2.69c-.6-.25-.94-.84-.67-1.18.12-.15.1-.21-.06-.21s-.17,0,0-.13a1.92,1.92,0,0,0,.31-1,13.32,13.32,0,0,1,.33-1.6,5.43,5.43,0,0,0,.22-1.09,18.56,18.56,0,0,1,.32-2.4,1.55,1.55,0,0,0-1-1.73,1.73,1.73,0,0,1-.74-.61A11.75,11.75,0,0,0,20.49,25a2.37,2.37,0,0,1,.6-2.67,1,1,0,0,0,.48-1.1,1.43,1.43,0,0,0-.18-.7.38.38,0,0,1-.16-.25c0-.1-.11-.17-.22-.17a.16.16,0,0,0-.17.2c.05.27-.95.08-1.27-.23a.73.73,0,0,0-.38-.22c-.08,0-.15-.1-.15-.23,0-.36-.71-.9-1.34-1a2.32,2.32,0,0,1-1-.46,1.92,1.92,0,0,0-1.22-.38c-.87-.05-1.77-.48-1.59-.76.05-.09-.13-.16-.41-.16-.63,0-.82-.28-.41-.6.17-.14.23-.23.13-.2s-.8-.62-1.28-1.3c-.07-.09-.35-.43-.63-.75l-.51-.59.26.54c.15.3.33.55.42.55s.11.1.06.23a.31.31,0,0,0,.08.35.48.48,0,0,1,.18.38c0,.23,0,.23-.33,0a1,1,0,0,1-.34-.53.39.39,0,0,0-.25-.33.29.29,0,0,1-.16-.4.39.39,0,0,0-.08-.41.53.53,0,0,1-.18-.41,1.47,1.47,0,0,0-.4-.74,2.55,2.55,0,0,1-.42-2.65c.34-.83.4-1.49.15-1.49-.1,0-.13-.18-.07-.4s0-.45-.08-.51-.18,0-.18.14S9.4,8,9.3,8s-.16-.17-.14-.38c.06-.72,0-1-.32-1a3.79,3.79,0,0,0-1.74.88c-.07.12-.19.22-.26.22a4.5,4.5,0,0,0-.91.54c-.42.29-.82.49-.87.43s.14-.26.44-.46a1.49,1.49,0,0,0,.59-.69,2.39,2.39,0,0,1,.67-.87c.34-.3.48-.5.3-.44-.48.17-.25-.32.27-.57a1.08,1.08,0,0,0,.53-.59,2.73,2.73,0,0,1,1.89-1.3,13.08,13.08,0,0,0,1.49-.22,7.58,7.58,0,0,1,1.62-.18c.51,0,.62,0,.6-.26s-.08-.27-.32-.12-.35.13-.41.07.26-.63.56-.63a.16.16,0,0,0,.16-.24c-.06-.15.12-.33.52-.51s.47-.24.29-.19a11.53,11.53,0,0,0-1.8.63,1.7,1.7,0,0,1-.63.14c-.19,0-.34.07-.34.15a5.36,5.36,0,0,1-2,.81c-.37.08-.34,0,.16-.31A15.84,15.84,0,0,1,15.56.37,17,17,0,0,1,20.13,0c3,0,5.26.27,4.77.57a.4.4,0,0,1-.37.05A12.76,12.76,0,0,0,22.65.49c-1.46,0-1.73,0-1.65.19a.25.25,0,0,0,.3.16,5.62,5.62,0,0,1,2.52,1.31,3.73,3.73,0,0,0,.87.6c.07,0,.24.15.36.34s.17.36-.12.44-.54.79-.27,1.58a1.43,1.43,0,0,1,.14.71C24.65,6,23.66,5.37,23,4.73c-.36-.36-.73-.59-.83-.53s-.13,0-.07-.07,0-.27-.15-.39a.43.43,0,0,1-.17-.43.16.16,0,0,0-.16-.23.4.4,0,0,1-.35-.25A.36.36,0,0,0,21,2.58a.94.94,0,0,1-.45-.25.7.7,0,0,0-.77-.1c-.27.09-.39.16-.27.17.36,0,1.56,1.33,1.51,1.65a.78.78,0,0,0,.07.47.42.42,0,0,1-.05.41c-.12.21-.26.19-.87-.13a3.21,3.21,0,0,0-1-.38c-.38,0-.55-.31-.24-.43a.7.7,0,0,0,.35-.35c.07-.18,0-.22-.24-.14s-.34,0-.34-.18-.05-.24-.11-.18-.19,0-.29-.05-.18,0-.18.44.1.64.29.75.26.22.22.29.13.1.37.06a1.87,1.87,0,0,1,1.21.45c.58.39.77.45.81.26.08-.37.24-.3.95.43.37.37.74.65.83.62s.62.34,1,1c.28.43.69.61.49.22-.06-.12.05,0,.24.19a1.32,1.32,0,0,1,.35.67c0,.23,0,.24-.17,0s-.16-.22-.18,0,0,.19-.1,0c-.13-.33-.86-.26-.83.09,0,.18-.12.31-.36.34s-.37.14-.37.23-.26.15-.68.09-.67,0-.67.19a1.54,1.54,0,0,1-.33.7,1.51,1.51,0,0,0-.33.65c0,.19-.05.19-.3,0s-.27-.2,0,.23.27.69-.42,1.27c-.48.4-.63,1.08-.29,1.29a1.36,1.36,0,0,1,.39,1.11c-.14.23-.58-.18-.84-.8a.93.93,0,0,0-.75-.63c-.83-.16-1.16-.12-1.16.13s-.12.21-.33.15a2.58,2.58,0,0,0-1.77,1,1.61,1.61,0,0,0,0,1.71c.31.65.56.78,1.25.64a.66.66,0,0,0,.61-.49c.05-.22.18-.41.29-.41l.48-.07c.44-.09.51.17.21.76-.15.29-.23.57-.18.62s0,.2-.1.33-.08.22.44.16c1-.12,1.25,0,1.24.72,0,1.2.37,1.7,1.05,1.34a.61.61,0,0,1,.64,0c.44.23.46.23.82-.17a1.51,1.51,0,0,1,.64-.4,5.74,5.74,0,0,0,.64-.19c.22-.09.28-.07.2.07s0,.19,0,.19a.17.17,0,0,0,.18-.15c0-.09.2-.06.45.07s.52.19.61.13.12,0,.06.08.06.22.27.27c.53.14.66.13.55-.05a.22.22,0,0,1,.1-.28c.12-.07.15-.05.07.07s.13.26.7.24a.24.24,0,0,1,.21.27c0,.39,1.15,1.29,1.8,1.42s1.22.59,1.22,1a.51.51,0,0,0,.18.4c.12.07.07.23-.12.47s-.2.27-.06.15.43-.09,1.3.38a5.43,5.43,0,0,0,1.36.59,1,1,0,0,1,.6.32.58.58,0,0,0,.53.23c.17-.06.24,0,.24.42a2.33,2.33,0,0,1-.75,1.38,4.45,4.45,0,0,0-.86,1.4,3,3,0,0,1-1.54,2c-.3.1-.54.29-.54.42s-.21.37-.46.53a3.6,3.6,0,0,0-.77.67c-.82,1-1.72,1.73-2.09,1.67s-.38,0-.34.22-.31.84-.57.84a4.77,4.77,0,0,0-1.07.79c-.6.52-.84.83-.71.91s.08.23-.21.47-.39.36-.12.57.3.27.3.32c0,.21-.64.22-1.14,0ZM22.42,8.67a.35.35,0,0,0-.32,0c-.05.06,0,.1.22.09s.24,0,.1-.1Zm1.14-.76c0-.07-.11-.08-.25,0s-.25,0-.25-.14,0-.18-.15,0a.73.73,0,0,0,0,.64l.19.4.21-.38a1.91,1.91,0,0,0,.22-.51Zm-5.36.47a1.49,1.49,0,0,0-.38-.31c-.35-.23-.42-.22-.73,0s-.33.28.38.31a2.25,2.25,0,0,0,.73,0Zm-.4-.86c-.31-.22-.31-.24,0-.35a1.91,1.91,0,0,1,.93,0c.54.14.62.13.53-.08s0-.21.1-.13A.56.56,0,0,0,19.83,7c.27-.15.27-.17-.06-.17s-.36-.11-.36-.46a.92.92,0,0,0-.31-.67c-.17-.13-.3-.27-.27-.31.11-.21,0-.41-.21-.41s-.25-.09-.25-.18-.1-.15-.21-.11a.81.81,0,0,1-.51-.08c-.23-.12-.39,0-.73.36s-.49.47-.56.43-.18,0-.23.16-.05.23,0,.21.33.18.59.44.57.44.73.37c.35-.13.93,0,.81.25a.45.45,0,0,1-.35.16c-.15,0-.2-.08-.13-.19s0-.15-.08-.08a.22.22,0,0,0-.1.28c.05.09,0,.16-.08.16a.18.18,0,0,1-.18-.17c0-.3-.63-.18-.71.13s.3.8.46.53c.08-.12.18-.12.32,0s.26.13.32.07.11,0,.11.11.06.17.13.1,0-.23-.19-.36ZM19,6.61a.37.37,0,0,1,.16-.26c.1,0,.13,0,.07.16s-.23.35-.23.1Zm-2.11-.42c-.18-.14-.24-.25-.13-.25.32,0,.73.19.73.35S17.3,6.47,16.93,6.19Zm5.63,1.64a1.06,1.06,0,0,0-.32-.21c-.22-.12-.36-.11-.49,0s-.05.2.32.2a1.84,1.84,0,0,0,.49,0ZM20,7.44c0-.09-.11-.16-.26-.16s-.21.07-.16.16a.35.35,0,0,0,.27.17A.16.16,0,0,0,20,7.44Zm.59,0c-.06-.09-.14-.16-.18-.16s-.07.07-.07.16a.17.17,0,0,0,.18.17C20.65,7.61,20.69,7.54,20.63,7.44ZM15.18,6.6C15,6.46,15,6.37,15.39,6a1.41,1.41,0,0,0,.46-.61c0-.12-.11-.07-.24.11s-.29.27-.36.2,0-.12.07-.12.19-.12.19-.25c0-.33-.31-.33-.44,0-.05.13-.16.2-.25.15a.18.18,0,0,1-.05-.25c.05-.09,0-.16-.07-.16a.38.38,0,0,0-.28.17.2.2,0,0,1-.28.07c-.11-.07-.09-.16.06-.25s.18-.15,0-.14-1.16.48-.87.48c.12,0,.18.08.13.16s.07.12.28.08l.38-.08-.39.23L13.32,6l.46.21c.34.15.49.16.53,0s.13-.14.31,0,.2.23,0,.34,0,.14.29.14.45,0,.25-.17ZM14.54,6c-.24-.26-.07-.31.28-.09.12.08.16.19.08.24s-.24,0-.36-.15Zm6.59,0c-.1-.1-.42.15-.42.33s.11.06.24-.06.21-.24.18-.27Zm-4.78.24s-.11-.11-.26-.16-.21,0-.15.06.41.24.41.1ZM13.8,4.5c.15-.13.06-.17-.3-.16a1.26,1.26,0,0,0-.79.33c-.29.32-.29.32.06,0s.68-.14.48.27c-.06.11,0,.1.12,0s.32-.33.43-.43Zm1.38.25c0-.1-.08-.13-.17-.07s-.17.13-.17.17.08.08.17.08a.18.18,0,0,0,.17-.18ZM14.3,3.47a1.09,1.09,0,0,0-.51,0c-.11,0,0,.09.3.08S14.46,3.51,14.3,3.47Zm1.3-.19s-.18,0-.3.12-.14.18.1.09.25-.16.2-.21Zm1.93-.21a.16.16,0,0,0-.14-.16c-.08,0-.14.11-.14.25s.06.2.14.16a.35.35,0,0,0,.14-.25Zm-.68-.33a.66.66,0,0,1-.05-.54c.08-.13,0-.12-.17,0s-.27.26,0,.55.45.4.22,0ZM16,2.85a2.5,2.5,0,0,0-.57-.17c-.37-.08-.43-.07-.25.06s1,.26.82.11ZM14.51,2.4c.22-.16.22-.17,0-.11a.94.94,0,0,1-.59-.1c-.3-.15-.31-.14-.1.11s.35.34.69.1Zm.84-.24c0-.15-.1-.2-.27-.14s-.22.13,0,.24.31.19.31-.1Zm4.43-.08c.65,0,0-.37-.75-.41a1.21,1.21,0,0,1-.91-.32c-.3-.41-.42-.35-.42.21,0,.4.05.47.32.4a1,1,0,0,1,.71.18c.25.18.43.21.54.1a.86.86,0,0,1,.51-.16ZM16,2.08a.17.17,0,0,0-.18-.17c-.1,0-.13.07-.07.17s.13.16.17.16.08-.07.08-.16ZM20.58.45a.35.35,0,0,0-.32,0c-.06.06,0,.1.22.09s.23-.05.1-.1ZM25,37.19c-.18-.17,0-.39.41-.39s.31,0,.14.25-.39.31-.55.14ZM7,33.11a5.18,5.18,0,0,0-.9-.91s-.25-.18-.47-.47a2.12,2.12,0,0,0-1.36-1c-.12,0-.18.06-.12.15s-.11.09-.41,0-.62-.42-1-1.3c-.85-1.79-.86-1.84-.47-2.05.2-.1.31-.28.25-.42s0-.24.07-.24.17-.12.17-.26.12-.25.37-.21.38,0,.38-.23a.63.63,0,0,1,.13-.4c.07-.07.12-.05.12.05s.23.24.51.3.5.2.5.32.21.31.46.44l.55.28c.06,0,.07-.21,0-.54-.09-.72.23-.79.39-.08.06.27.17.5.25.5s.23.28.34.63a3.33,3.33,0,0,0,.56,1c.51.52.77.86.77,1a1,1,0,0,0,.27.41,2.35,2.35,0,0,1,.14,2.08,1.3,1.3,0,0,0-.24.63c0,.17-.17.34-.43.4-.42.11-.42.11-.08.35s.47.57.22.54a6.07,6.07,0,0,1-1-1ZM8.36,30.5c0-.14-.14-.22-.18-.18a.26.26,0,0,0,0,.26c.17.27.26.22.15-.08ZM9.9,33.79c-.09-.16,1.19-.85,1.6-.85.2,0,.2,0,0-.17s-.2-.16,0-.16.2-.14.13-.51,0-.5.06-.5a.16.16,0,0,1,.16.17,1.25,1.25,0,0,0,.36.52l.35.35-.4.27a1.8,1.8,0,0,1-.47.28,3,3,0,0,0-.62.38c-.55.4-1,.48-1.14.22Zm1.62-4.07a.65.65,0,0,1-.2-.34c0-.24.25-.13.47.21S11.84,30,11.52,29.72Zm26.39-.18a17.34,17.34,0,0,0,.27-2.22A8,8,0,0,1,38.6,25c.22-.4.23-.6.06-1.3a4.57,4.57,0,0,1-.08-1.5c.1-.61.08-.68-.24-.68s-.35-.1-.35-.25c0-.31-.32-.31-.74,0a.84.84,0,0,1-.63.15,1,1,0,0,0-.62.08c-.42.23-1.14-.32-1.47-1.1-.13-.31-.32-.54-.44-.52s-.21-.28-.21-1.08c0-.61.06-1.08.14-1s.11-.17.09-.48a2.44,2.44,0,0,1,.29-1.14,2.85,2.85,0,0,0,.32-.84c0-.14.08-.24.17-.23s1.13-.63,1-.74,0-.23.18-.4.22-.31.15-.31,0-.13.1-.29.2-.28-.07-.07-.3.19-.31.13l-.05-.32c0-.11-.16-.18-.34-.15s-.3,0-.19-.59a5.48,5.48,0,0,0,.11-1c0-.62.13-.72.67-.44s.49.23.49-.05a2.12,2.12,0,0,0-.42-.88c-.5-.68-.5-.69-.12-.57s.26.07,0-.13-.31-.29-.34-.85c0-.29,0-.31-.09-.09s-.18.3-.3.3c-.31,0-.46-.67-.17-.78a.26.26,0,0,0,.13-.33c-.06-.17,0-.21.21-.12s.28.05.19-.18,0-.25.07-.18a.32.32,0,0,1,.08.36,1.91,1.91,0,0,0,.32,1,2.06,2.06,0,0,1,.33,1c-.05.17,0,.14.11-.07s.12-.47-.19-1c-.2-.34-.34-.64-.3-.68A5.29,5.29,0,0,1,37.4,9.44c.06.19.17.35.23.35a17.48,17.48,0,0,1,2,4.53c0,.15-.12.1-.34-.14s-.67-.48-.67-.29a6,6,0,0,0,.77,1.27s0-.12,0-.28,0-.24.2-.1a.73.73,0,0,1,.34.49c0,.17.08.54.14.81s.22,1.28.35,2.22a18.34,18.34,0,0,1-.35,6.37,9.36,9.36,0,0,0-.23,1.6c0,.92-.33,1.84-.69,1.93a2,2,0,0,0-.75.9c-.43.85-.7,1.1-.49.44ZM39,13.45c-.12-.12-.2-.13-.2,0s.2.42.31.31,0-.17-.11-.28Zm-.44,0c-.14-.64-.72-1.63-1-1.63s-.73.7-.62,1a.44.44,0,0,0,.4.24c.87,0,1.07.09,1.06.2s0,.38.09.38,0-.09,0-.21ZM15,28.82c0-.15.09-.24.2-.2.31.1.36.46.07.46a.27.27,0,0,1-.27-.26Zm.59-.24c-.06-.09,0-.17.16-.17s.33.1.1.25a.19.19,0,0,1-.26-.08Zm-3.51-.44c-.14-.37.05-.54.24-.23s.21.5,0,.5-.2-.12-.26-.27ZM10.65,26.4c0-.09-.11-.11-.25-.06-.31.12-.34-.17,0-.41s.26-.07.4.23.13.41,0,.41a.17.17,0,0,1-.15-.17Zm-3.27-.21a1.89,1.89,0,0,1-.56-.49c-.23-.33-.7-.42-.7-.14,0,.09-.15.17-.33.17s-.34-.08-.34-.17-.15-.17-.34-.17-.33-.07-.33-.17A.16.16,0,0,1,5,25.06c.33,0-.23-.64-.8-.91-.39-.19-.55-.36-.48-.52s0-.25-.15-.25-.2.1-.14.25,0,.25-.33.25a.72.72,0,0,1-.54-.17c0-.09.06-.16.25-.16s.35-.08.36-.17,0-.24,0-.32c0-.25.28-.43.28-.2s.06.16.15.11.24,0,.35.16.15.25.07.25,0,.09.06.19.25.15.44,0,.4-.12,1.06.22a4.09,4.09,0,0,1,1,.68,1,1,0,0,0,.68.26c.47,0,.93-.36.73-.56s0-.11.08-.11c.35,0,.38.33.06.69a.64.64,0,0,1-.67.24c-.59-.18-.62.27-.06.77s.52.75,0,.44Zm2-.49c-.08-.13,0-.16.14-.1a.41.41,0,0,0,.43-.07c.11-.11.21-.11.28,0s.09.18.06.19c-.53.13-.81.12-.91,0Zm-7.55-.5a2.16,2.16,0,0,0-.6-.52c-.64-.41-.88-.9-.51-1,.16-.06.23-.06.16,0s.39.75.6.62.12,0,.06.09.05.23.31.29c.46.12.5.2.27.55s-.17.2-.29,0Zm.54-.05a.7.7,0,0,1,.35-.33c.19-.07.23,0,.16.16a1.48,1.48,0,0,0-.1.34s-.12.07-.25.07a.16.16,0,0,1-.16-.24Zm6.44-.09c-.22-.43,0-.43.51,0s.41.33,0,.33a.71.71,0,0,1-.56-.33ZM3.44,25s.07-.12.16-.17.17,0,.17.07a.17.17,0,0,1-.17.18c-.09,0-.16,0-.16-.08Zm.6-.24c-.07-.11-.09-.25,0-.31s.31.07.23.31-.1.18-.2,0Zm-2.33-.63a2.12,2.12,0,0,1-.14-.88c0-.65,0-.7-.12-.28s-.17.48-.24.46a1.18,1.18,0,0,0-.27,0c-.34,0-.36-1.15,0-1.95s.36-.78.43.12c0,.65.24.86.69.78.26,0,.4,0,.4.15s-.17.23-.38.24H1.68l.37.15c.21.08.38.25.38.37s0,.16-.15,0-.19-.16-.24-.08a.47.47,0,0,0,.06.4,1,1,0,0,1,.15.49c0,.2,0,.2-.1,0S2,23.9,1.94,24s-.17.14-.23.08Zm16.68-.56c.09-.26.36-.28.44,0s-.06.21-.21.21-.26-.08-.23-.17Zm-14.1-.24c0-.18,0-.28.09-.22a.35.35,0,0,1,0,.32c0,.13-.09.1-.1-.1Zm-4.14-1C0,20.76,0,20.69.09,20.61s.17.39.23,1S.48,22.79.53,23s0,.38-.08.38-.22-.47-.3-1.05Zm2.6,1a1.65,1.65,0,0,1,0-1.11c.13-.21.17-.11.17.44,0,.39,0,.71-.08.71a.12.12,0,0,1-.1,0ZM10.31,22c0-.14-.18-.34-.41-.45S9.31,21,9.56,21a2.58,2.58,0,0,1,1,.59c.18.24.16.59,0,.59s-.17-.12-.17-.26ZM1.93,20.86c-.12-.22-.13-.33,0-.33s.18-.12.18-.26.07-.22.16-.16.22,1.09,0,1.09-.24-.15-.34-.34Zm-.84-.53a1.08,1.08,0,0,1,.17-.47c.13-.21.16-.19.16.11a.62.62,0,0,1-.16.47c-.1.06-.17,0-.17-.11Zm-1-.52C0,18.14.59,14.3.93,14.18c.09,0,.16-.22.16-.43A8.77,8.77,0,0,1,2.17,11c.18-.19.23-.18.32.05s0,.23-.08.16-.15,0-.07.23a.6.6,0,0,1-.23.65,2.59,2.59,0,0,0-.69,1.52c0,.23,0,.22.25,0a1.51,1.51,0,0,0,.25-.79c0-.25.08-.46.18-.46.3,0,.17,1.15-.21,1.88s-.39.66-.44.34-.11-.38-.19-.38c-.32,0-.48,2.07-.17,2.27s.2.8-.08.69-.54.35-.56,1.57c0,1.66,0,1.68-.2,1.68s-.18-.25-.19-.55Zm1.57,0c.05-.27,0-.38-.13-.33S1,18.19,1.25,18s.17,0,.17.31a1.5,1.5,0,0,0,.45.95c.37.39.41.51.23.72-.32.39-.56.32-.47-.14ZM21.35,17c.16-.15.25-.15.41,0s.11.2-.21.2-.35,0-.2-.2Zm1,0c0-.11.11-.16.24-.11a.27.27,0,0,0,.34-.16.19.19,0,0,1,.3-.12,1.13,1.13,0,0,0,.57.09.53.53,0,0,1,.48.13c.06.1,0,.18-.2.19s-.62,0-1,.09-.72,0-.72-.11Zm2.32,0c.15-.15.24-.15.4,0s.11.2-.2.2S24.55,17.13,24.71,17Zm-3.87-.9a.92.92,0,0,0-.66-.14c-.11.08-.14.05-.07-.07s0-.2-.23-.2-.32.06-.28.13-.06.14-.24.14c-.44,0-.4-.24.08-.46.33-.15.6-.11,1.43.21,1,.39,1.3.66.73.65a2.21,2.21,0,0,1-.76-.26Zm15-2.24a.18.18,0,0,1,.17-.18c.09,0,.17,0,.17.07s-.08.12-.17.18-.17,0-.17-.07Zm.34-3.11s.07-.12.17-.17.16,0,.16.07a.17.17,0,0,1-.16.18c-.1,0-.17,0-.17-.08ZM2.93,9.9a.48.48,0,0,1,.17-.36c.09-.06.17,0,.17.15A.44.44,0,0,1,3.1,10C3,10.1,2.93,10,2.93,9.9Zm.68,0s.07-.12.16-.18.17,0,.17.07a.17.17,0,0,1-.17.18c-.09,0-.16,0-.16-.07Zm1-.93a.18.18,0,0,1,.17-.17c.09,0,.17,0,.17.07S4.87,9,4.78,9s-.17,0-.17-.08Zm.25-1.52a.22.22,0,0,0-.3-.05c-.11.07-.1,0,0-.17s.78-.38.92-.15c0,.08-.06.23-.23.34s-.35.14-.42,0ZM27,5.08A.72.72,0,0,0,26.48,5c-.14,0-.2,0-.14-.07s0-.17-.11-.17c-.37,0,0-.22.47-.27s1.45.38,1.31.61-.59.2-1,0Z"></path></g></g></g></svg>