<svg xmlns="http://www.w3.org/2000/svg" xmlns:xlink="http://www.w3.org/1999/xlink" id="Layer_1" x="0px" y="0px" viewBox="0 0 425.8 142.4" style="enable-background:new 0 0 425.8 142.4;" xml:space="preserve">
<style type="text/css">
	.st0{fill:#B1B1B0;}
	.st1{fill:#135AA7;}
	.st2{fill:#F2F2F2;}
	.st3{fill:none;}
	.st4{enable-background:new    ;}
</style>
<g id="Layer_2_1_">
	<g id="Layer_1-2">
		<g>
			<g>
				<path class="st0" d="M61.8,60.8C62,61.2,62,61.7,62,62c0,0.2-0.1,0.4-0.3,0.4c-0.3,0-0.4-0.1-0.6-0.3c-0.2-0.3,0.1-0.3,0.3-0.4      C61.6,61.6,61.5,61.2,61.8,60.8"></path>
			</g>
			<g>
				<path class="st1" d="M41.2,13.3c0,0-7.5-5.4-14.5,2.3c-9.3,4.1-17.3,18.1-11.8,31.1c7.6,15.4,13.6,18.9,17.4,23      c8.6,9.5,12.3,10.3,14.5,35.6c2.2-10.6,7.4-20.9-9-41.6C18.7,43.3,24.3,31.2,24.3,31.2s1,8,11.2,9.5c-4.6-10-7.2-15.5,0.5-21.8      c-2.3,6.2-0.2,9.6-0.2,9.6s4.8-13.1,15.1-9.1c-2.6,2-4.7,4.7-5.8,7.7c0,0,7.9-7.2,14.4,0.7c4.4-5.4-1.8-9.5-5.1-9      C55.3,16.7,49.9,5.9,41.2,13.3"></path>
			</g>
			<g>
				<path d="M62.6,34.8l1.9-1.9c0,0,1.1,3.3-3.2,4.4C62.5,36,63,35.5,62.6,34.8"></path>
			</g>
			<g>
				<path class="st0" d="M46.8,31.7c-1.6,1-2.5,2.8-2.5,4.7c0.1,1.2,0.4,2.4,1,3.4c0.6,1.3,0.9,2.6,1.8,3.8c1.4,1.9,3.5,3.3,5.8,3.7      c0.7,0.1,1.3,0.2,1.9,0.3c-1,0.4-2.1,0.4-3.1,0.2c1.9,2.6,3.3,5.8,4,9c0.3,0,0.3-0.3,0.8-0.4c-0.2,0.8-0.3,1.6-0.5,2.3      c-0.3,1-0.5,2-0.8,3c-0.2,0.8,0.3,1.7,1,2.1c0.4,0.3,0.9,0.4,1.4,0.6c0.5,0.3,0.7,0,0.6-0.5c0.5,0.3,1,0.5,1.6,0.8      c1.7,0.5,3.1-0.1,4.1-1.8c1-1.9,1.4-4,1-6c0-0.3,0-0.6,0-0.9c0.1-3-0.3-6.2-0.5-9.2c-0.2-2.4-0.4-4.7-0.6-7.1      c-0.2-0.5-0.2-1-0.1-1.5c0.4,1.4,0.8,3,1,4.5c0.3,2.2,0.7,4.4,0.9,6.6c0.2,1.3,0.3,2.5,0.3,3.9c0.3,3,0.2,5.9,0.2,9      c0.1,1.4-0.6,2.8-1.8,3.6c-1.4,0.9-3.3,1-4.8,0.3c-0.6-0.3-1.3-0.4-1.9-0.4c-0.9,0-1.9-0.3-2.6-0.7c-1.3-0.9-1.9-2.5-1.4-4      c0.3-0.8,0.6-1.8,0.8-2.6c0.3-1.3,0.1-2.6-0.5-3.7c-1-2.2-2.4-4.2-3.8-6.2c-0.2-0.3-0.5-0.4-0.8-0.5c-1.3-0.3-2.3-1.1-3-2.2      c-1.9-2.5-3.1-5.5-3.7-8.6c-0.4-2.1,0.8-4.2,2.9-4.9C45.8,31.8,46.3,31.6,46.8,31.7"></path>
			</g>
			<g>
				<path class="st0" d="M69.7,29.4c-2.6,1.4-5.2,2.6-7.3,4.7c-0.1-0.8,0.6-1.9,1.9-2.9c1-0.8,2.2-1.4,3.4-1.8      c-2.7-0.8-5.6-0.9-8.5-0.7C61.1,27.4,66.9,27.7,69.7,29.4"></path>
			</g>
			<g>
				<path class="st0" d="M57.1,35c0,0.8,0,1.4,0,2c0.1,1.4,0.4,1.5,1.6,1.1c-0.3,0.7-0.8,1.2-1.5,1.4c-0.4,0.1-0.6-0.2-0.8-0.5      c-0.7-1.5-0.8-3.2-0.3-4.8c0.1-0.5,0.3-1,0.5-1.4c0.8,1.8,2.1,3,3.6,4.5C58.7,37.1,58.2,36,57.1,35"></path>
			</g>
			<g>
				<path class="st1" d="M61.6,37.1c0.6-0.6,1-1.4,1.1-2.2c0.2-0.8,1-1.3,1.6-1.9c0.3-0.3,0.3,0.1,0.3,0.3      C64.8,35.2,63.6,37,61.6,37.1L61.6,37.1C61.7,37.2,61.7,37.2,61.6,37.1"></path>
			</g>
			<g>
				<path class="st0" d="M68.8,38.9c0,0,23.7-10.2,36,4.6c12.8,15.3,3.8,25.4,3.8,25.4S103,78,87.4,84c-15.6,6-46.9,15.2-42.3,43      c0.7-15.4,15.7-22.8,48.5-31.8c32.6-9.1,35.9-28.8,35.4-31.6C130.7,43.4,97.7,16.7,68.8,38.9"></path>
			</g>
		</g>
		<g>
			<g id="Page_3">
				<g id="Blue_Journey">
					<g id="Blue_Journey_Powered_by_the_HAA">
						<g>
							<path class="st2" d="M167.4,43.6c0.7-0.4,1.3-0.7,1.9-1.1c2.5-1.8,3.1-4.3,2.9-7.2c-0.3-3.4-2-5.5-5-6.9         c-1.7-0.7-3.6-0.9-5.3-0.8c-4.8,0-9.6,0.1-14.5,0c-1.7-0.1-1.9,0.5-1.9,2c0.1,10.3,0,20.6,0,30.9h19.5         c0.6-0.2,1.2-0.3,1.8-0.5c3.8-0.8,6.6-4.2,6.6-8.1C173.4,47.5,171.7,45.2,167.4,43.6 M154.5,34.1h6.4c2,0.1,3.5,1.4,3.5,3.2         c0.2,1.9-1.3,3.6-3.1,3.7h-0.1c-2.3,0.1-4.5,0-6.8,0.1c-0.5,0-0.8-0.1-0.8-0.8v-5.5C153.5,34.2,154,34.1,154.5,34.1          M165,50.5c0.1,1.9-1.4,3.4-3.2,3.5c-0.1,0-0.1,0-0.2,0c-2.4,0.1-4.7,0-7.1,0.1c-0.7,0-1-0.2-1-1c0.1-1.9,0.1-3.8,0.1-5.8         c0.3-0.7,0.8-0.4,1.3-0.4c2.4,0,4.7,0,7,0.1C164.1,47.3,165.1,48.5,165,50.5"></path>
						</g>
						<g>
							<path class="st2" d="M215.3,37.9c-5.5,4.4-6.5,13.1-2.2,18.6c4.4,5.6,13.5,6.6,19,1.9c1.3-1.1,2.3-2.4,3-3.9         c0.1-0.3,0.6-0.8,0-1c-2-0.5-4.2-0.8-6.3-1.3c-0.2,0-0.3,0.1-0.4,0.3c-0.7,1.1-1.8,1.4-2.9,1.9c-2.5,1.3-5.7,0.2-6.9-2.4         c-0.1-0.2-0.1-0.3-0.2-0.4c-0.4-1-0.3-1.4,0.8-1.4c2.5,0.1,5.1,0,7.7,0h7.8c0.6,0,1.2,0,1.3-0.8c0.1-3.6-0.4-7-2.8-9.6         C228,33.3,219.8,34.3,215.3,37.9 M227.3,45.5h-7.7c-1,0-1-0.4-0.6-1.1c0.9-1.7,2.7-2.7,4.7-2.8c1.9-0.1,3.6,0.9,4.5,2.5         C228.5,45.1,228.4,45.5,227.3,45.5"></path>
						</g>
						<g>
							<path class="st2" d="M317.8,35.8c-2.6,0-2.6,0-2.6,2.6c0,3.6,0,7.1-0.2,10.7c0.1,1.9-0.9,3.6-2.6,4.5         c-3.1,1.7-6.3-0.4-6.4-4.1c-0.1-4.1-0.1-8.1,0-12.2c0-1.1-0.2-1.7-1.4-1.6c-1.6,0.1-3.3,0.1-4.9,0c-1.1-0.1-1.4,0.4-1.4,1.4         v14.1c0.1,1.5,0.3,3,0.8,4.5c1.1,3.4,6.8,6.8,10.4,5.4c2-0.6,4-1.5,5.7-2.8c-0.3,2,0.8,2.2,2.3,2c1.9-0.1,3.7,0,5.6-0.1V35.6         C321.3,35.8,319.6,35.9,317.8,35.8"></path>
						</g>
						<g>
							<path class="st2" d="M209.7,36.9c0-0.8-0.3-1.1-1.1-1.1c-1.9,0-3.7,0.1-5.6,0c-1,0-1.2,0.4-1.2,1.3v10.2         c0.1,1.4-0.2,2.8-0.7,4.1c-0.5,1.2-1.5,2.1-2.8,2.5c-3.1,1-5.7-1-5.8-4.7c-0.1-4.1-0.1-8,0-12c0-1-0.2-1.6-1.4-1.4         c-1.7,0.1-3.5,0.1-5.1,0c-0.8,0-1.3,0.3-1.3,1.2c0,4.9-0.1,9.9,0.1,14.9c0.2,6.5,5.2,10.3,11.6,9.2c1.9-0.4,3.6-1.3,5.1-2.5         c0.5,0.7-0.3,2,1.3,1.9c1.9-0.1,3.8,0,5.8,0c0.8,0,1-0.4,1-1.1C209.7,51.9,209.7,44.4,209.7,36.9"></path>
						</g>
						<g>
							<path class="st2" d="M283.9,35.2c-8.1-0.2-13.5,5.7-13.5,13.1s5.8,12.9,13.5,12.9c7.8,0,13.3-5.6,13.5-13.1         C297.7,40.2,290.7,34.8,283.9,35.2 M284.1,54.6c-3.5,0-6-2.8-6-6.4c0-3.6,2.6-6.4,6.1-6.3c3.3,0.1,5.9,2.9,5.8,6.3         c0,0.1,0,0.1,0,0.2C290.1,51.7,287.4,54.5,284.1,54.6"></path>
						</g>
						<g>
							<path class="st2" d="M368.7,44.3c-0.1-0.5-0.2-0.9-0.2-1.4c0,0-0.2-1-0.3-1.4l-0.1-0.1v-0.1c-3.1-6.6-9.8-8.1-15.7-3.8         c-0.2,0.2-0.4,0.4-0.8,0.1c0.3-1.7-0.7-1.8-1.9-1.8c-1.9,0.1-3.8,0-5.8,0c0,2.5-0.1,5.2-0.1,7.8c0,5.6,0.1,11.3,0.1,16.9         c1.9,0,3.8-0.1,5.8,0c1.4,0.1,2-0.3,1.9-1.9c-0.1-3.1,0-6.2,0-9.3c-0.1-1.4,0.2-2.8,0.6-4.1c0.4-1.3,1.4-2.3,2.6-2.8         c3.1-1.2,5.8,0.8,5.9,4.4c0.1,4.1,0,8.3,0,12.3c0,1,0.3,1.4,1.3,1.3c2-0.1,4.2,0,6.3,0c0.1-0.2,0.2-0.3,0.3-0.4         C368.7,57.7,368.6,45.6,368.7,44.3"></path>
						</g>
						<g>
							<path class="st2" d="M267.8,27.5c-1,0.1-1.9,0-3,0c-3.2,0-3.2,0-3.2,3.4v17.7c0,3.1-1.9,5.3-4.9,5.4         c-2.6,0.1-4.1-0.8-5.2-4.1c-0.4-1.2-0.8-1.3-1.9-1.1c-1.4,0.4-3,0.7-4.5,0.8c-1.4,0.2-1.8,0.7-1.4,2.2         c1.2,5.1,5.6,8.8,10.8,9.1c6.7,0.6,11-1.4,13.8-6.4c0.5-1,1.2-1.9,1.3-3.1c0.3-4.1,0-8.1,0.2-11.5c0-4.1-0.1-7.4,0-10.7         C269.8,28,269.2,27.5,267.8,27.5"></path>
						</g>
						<g>
							<path class="st2" d="M182.5,42.8L182.5,42.8V26.5c0-1.1-0.2-1.7-1.4-1.6c-1.7,0.1-3.5,0.1-5.1,0c-0.8,0-1.3,0.2-1.3,1.2v33.1         c0,1,0.4,1.2,1.3,1.2c1.6-0.1,3.3-0.1,4.9,0c1.4,0.1,1.7-0.5,1.6-1.7C182.4,53.5,182.5,48.2,182.5,42.8"></path>
						</g>
						<g>
							<path class="st2" d="M342.4,35.5c-2.7-0.3-5.3,0.8-7.2,2.8c-0.5,0.5-1,1.1-1.8,2v-3.1c0.1-0.8-0.3-1.3-1.2-1.3         c-1.6,0.1-3.2,0.1-4.8,0c-1.4-0.1-1.8,0.3-1.8,1.7c0.1,6.2,0,12.5,0,18.7c-0.1,1.4-0.1,2.9,0.1,4.3c2.5,0,5.1-0.1,7.7-0.1         v-0.1h0.1c-0.2-2.8-0.2-5.7,0-8.5c-0.1-4.9,2.5-8,7.4-8.4c0.4,0,0.8,0,1.3,0c0.8,0,1.1-0.2,1.2-1.1c0.1-1.9,0.2-3.7,0.3-5.7         C343.6,35.9,343.2,35.7,342.4,35.5"></path>
						</g>
						<g>
							<path class="st2" d="M414.1,35.8c-0.8-0.2-1.5,0.3-1.7,1.2l0,0c-0.8,2-1.7,4.1-2.5,6c-1,2.3-1.9,4.5-3,6.8         c-0.5-0.4-0.8-1-1-1.6c-1.4-3.7-3-7.4-4.5-11.1c-0.4-1-0.8-1.4-1.9-1.3c-2.3,0.1-4.5,0-6.8,0l-0.1,0.3         c3.2,7.5,6.5,15.2,9.7,22.7c0.3,0.6,0.2,1.3-0.1,1.9c-1,2.4-2,4.7-3,7c-0.4,0.8-0.3,1.2,0.8,1.2c1.9-0.1,3.9-0.1,6,0         c0.8,0.1,1.6-0.4,1.8-1.3c1.4-3.6,3-7,4.4-10.5c1-2.4,1.9-4.7,3.1-7c1-1.9,1.4-4.1,2.5-6c1.4-2.6,2-5.5,3.6-8.4         C418.7,35.8,416.4,35.8,414.1,35.8"></path>
						</g>
						<g>
							<path class="st2" d="M374.1,38.4c-5.5,4.4-6.5,13.1-2.2,18.6c4.4,5.6,13.5,6.6,19,1.9c1.3-1.1,2.3-2.4,3-3.9         c0.1-0.3,0.6-0.8,0-1c-2-0.5-4.2-0.8-6.3-1.3c-0.2,0-0.3,0.1-0.4,0.3c-0.7,1.1-1.8,1.4-2.9,1.9c-2.5,1.3-5.7,0.2-6.9-2.4         c-0.1-0.2-0.1-0.3-0.2-0.4c-0.4-1-0.3-1.4,0.8-1.4c2.5,0.1,5.1,0,7.7,0h7.8c0.6,0,1.2,0,1.3-0.8c0.1-3.6-0.4-7-2.8-9.6         C387.6,34.8,379.6,34.1,374.1,38.4 M386,45.8h-7.7c-1,0-1-0.4-0.6-1.1c0.9-1.7,2.7-2.7,4.7-2.8c1.9-0.1,3.6,0.9,4.5,2.5         C387.2,45.6,387.1,46,386,45.8"></path>
						</g>
					</g>
					<g>
						<rect x="144.2" y="68.5" class="st3" width="265" height="45.4"></rect>
					</g>
					<g class="st4">
						<path class="st2" d="M159.3,77c0,2.1-0.7,3.6-2,4.8c-1.3,1.2-3.1,1.7-5.6,1.7h-1.8v6.9h-4.2V70.9h6.2c2.3,0,4.2,0.5,5.3,1.6        C158.6,73.5,159.3,75.1,159.3,77z M149.9,80.2h1.3c1.3,0,2.2-0.3,2.9-0.8c0.7-0.5,0.9-1.2,0.9-2.2c0-0.9-0.3-1.7-0.8-2.2        c-0.5-0.5-1.3-0.7-2.5-0.7h-1.8V80.2z"></path>
						<path class="st2" d="M176.2,83c0,2.5-0.7,4.3-2,5.7c-1.3,1.4-3.1,2.1-5.3,2.1c-1.4,0-2.7-0.3-3.8-0.9c-1-0.7-2-1.6-2.5-2.7        c-0.5-1.2-0.9-2.6-0.9-4.2c0-2.5,0.7-4.3,2-5.7c1.3-1.3,3.1-2.1,5.3-2.1c1.4,0,2.7,0.3,3.8,0.9c1,0.7,2,1.6,2.5,2.7        S176.2,81.5,176.2,83z M165.8,83c0,1.4,0.3,2.6,0.8,3.4c0.5,0.8,1.3,1.2,2.3,1.2c1,0,1.8-0.4,2.3-1.2c0.5-0.8,0.7-1.8,0.7-3.4        c0-1.4-0.3-2.6-0.8-3.4c-0.5-0.8-1.3-1.2-2.3-1.2c-1,0-1.8,0.4-2.3,1C166,80.4,165.8,81.5,165.8,83z"></path>
						<path class="st2" d="M191.8,90.4l-1.2-5.2l-1.6-6.6h-0.1l-2.7,11.8h-4.4l-4.3-15h4l1.7,6.6c0.3,1.2,0.5,2.9,0.8,4.9h0.1        c0-0.7,0.1-1.7,0.5-3.3l0.3-1.2l1.8-7.2h4.4l1.7,7.2c0,0.3,0.1,0.5,0.1,0.9s0.1,0.8,0.3,1.2c0.1,0.4,0.1,0.9,0.1,1.3        c0,0.4,0.1,0.8,0.1,1h0.1c0.1-0.7,0.3-1.6,0.4-2.6c0.3-1.2,0.4-1.8,0.4-2.2l1.8-6.6h4l-4.3,15h-4.2V90.4z"></path>
						<path class="st2" d="M209.6,90.7c-2.3,0-4.3-0.7-5.6-2c-1.3-1.3-2.1-3.3-2.1-5.6c0-2.5,0.7-4.4,1.8-5.9c1.3-1.3,3-2.1,5.2-2.1        c2.1,0,3.8,0.7,4.9,1.8s1.8,2.9,1.8,4.9v2h-9.6c0,1.2,0.4,2.1,1,2.7c0.7,0.7,1.6,0.9,2.7,0.9c0.9,0,1.7-0.1,2.6-0.3        c0.9-0.1,1.7-0.5,2.5-0.9v3.1c-0.7,0.4-1.4,0.7-2.3,0.8C211.8,90.7,210.8,90.7,209.6,90.7z M209.1,78.2        c-0.9,0-1.6,0.3-2.1,0.8c-0.5,0.5-0.8,1.3-0.8,2.3h5.7c0-1-0.3-1.8-0.8-2.3C210.6,78.5,209.9,78.2,209.1,78.2z"></path>
						<path class="st2" d="M227.3,75.2c0.5,0,1,0,1.4,0.1l-0.3,3.8c-0.4-0.1-0.8-0.1-1.2-0.1c-1.3,0-2.3,0.4-3,1        c-0.8,0.7-1,1.6-1,2.9v7.5H219V75.6h3.1l0.7,2.5h0.1c0.5-0.8,1-1.6,1.8-2.1C225.6,75.5,226.4,75.2,227.3,75.2z"></path>
						<path class="st2" d="M238.2,90.7c-2.3,0-4.3-0.7-5.6-2c-1.3-1.3-2.1-3.3-2.1-5.6c0-2.5,0.7-4.4,1.8-5.9c1.3-1.3,3-2.1,5.2-2.1        c2.1,0,3.8,0.7,4.9,1.8c1.2,1.2,1.8,2.9,1.8,4.9v2h-9.8c0,1.2,0.4,2.1,1,2.7c0.7,0.7,1.6,0.9,2.7,0.9c0.9,0,1.7-0.1,2.6-0.3        c0.9-0.1,1.7-0.5,2.5-0.9v3.1c-0.7,0.4-1.4,0.7-2.3,0.8C240.3,90.7,239.4,90.7,238.2,90.7z M237.6,78.2        c-0.9,0-1.6,0.3-2.1,0.8c-0.5,0.5-0.8,1.3-0.8,2.3h5.7c0-1-0.3-1.8-0.8-2.3C239.1,78.5,238.5,78.2,237.6,78.2z"></path>
						<path class="st2" d="M252.2,90.7c-1.7,0-3.1-0.7-4.2-2.1c-1-1.3-1.6-3.3-1.6-5.6c0-2.5,0.5-4.3,1.6-5.7c1-1.3,2.5-2.1,4.2-2.1        c1.8,0,3.3,0.8,4.3,2.2h0.1c-0.3-1.2-0.3-2.1-0.3-3v-4.8h4.2v20.8h-3.1l-0.8-2h-0.1C255.5,90.1,254.2,90.7,252.2,90.7z         M253.7,87.5c1,0,1.8-0.3,2.3-0.9s0.8-1.7,0.8-3.1V83c0-1.6-0.3-2.7-0.8-3.4s-1.3-1-2.5-1c-0.9,0-1.6,0.4-2.1,1.2        c-0.5,0.8-0.8,2-0.8,3.4c0,1.4,0.3,2.6,0.8,3.3C252,87.2,252.8,87.5,253.7,87.5z"></path>
						<path class="st2" d="M280.2,75.2c1.8,0,3.1,0.7,4.2,2.1s1.4,3.3,1.4,5.6c0,2.5-0.5,4.4-1.6,5.7s-2.5,2.1-4.2,2.1        c-1.7,0-3.1-0.7-4.2-2h-0.3l-0.7,1.7h-3.1V69.6h4v4.8c0,0.7,0,1.6-0.1,3h0.1C276.9,76,278.4,75.2,280.2,75.2z M278.9,78.5        c-1,0-1.7,0.3-2.2,0.9c-0.5,0.7-0.7,1.7-0.8,3.1v0.4c0,1.6,0.3,2.7,0.7,3.4c0.4,0.7,1.2,1,2.2,1c0.8,0,1.6-0.4,2-1.2        c0.5-0.8,0.8-2,0.8-3.4c0-1.4-0.3-2.6-0.8-3.3C280.5,78.9,279.8,78.5,278.9,78.5z"></path>
						<path class="st2" d="M287.1,75.6h4.4l2.9,8.5c0.3,0.8,0.4,1.6,0.5,2.6h0.1c0.1-0.9,0.3-1.8,0.5-2.6l2.7-8.5h4.4l-6.4,16.8        c-0.5,1.6-1.4,2.7-2.5,3.5c-1,0.8-2.3,1.2-3.8,1.2c-0.7,0-1.4-0.1-2.1-0.3v-3.3c0.5,0.1,1,0.1,1.6,0.1c0.8,0,1.3-0.3,2-0.7        c0.5-0.4,0.9-1,1.3-2l0.3-0.8L287.1,75.6z"></path>
						<path class="st2" d="M318,87.5c0.7,0,1.6-0.1,2.6-0.5v3c-1,0.4-2.2,0.7-3.8,0.7c-1.7,0-2.9-0.4-3.5-1.2        c-0.8-0.8-1.2-2.1-1.2-3.6v-7.2h-2v-1.7l2.2-1.3l1.2-3.1h2.6v3.1h4.2v3h-4.2v7.2c0,0.5,0.1,1,0.5,1.3        C317.1,87.3,317.5,87.5,318,87.5z"></path>
						<path class="st2" d="M337.4,90.4h-4v-8.7c0-2.2-0.8-3.3-2.3-3.3c-1.2,0-2,0.4-2.5,1.2c-0.5,0.8-0.8,2.1-0.8,3.8v7h-4V69.6h4        v4.2c0,0.4,0,1-0.1,2.3l-0.1,1.2h0.3c0.9-1.4,2.3-2.2,4.3-2.2c1.7,0,3.1,0.5,4,1.4c0.9,0.9,1.3,2.3,1.3,4L337.4,90.4        L337.4,90.4z"></path>
						<path class="st2" d="M348.3,90.7c-2.3,0-4.3-0.7-5.6-2c-1.3-1.3-2.1-3.3-2.1-5.6c0-2.5,0.7-4.4,1.8-5.9c1.3-1.3,3-2.1,5.2-2.1        c2.1,0,3.8,0.7,4.9,1.8s1.8,2.9,1.8,4.9v2h-9.6c0,1.2,0.4,2.1,1,2.7c0.7,0.7,1.6,0.9,2.7,0.9c0.9,0,1.7-0.1,2.6-0.3        c0.9-0.1,1.7-0.5,2.5-0.9v3.1c-0.7,0.4-1.4,0.7-2.3,0.8C350.5,90.7,349.5,90.7,348.3,90.7z M347.8,78.2        c-0.9,0-1.6,0.3-2.1,0.8c-0.5,0.5-0.8,1.3-0.8,2.3h5.7c0-1-0.3-1.8-0.8-2.3C349.4,78.5,348.6,78.2,347.8,78.2z"></path>
						<path class="st2" d="M381.1,90.4h-4.2V82h-7.7v8.5h-4.2V70.9h4.2v7.7h7.7v-7.7h4.2V90.4z"></path>
						<path class="st2" d="M398,90.4l-1.4-4.7h-7.2l-1.4,4.7h-4.4l6.9-19.6h5.1l6.9,19.6H398z M395.5,82.4c-1.3-4.2-2.1-6.6-2.2-7.2        c-0.1-0.5-0.3-1-0.4-1.3c-0.3,1.2-1.2,3.9-2.5,8.5H395.5z"></path>
						<path class="st2" d="M416.8,90.4l-1.4-4.7h-7.2l-1.4,4.7h-4.4l6.9-19.6h5.1l6.9,19.6H416.8z M414.4,82.4        c-1.3-4.2-2.1-6.6-2.2-7.2c-0.1-0.5-0.3-1-0.4-1.3c-0.3,1.2-1.2,3.9-2.5,8.5H414.4z"></path>
					</g>
					<g class="st4">
						<path class="st2" d="M155.9,111h-2.6v-5.4h-4.9v5.4h-2.6V98.6h2.6v4.9h4.9v-4.9h2.6L155.9,111L155.9,111z"></path>
						<path class="st2" d="M165.5,111l-0.3-1.2H165c-0.2,0.4-0.7,0.7-1.2,1c-0.5,0.2-1.1,0.3-1.7,0.3c-1.1,0-2-0.3-2.5-0.9        c-0.6-0.6-0.8-1.5-0.8-2.6v-6.2h2.6v5.5c0,0.7,0.1,1.2,0.3,1.6c0.2,0.3,0.7,0.5,1.2,0.5c0.7,0,1.2-0.2,1.6-0.7        c0.3-0.5,0.5-1.3,0.5-2.4v-4.5h2.6v9.5L165.5,111L165.5,111z"></path>
						<path class="st2" d="M178.8,111h-2.6v-5.5c0-0.7-0.1-1.2-0.3-1.6c-0.2-0.3-0.6-0.5-1.1-0.5c-0.7,0-1.2,0.2-1.4,0.7        c-0.2,0.5-0.4,1.3-0.4,2.4v4.5h-2.6v-9.5h2l0.3,1.2h0.2c0.2-0.4,0.7-0.7,1.1-1c0.5-0.2,1-0.3,1.7-0.3c1.4,0,2.4,0.5,2.9,1.4        h0.2c0.2-0.4,0.7-0.7,1.2-1c0.5-0.2,1.1-0.3,1.7-0.3c1.1,0,1.9,0.2,2.4,0.8c0.6,0.6,0.8,1.4,0.8,2.6v6.2h-2.6v-5.5        c0-0.7-0.1-1.2-0.3-1.6c-0.2-0.3-0.6-0.5-1.1-0.5c-0.7,0-1.1,0.2-1.4,0.7c-0.3,0.4-0.5,1.2-0.5,2.2v4.6H178.8z"></path>
						<path class="st2" d="M193.3,111l-0.5-1.3h-0.1c-0.4,0.6-0.9,0.9-1.3,1.2c-0.5,0.2-1.1,0.3-1.8,0.3c-0.9,0-1.7-0.2-2.2-0.7        c-0.5-0.5-0.7-1.2-0.7-2.2s0.3-1.7,1.1-2.2s1.7-0.7,3.2-0.8l1.7-0.1v-0.4c0-1-0.5-1.4-1.5-1.4c-0.7,0-1.7,0.2-2.6,0.7        l-0.8-1.7c1.1-0.6,2.3-0.8,3.6-0.8c1.2,0,2.2,0.2,2.9,0.8s1,1.4,1,2.6v6.3L193.3,111L193.3,111z M192.6,106.6h-1        c-0.7,0-1.3,0.2-1.7,0.4c-0.3,0.2-0.6,0.7-0.6,1.2c0,0.7,0.4,1.1,1.2,1.1c0.6,0,1.1-0.2,1.4-0.5c0.3-0.3,0.6-0.8,0.6-1.4        V106.6z"></path>
						<path class="st2" d="M206.6,111h-2.6v-5.5c0-0.7-0.1-1.2-0.3-1.6c-0.2-0.3-0.7-0.5-1.2-0.5c-0.7,0-1.2,0.2-1.6,0.7        c-0.3,0.5-0.5,1.3-0.5,2.4v4.5h-2.6v-9.5h2l0.3,1.2h0.2c0.2-0.5,0.7-0.8,1.2-1.1c0.5-0.2,1.1-0.3,1.7-0.3        c1.1,0,1.9,0.3,2.5,0.9c0.6,0.6,0.8,1.5,0.8,2.6L206.6,111L206.6,111z"></path>
						<path class="st2" d="M209.1,99.1c0-0.8,0.5-1.2,1.4-1.2s1.4,0.4,1.4,1.2c0,0.4-0.1,0.7-0.3,0.9c-0.2,0.2-0.7,0.3-1.1,0.3        C209.5,100.3,209.1,99.9,209.1,99.1z M211.8,111h-2.6v-9.5h2.6V111z"></path>
						<path class="st2" d="M218.5,109.1c0.4,0,1-0.1,1.7-0.3v1.9c-0.7,0.2-1.4,0.4-2.4,0.4c-1.1,0-1.8-0.2-2.2-0.7        c-0.5-0.5-0.7-1.3-0.7-2.3v-4.6h-1.2v-1.1l1.4-0.8l0.7-2h1.7v2h2.6v1.9h-2.6v4.6c0,0.3,0.1,0.7,0.3,0.8        C217.9,109,218.2,109.1,218.5,109.1z"></path>
						<path class="st2" d="M228.1,111l-0.5-1.3h-0.1c-0.4,0.6-0.9,0.9-1.3,1.2c-0.5,0.2-1.1,0.3-1.8,0.3c-0.9,0-1.7-0.2-2.2-0.7        c-0.5-0.5-0.7-1.2-0.7-2.2s0.3-1.7,1.1-2.2s1.7-0.7,3.2-0.8l1.7-0.1v-0.4c0-1-0.5-1.4-1.5-1.4c-0.7,0-1.7,0.2-2.6,0.7        l-0.8-1.7c1.1-0.6,2.3-0.8,3.6-0.8c1.2,0,2.2,0.2,2.9,0.8s1,1.4,1,2.6v6.3L228.1,111L228.1,111z M227.3,106.6h-1        c-0.7,0-1.3,0.2-1.7,0.4c-0.3,0.2-0.6,0.7-0.6,1.2c0,0.7,0.4,1.1,1.2,1.1c0.6,0,1.1-0.2,1.4-0.5c0.3-0.3,0.6-0.8,0.6-1.4        V106.6z"></path>
						<path class="st2" d="M237.8,101.3c0.3,0,0.7,0,0.9,0.1l-0.2,2.4c-0.2-0.1-0.5-0.1-0.7-0.1c-0.8,0-1.5,0.2-1.9,0.7        c-0.5,0.4-0.7,1-0.7,1.8v4.8h-2.6v-9.5h2l0.4,1.6h0.2c0.3-0.5,0.7-1,1.2-1.3C236.7,101.5,237.3,101.3,237.8,101.3z"></path>
						<path class="st2" d="M240.3,99.1c0-0.8,0.5-1.2,1.4-1.2s1.4,0.4,1.4,1.2c0,0.4-0.1,0.7-0.3,0.9c-0.2,0.2-0.6,0.3-1.1,0.3        C240.8,100.3,240.3,99.9,240.3,99.1z M243.1,111h-2.6v-9.5h2.6V111z"></path>
						<path class="st2" d="M251.7,111l-0.5-1.3h-0.1c-0.4,0.6-0.9,0.9-1.3,1.2c-0.5,0.2-1.1,0.3-1.8,0.3c-0.9,0-1.7-0.2-2.2-0.7        c-0.5-0.5-0.7-1.2-0.7-2.2s0.3-1.7,1.1-2.2s1.7-0.7,3.2-0.8l1.7-0.1v-0.4c0-1-0.5-1.4-1.5-1.4c-0.7,0-1.7,0.2-2.6,0.7        l-0.8-1.7c1.1-0.6,2.3-0.8,3.6-0.8c1.2,0,2.2,0.2,2.9,0.8s1,1.4,1,2.6v6.3L251.7,111L251.7,111z M251,106.6h-1        c-0.7,0-1.3,0.2-1.7,0.4s-0.6,0.7-0.6,1.2c0,0.7,0.4,1.1,1.2,1.1c0.6,0,1.1-0.2,1.4-0.5s0.6-0.8,0.6-1.4V106.6z"></path>
						<path class="st2" d="M265,111h-2.6v-5.5c0-0.7-0.1-1.2-0.3-1.6c-0.2-0.3-0.7-0.5-1.2-0.5c-0.7,0-1.2,0.2-1.6,0.7        s-0.5,1.3-0.5,2.4v4.5h-2.6v-9.5h2l0.3,1.2h0.2c0.2-0.5,0.7-0.8,1.2-1.1c0.5-0.2,1.1-0.3,1.7-0.3c1.1,0,1.9,0.3,2.5,0.9        c0.6,0.6,0.8,1.5,0.8,2.6V111L265,111z"></path>
						<path class="st2" d="M280,111l-0.9-3h-4.6l-0.9,3h-2.8l4.4-12.5h3.2l4.4,12.5H280z M278.5,105.9c-0.8-2.6-1.3-4.2-1.4-4.6        s-0.2-0.7-0.2-0.8c-0.2,0.7-0.7,2.5-1.6,5.4H278.5z"></path>
						<path class="st2" d="M292.9,111h-2.6v-5.5c0-0.7-0.1-1.2-0.3-1.6c-0.2-0.3-0.7-0.5-1.2-0.5c-0.7,0-1.2,0.2-1.6,0.7        s-0.5,1.3-0.5,2.4v4.5h-2.6v-9.5h2l0.3,1.2h0.2c0.2-0.5,0.7-0.8,1.2-1.1s1.1-0.3,1.7-0.3c1.1,0,1.9,0.3,2.5,0.9        s0.8,1.5,0.8,2.6L292.9,111L292.9,111z"></path>
						<path class="st2" d="M295.4,99.1c0-0.8,0.5-1.2,1.4-1.2c0.9,0,1.4,0.4,1.4,1.2c0,0.4-0.1,0.7-0.3,0.9        c-0.2,0.2-0.6,0.3-1.1,0.3C295.9,100.3,295.4,99.9,295.4,99.1z M298.2,111h-2.6v-9.5h2.6V111z"></path>
						<path class="st2" d="M309.4,111h-2.6v-5.5c0-0.7-0.1-1.2-0.3-1.6c-0.2-0.3-0.6-0.5-1.1-0.5c-0.7,0-1.2,0.2-1.4,0.7        s-0.4,1.3-0.4,2.4v4.5h-2.6v-9.5h2l0.3,1.2h0.2c0.2-0.4,0.7-0.7,1.1-1c0.5-0.2,1-0.3,1.7-0.3c1.4,0,2.4,0.5,2.9,1.4h0.2        c0.2-0.4,0.7-0.7,1.2-1c0.5-0.2,1.1-0.3,1.7-0.3c1.1,0,1.9,0.2,2.4,0.8c0.6,0.6,0.8,1.4,0.8,2.6v6.2h-2.6v-5.5        c0-0.7-0.1-1.2-0.3-1.6c-0.2-0.3-0.6-0.5-1.1-0.5c-0.7,0-1.1,0.2-1.4,0.7s-0.5,1.2-0.5,2.2v4.6H309.4z"></path>
						<path class="st2" d="M324,111l-0.5-1.3h-0.1c-0.4,0.6-0.9,0.9-1.3,1.2c-0.5,0.2-1.1,0.3-1.8,0.3c-0.9,0-1.7-0.2-2.2-0.7        c-0.5-0.5-0.7-1.2-0.7-2.2s0.3-1.7,1.1-2.2c0.7-0.5,1.7-0.7,3.1-0.8l1.7-0.1v-0.4c0-1-0.5-1.4-1.5-1.4c-0.7,0-1.7,0.2-2.6,0.7        l-0.8-1.7c1.1-0.6,2.3-0.8,3.6-0.8c1.2,0,2.2,0.2,2.9,0.8c0.7,0.6,1,1.4,1,2.6v6.3L324,111L324,111z M323.2,106.6h-1        c-0.7,0-1.3,0.2-1.7,0.4s-0.6,0.7-0.6,1.2c0,0.7,0.4,1.1,1.2,1.1c0.6,0,1.1-0.2,1.4-0.5s0.6-0.8,0.6-1.4V106.6z"></path>
						<path class="st2" d="M332.4,109.1c0.4,0,1-0.1,1.7-0.3v1.9c-0.7,0.2-1.4,0.4-2.4,0.4c-1.1,0-1.8-0.2-2.2-0.7        c-0.5-0.5-0.7-1.3-0.7-2.3v-4.6h-1.2v-1.1l1.4-0.8l0.8-2.1h1.7v2h2.6v1.9h-2.6v4.6c0,0.3,0.1,0.7,0.3,0.8        S332.1,109.1,332.4,109.1z"></path>
						<path class="st2" d="M335.9,99.1c0-0.8,0.5-1.2,1.4-1.2c0.9,0,1.4,0.4,1.4,1.2c0,0.4-0.1,0.7-0.3,0.9        c-0.2,0.2-0.6,0.3-1.1,0.3C336.3,100.3,335.9,99.9,335.9,99.1z M338.5,111H336v-9.5h2.6V111z"></path>
						<path class="st2" d="M349.9,106.2c0,1.6-0.4,2.7-1.2,3.6c-0.8,0.9-2,1.3-3.4,1.3c-0.9,0-1.7-0.2-2.4-0.6s-1.2-1-1.6-1.7        s-0.6-1.7-0.6-2.6c0-1.6,0.4-2.7,1.2-3.6c0.8-0.8,2-1.3,3.4-1.3c0.9,0,1.7,0.2,2.4,0.6c0.7,0.4,1.2,1,1.6,1.7        S349.9,105.2,349.9,106.2z M343.3,106.2c0,0.9,0.2,1.7,0.5,2.2c0.3,0.5,0.8,0.7,1.5,0.7c0.7,0,1.2-0.2,1.5-0.7        c0.3-0.5,0.4-1.2,0.4-2.2c0-0.9-0.2-1.7-0.5-2.2c-0.3-0.5-0.8-0.7-1.5-0.7c-0.7,0-1.2,0.2-1.5,0.7        C343.5,104.6,343.3,105.3,343.3,106.2z"></path>
						<path class="st2" d="M360.8,111h-2.6v-5.5c0-0.7-0.1-1.2-0.3-1.6c-0.2-0.3-0.7-0.5-1.2-0.5c-0.7,0-1.2,0.2-1.6,0.7        s-0.5,1.3-0.5,2.4v4.5H352v-9.5h2l0.3,1.2h0.2c0.2-0.5,0.7-0.8,1.2-1.1c0.5-0.2,1.1-0.3,1.7-0.3c1.1,0,1.9,0.3,2.5,0.9        s0.8,1.5,0.8,2.6L360.8,111L360.8,111z"></path>
						<path class="st2" d="M375.8,111l-0.9-3h-4.6l-0.9,3h-2.8l4.4-12.5h3.2l4.4,12.5H375.8z M374.3,105.9c-0.8-2.6-1.3-4.2-1.4-4.6        s-0.2-0.7-0.2-0.8c-0.2,0.7-0.7,2.5-1.6,5.4H374.3z"></path>
						<path class="st2" d="M383.8,111.2c-3,0-4.5-1.7-4.5-4.9c0-1.6,0.4-2.8,1.2-3.7c0.8-0.8,2-1.2,3.5-1.2c1.1,0,2.1,0.2,3,0.7        l-0.7,2c-0.4-0.2-0.8-0.3-1.2-0.4s-0.7-0.2-1.1-0.2c-1.3,0-2,1-2,2.9c0,1.8,0.7,2.8,2,2.8c0.5,0,1-0.1,1.4-0.2        c0.4-0.2,0.8-0.3,1.2-0.7v2.2c-0.4,0.2-0.8,0.4-1.2,0.6C385,111.1,384.4,111.2,383.8,111.2z"></path>
						<path class="st2" d="M392.9,109.1c0.4,0,1-0.1,1.7-0.3v1.9c-0.7,0.2-1.4,0.4-2.4,0.4c-1,0-1.8-0.2-2.2-0.7        c-0.5-0.5-0.7-1.3-0.7-2.3v-4.6h-1.2v-1.1l1.4-0.8l0.7-2.1h1.7v2h2.6v1.9h-2.6v4.6c0,0.3,0.1,0.7,0.3,0.8        S392.6,109.1,392.9,109.1z"></path>
						<path class="st2" d="M396.3,99.1c0-0.8,0.5-1.2,1.4-1.2c0.9,0,1.4,0.4,1.4,1.2c0,0.4-0.1,0.7-0.3,0.9        c-0.2,0.2-0.6,0.3-1.1,0.3C396.8,100.3,396.3,99.9,396.3,99.1z M399,111h-2.6v-9.5h2.6V111z"></path>
						<path class="st2" d="M410.3,106.2c0,1.6-0.4,2.7-1.2,3.6c-0.8,0.9-2,1.3-3.4,1.3c-0.9,0-1.7-0.2-2.4-0.6        c-0.7-0.4-1.2-1-1.6-1.7s-0.6-1.7-0.6-2.6c0-1.6,0.4-2.7,1.2-3.6c0.8-0.8,2-1.3,3.4-1.3c0.9,0,1.7,0.2,2.4,0.6        c0.7,0.4,1.2,1,1.6,1.7S410.3,105.2,410.3,106.2z M403.8,106.2c0,0.9,0.2,1.7,0.5,2.2c0.3,0.5,0.8,0.7,1.5,0.7        s1.2-0.2,1.5-0.7c0.3-0.5,0.4-1.2,0.4-2.2c0-0.9-0.2-1.7-0.5-2.2c-0.3-0.5-0.8-0.7-1.5-0.7s-1.2,0.2-1.5,0.7        C404,104.6,403.8,105.3,403.8,106.2z"></path>
						<path class="st2" d="M421.3,111h-2.6v-5.5c0-0.7-0.1-1.2-0.3-1.6c-0.2-0.3-0.7-0.5-1.2-0.5c-0.7,0-1.2,0.2-1.6,0.7        s-0.5,1.3-0.5,2.4v4.5h-2.6v-9.5h2l0.3,1.2h0.2c0.2-0.5,0.7-0.8,1.2-1.1c0.5-0.2,1.1-0.3,1.7-0.3c1.1,0,1.9,0.3,2.5,0.9        c0.6,0.6,0.8,1.5,0.8,2.6V111z"></path>
					</g>
				</g>
			</g>
		</g>
	</g>
</g>
</svg>