<svg xmlns="http://www.w3.org/2000/svg" viewBox="0 0 137.01107 137.43215"><defs><style>
      .cls-1 {
        fill: #b1b1b0;
      }

      .cls-2 {
        fill: #135aa7;
      }
    </style></defs><title>heart logo</title><g id="Layer_2" data-name="Layer 2"><g id="Layer_1-2" data-name="Layer 1"><g><path class="cls-1" d="M57.59251,59.23586a2.899,2.899,0,0,1,.159,1.43506c.008.24194-.102.478-.367.474a.82014.82014,0,0,1-.658-.34406c-.217-.315.117-.383.278-.478.381-.224.303-.678.588-1.087"></path><path class="cls-2" d="M33.30681,2.99025s-8.874-6.366-17.168,2.7c-10.995,4.823-20.447,21.412-14.082,36.844,8.983,18.153,16.076,22.264,20.571,27.188,10.248,11.22894,14.537,12.164,17.238,42.063,2.574-12.504,8.68-24.691-10.61-49.189-22.569-24.113-16.011-38.387-16.011-38.387s1.158,9.452,13.311,11.188c-5.369-11.767-8.488-18.325.578-25.848-2.701,7.33-.193,11.38-.193,11.38s5.787-15.432,17.94-10.609a22.20659,22.20659,0,0,0-6.945,9.066s9.26-8.487,16.976.772c5.208-6.366-2.122-11.189-5.98-10.609.964-2.508-5.401-15.24-15.625-6.559"></path><path d="M58.59491,28.372l2.263-2.153s1.325,3.864-3.809,5.244c1.38-1.601,1.982-2.153,1.546-3.091"></path><path class="cls-1" d="M39.93081,24.79647a6.10089,6.10089,0,0,0-2.897,5.53405,10.8886,10.8886,0,0,0,1.151,4.012c.706,1.495,1.066,3.138,2.058,4.512a10.92052,10.92052,0,0,0,6.834,4.382,18.25644,18.25644,0,0,0,2.286.281,5.57911,5.57911,0,0,1-3.72.178,27.354,27.354,0,0,1,4.745,10.579c.357-.001.439-.443.884-.527-.202.945-.381,1.85095-.592,2.749-.284,1.205-.601,2.403-.888,3.608a2.33871,2.33871,0,0,0,1.183,2.517,14.96714,14.96714,0,0,0,1.654.748c.614.277.788.01794.667-.60706a15.04122,15.04122,0,0,0,1.863.864c2,.62,3.689-.142,4.801-2.106a11.05049,11.05049,0,0,0,1.183-7.115,7.29888,7.29888,0,0,1-.028-1.057c.053-3.646-.398-7.264-.606-10.896-.16-2.793-.491-5.576-.749-8.363a3.357,3.357,0,0,1-.084-1.77,34.67268,34.67268,0,0,1,1.234,5.251q.621,3.90144,1.134,7.82c.196,1.514.293,3.041.41,4.565.272,3.51795.223,7.044.187,10.568a4.89467,4.89467,0,0,1-2.109,4.279,5.7433,5.7433,0,0,1-5.672.282,5.87087,5.87087,0,0,0-2.29-.465,6.75683,6.75683,0,0,1-3.119-.75,4.40243,4.40243,0,0,1-1.697-4.71406c.347-1.026.7-2.051,1.039-3.081a6.04467,6.04467,0,0,0-.625-4.433,38.3284,38.3284,0,0,0-4.543-7.275,1.449,1.449,0,0,0-.938-.614,5.82079,5.82079,0,0,1-3.525-2.625,24.60433,24.60433,0,0,1-4.422-10.166,5.09543,5.09543,0,0,1,3.444-5.811,3.105,3.105,0,0,1,1.747-.354"></path><path class="cls-1" d="M66.99241,22.05074c-3.147,1.597-6.206,3.104-8.57,5.623-.081-.95905.744-2.241,2.257-3.417a16.058,16.058,0,0,1,4.017-2.071,27.8569,27.8569,0,0,0-9.963-.813c2.116-1.689,8.885-1.294,12.259.678"></path><path class="cls-1" d="M52.14711,28.68068c0,.885-.047,1.64905.01,2.406.123,1.623.452,1.823,1.935,1.27905a3.13539,3.13539,0,0,1-1.754,1.647c-.48.098-.69-.178-.875-.559a8.475,8.475,0,0,1-.397-5.706,3.82846,3.82846,0,0,1,.589-1.689c.927,2.06195,2.527,3.583,4.279,5.31195-1.925-.20794-2.62-1.615-3.787-2.69"></path><path class="cls-2" d="M57.405,31.20943a5.10958,5.10958,0,0,0,1.337-2.629c.247-.969,1.25-1.483,1.942-2.169.264-.262.304.114.33.331a4.02981,4.02981,0,0,1-3.457,4.609c-.051-.047-.102-.095-.152-.142"></path><path class="cls-1" d="M65.89961,33.28713s27.961-12.097,42.583,5.446c15.116,18.138,4.456,30.039,4.456,30.039s-6.602,10.728-25.087,17.826c-18.486,7.096-55.457,17.99-50.01,50.834.825-18.155,18.65-26.903,57.271-37.631,38.622-10.728,42.402-34.004,41.808-37.26,2.222-23.922-36.908-55.534-71.021-29.254"></path></g></g></g></svg>