<svg xmlns="http://www.w3.org/2000/svg" xmlns:xlink="http://www.w3.org/1999/xlink" id="Layer_1" x="0px" y="0px" viewBox="0 0 293.7 167.2" style="enable-background:new 0 0 293.7 167.2;" xml:space="preserve">
<style type="text/css">
	.st0{enable-background:new    ;}
	.st1{fill:#F2F2F2;}
</style>
<g id="Layer_2_1_">
	<g id="Page_3">
		<g class="st0">
			<path class="st1" d="M207.6,52.6l0.4-0.6c1-1.4,1.4-2.7,1.4-5.3V34.6c0-2-0.2-2.5-1.1-2.5h-1.4c-2.2,0-2.8,0.6-3.4,2.8l-0.2,0.8     l-1.1-0.4v-5.6l0.5-0.4l0.6,0.4c0.6,0.5,1.8,0.7,3.6,0.7h8.3c1.8,0,3-0.2,3.6-0.7l0.6-0.4l0.5,0.4v5.6l-1.1,0.4l-0.2-0.8     c-0.6-2.2-1.2-2.8-3.4-2.8h-1.5c-0.9,0-1.1,0.5-1.1,2.5V49c0,2,0.5,2.5,2.1,2.9l0.8,0.2l-0.4,1.1h-7L207.6,52.6z"></path>
			<path class="st1" d="M236.9,53.6c-0.3-0.3-0.7-0.5-1.3-0.5h-13.4l-0.4-1l0.7-0.2c1.5-0.5,1.9-0.9,1.9-2.8V36.7     c0-2.5-0.4-3.9-1.4-5.2l-0.4-0.6l0.4-0.5h9.7c1.8,0,3-0.2,3.6-0.7l0.6-0.4l0.5,0.4v5.6l-1.1,0.4l-0.2-0.8     c-0.6-2.2-1.2-2.8-3.4-2.8h-3.1c-1.6,0-2,0.5-2,2.5v6.1h4c1,0,1.7-0.3,2.5-1.4l0.2-0.3l0.6,0.3v5.4l-1,0.4l-0.2-0.8     c-0.5-1.5-1.2-1.8-3.5-1.8h-2.7V49c0,2,0.4,2.4,2,2.4h3.4c2.3,0,2.9-0.6,3.5-2.8l0.2-0.7l1,0.3v5.5l-0.6,0.3L236.9,53.6z"></path>
			<path class="st1" d="M239.1,52.1l0.7-0.2c1.7-0.5,2.2-0.9,2.9-2.9l5-14.4c0.2-0.7,0.3-1.2,0.3-1.5c0-0.8-0.4-1.2-1.4-1.4     l-0.7-0.2l0.4-1.1h6.1l6.4,18.3c0.7,2.2,1.5,2.8,2.9,3.9l-0.4,0.5h-7.2l-0.3-1.1l0.8-0.2c0.9-0.2,1.4-0.6,1.4-1.4     c0-0.4-0.2-0.8-0.4-1.5l-1.5-4.4h-7.3l-0.8,2.3c-0.5,1.4-0.7,2.4-0.7,3.3c0,0.7,0.1,1.3,0.5,1.9l0.2,0.6l-0.6,0.5h-5.8     L239.1,52.1z M253.4,42.5l-3-8.9l-2.9,8.9H253.4z"></path>
			<path class="st1" d="M262.5,52.1l0.7-0.2c1.6-0.5,2.1-0.9,2.3-2.9l0.9-12.6c0-0.2,0.1-1.9,0.1-2.5c0-1.5-0.5-1.9-1.8-2.3     l-0.8-0.2l0.3-1.1h5.8l6.5,16l6.7-16h4.6l0.5,0.5l-0.4,0.6c-0.8,1.1-1.2,2.2-1.2,4c0,0.4,0.1,2.3,0.1,2.8l0.6,8.7     c0.2,2.6,0.8,4.2,2.2,5.6l-0.4,0.5h-7l-0.4-1.1l0.7-0.2c1.3-0.4,1.9-0.9,1.9-2.3l0-1.2l-1-13.3L277,50.9h-1.7l-6.7-15.8l-0.7,9.8     c-0.1,1.1-0.2,2.7-0.2,3.1c0,1.8,0.3,2.9,1.1,4l0.4,0.6l-0.5,0.5h-6L262.5,52.1z"></path>
		</g>
		<g id="logo">
			<g>
				<path class="st1" d="M87.4,164.7c-7.4-14.3-7.3-28.3,1.9-41.9c4.4-6.5,10.1-11.9,16-17.1C114,98,123.1,90.9,131.6,83      c6-5.6,11.7-11.5,15.8-18.7c4.3-7.6,5.4-15.6,1.9-23.9c-3.6-8.7-10.5-15.5-19.1-19.1c-10.3-4.4-20.5-4.1-30.7,0.2      c-5.6,2.5-10.9,5.8-15.6,9.7c-0.3,0.3-0.6,0.7-1.3,0.7c1-1.6,2.2-3.1,3.5-4.5c5.4-6.1,11.5-11.2,19-14.5c4-1.7,8.1-2.7,12.4-3      c10.7-1,21.4,0.3,31.5,3.8c11.8,4.2,20.9,11.5,25.1,23.6c2.9,8.3,2.2,16.9-0.6,25.2c-2.4,7.1-6.6,13.1-11.6,18.6      c-6.2,6.6-13.1,12.5-20.6,17.6c-9.1,6.4-18.3,12.5-27.3,18.9c-9,6.4-17.3,13.5-23.3,23.1c-2.6,4.2-4.6,8.6-4.9,13.6      c-0.1,2.3,0.1,4.5,0.6,6.7C86.8,162.3,87.1,163.5,87.4,164.7z"></path>
			</g>
			<g>
				<path class="st1" d="M64.6,20.4c-3.5-2-6.9-3.1-10.8-2c-3.7,1-6.4,3.4-9.1,6.4c0.1-2.2,0.8-4.3,1.8-6.1c0.9-1.8,1.9-3.5,2.9-5.4      c-5.4-0.8-9.7,0.9-13,5c-2.4,3.1-4,6.8-4.8,10.6c-0.1,0.4-0.2,0.9-0.3,1.3c-0.1,0.1-0.1,0.2-0.2,0.4c-2.1-3.8-2.3-7.9-3-12.3      c-1.4,1.6-2.5,3.5-3.1,5.6c-1.6,5.2-0.3,10,2.3,14.6c2.2,3.8,5.1,7.2,8.5,10c0.2,0.2,0.5,0.4,1,0.7c-3.5,0.8-7.2,0.5-10.6-0.9      c-3.3-1.3-6.3-3.2-8.8-5.6c-0.2,0.6-0.3,1.2-0.1,1.7c1.3,10.2,6.7,18,15,23.8c6.3,4.4,12.7,8.5,18.7,13.2      c6.6,5,12.8,10.7,18.3,16.9c3.7,4.1,6.2,9.1,7.2,14.5c1.2,6.5,2.4,13,3.1,19.6c0,0.3,0,0.6-0.1,0.9c-0.7-1.8-1.3-3.6-2-5.4      c-4.1-11.2-10.1-21.2-19.5-28.9c-4.8-3.9-10.2-6.8-15.6-9.8c-8.6-4.8-17.2-9.7-25.2-15.7c-4.4-3.5-7.9-8-10.1-13.1      c-2.9-5.9-4.5-12.3-4.7-18.9c-0.1-5.4,1.9-10.1,4.6-14.7c1.5-2.4,3.2-4.7,5.1-6.9c2-2.3,3.3-5.1,5.4-7.3c3-3.4,7.6-5,12.1-4.4      c0,0,0.1,0,0.1,0c1.7,0.5,3.5-0.2,4.5-1.6c2.8-3.5,6.5-5.2,11.1-3.8c3.1,0.9,5,3.1,6.6,5.7c0.8,1.4,1.5,2.1,3.4,1.8      c3-0.5,5.9,0.1,8,2.7C65.1,15.4,65,17.8,64.6,20.4z"></path>
			</g>
			<g>
				<path class="st1" d="M65.4,51c-0.9,0.7-2.1,0.7-3.3,1.2c4,2.8,6.7,6.6,9.1,10.4c0.5,0.2,0.5-0.4,0.9-0.3c0,0.1,0.1,0.2,0.1,0.4      c0.1,2,0.3,4,0.4,6.1c0.2,2.9,2.1,4.5,5,4c0.6-0.1,0.5-0.5,0.6-0.8c5.5,0.7,8.5-2.8,7.2-8.5c-1.2-4.5-2.7-9-4.5-13.3      c-1.8-4.6-3.7-9.2-5.5-13.8c-0.1-0.3-0.4-0.5-0.1-1c1.2,1.7,2.2,3.4,3,5.3c3.9,7.7,7,15.7,9.5,24c0.5,1.7,0.9,3.4,0.4,5.1      c-1.1,3.1-4.3,4.9-7.5,4.2c-1-0.2-2-0.1-3,0.3c-1.7,0.8-3.7,0.6-5.3-0.4c-1.4-1-2.2-2.6-2.1-4.3c-0.1-1-0.1-1.9,0-2.9      c0.5-2.6-0.9-4.4-2.4-6.2c-2.4-2.6-5.1-4.9-8.1-6.8c-0.3-0.2-0.6-0.4-0.9-0.4c-2.7,0.5-4.6-1-6.4-2.6c-3.5-2.7-6.2-6.2-8-10.2      c-1.3-3.2,0.1-6.5,3.5-8c-0.3,0.7-0.7,1.3-0.9,1.9c-0.9,2.1-0.7,4.4,0.5,6.4c1.5,2.6,3.4,4.9,5.5,7c3.2,3.3,7.3,3.9,11.7,3.3      C64.9,50.9,65.2,50.8,65.4,51z"></path>
			</g>
			<g>
				<path class="st1" d="M79,18.8c-3.1,3.1-6,5.9-8,9.5c0-3.8,2.6-5.9,5.4-8.4c-3.8,0.2-7.5,0.8-11.1,1.9      C69.4,18.9,73.9,18.5,79,18.8z"></path>
			</g>
			<g>
				<path class="st1" d="M67.5,36.2c0.1,0.4-0.2,0.7-0.4,1c-1,1.4-1.5,1.4-2.6,0c-1.7-2.3-2-4.9-2-7.9c2,1.8,4.2,3.3,6.6,4.6      c-2.1,0.2-3.4-1-4.9-1.9c0,1.6,0.6,3.2,1.7,4.4C66.1,36.7,66.2,36.6,67.5,36.2z"></path>
			</g>
			<g>
				<path class="st1" d="M71.3,33.1c1.2-2.1-0.2-5,2.3-6.6c1.3,2.2,0.6,5-1.5,6.3C71.7,32.9,71.5,33,71.3,33.1z"></path>
			</g>
		</g>
	</g>
</g>
</svg>