<svg xmlns="http://www.w3.org/2000/svg" viewBox="0 0 288.71158 162.20325"><defs><style>.cls-1{font-size:35px;font-family:Kurale-Regular, Kurale;}.cls-1,.cls-2{fill:#f2f2f2;}</style></defs><title>Team + Heart</title><g id="Layer_2" data-name="Layer 2"><g id="Page_3" data-name="Page 3"><text class="cls-1" transform="translate(199.00748 50.66104)">TEAM</text><g id="logo"><path class="cls-2" d="M84.90667,162.20325c-7.38968-14.29483-7.32288-28.30834,1.944-41.91254,4.44709-6.52846,10.13929-11.86179,15.98589-17.06149,8.654-7.69656,17.78627-14.842,26.27011-22.73387,6.01029-5.59094,11.71952-11.46,15.76754-18.69788,4.27078-7.63623,5.41912-15.60054,1.933-23.852a34.95376,34.95376,0,0,0-19.13726-19.05718c-10.25053-4.39972-20.45135-4.06085-30.66734.24134a67.81061,67.81061,0,0,0-15.64135,9.7041c-.34443.27234-.588.72284-1.27587.70748a30.16013,30.16013,0,0,1,3.54421-4.54029C89.02427,18.922,95.11814,13.763,102.65684,10.47262a39.54925,39.54925,0,0,1,12.42632-2.98127,74.22309,74.22309,0,0,1,31.5317,3.821C158.431,15.46407,167.52411,22.84486,171.696,34.96211c2.86676,8.32647,2.23909,16.88354-.58985,25.2163-2.40877,7.09494-6.61023,13.10371-11.61027,18.58777a123.48467,123.48467,0,0,1-20.62027,17.57975c-9.05855,6.36134-18.28822,12.48034-27.30764,18.8957-8.99456,6.3977-17.30589,13.53613-23.254,23.05435-2.623,4.19739-4.649,8.56331-4.89122,13.595a23.97415,23.97415,0,0,0,.57319,6.71C84.28123,159.80609,84.60194,161.00276,84.90667,162.20325Z"></path><path class="cls-2" d="M62.07889,17.85417c-3.47419-1.9591-6.90647-3.074-10.81266-1.98461-3.709,1.0344-6.44648,3.367-9.12519,6.44019a13.96507,13.96507,0,0,1,1.84434-6.137c.87834-1.797,1.90823-3.51993,2.94475-5.40853-5.386-.75052-9.66966.86125-12.9648,4.97185a25.48,25.48,0,0,0-4.75725,10.604c-.10094.44881-.19943.89824-.30894,1.345a1.9101,1.9101,0,0,1-.22589.35351c-2.10495-3.7657-2.32439-7.92744-3.04873-12.26027a14.14117,14.14117,0,0,0-3.05664,5.59125C20.98535,26.57828,22.266,31.37981,24.84574,35.93a37.04564,37.04564,0,0,0,8.54557,10.02115c.24464.206.52282.37226,1.04651.7407A17.534,17.534,0,0,1,23.84606,45.773a28.64433,28.64433,0,0,1-8.83692-5.58136,2.75411,2.75411,0,0,0-.08888,1.74817c1.33151,10.22987,6.69991,18,14.968,23.78342,6.25194,4.37313,12.68275,8.48489,18.68268,13.21964a129.71207,129.71207,0,0,1,18.29373,16.915,30.17826,30.17826,0,0,1,7.21315,14.48838c1.19386,6.51862,2.43967,13.0205,3.095,19.62059a1.40939,1.40939,0,0,1-.1462.871q-.996-2.6934-1.99134-5.387c-4.12366-11.23568-10.102-21.21154-19.473-28.92593-4.79093-3.944-10.2291-6.8289-15.60187-9.8393C31.33513,81.85277,22.72273,77.0016,14.806,71.02A33.91153,33.91153,0,0,1,4.72083,57.94132,46.39315,46.39315,0,0,1,.00488,39.07568C-.11326,33.64959,1.92625,28.9363,4.62353,24.4229A43.24738,43.24738,0,0,1,9.718,17.571c2.03954-2.251,3.27726-5.06527,5.424-7.27637a13.74766,13.74766,0,0,1,12.06519-4.426c.04571.00525.09136.01205.13655.02066a4.12353,4.12353,0,0,0,4.48063-1.62415C34.66142.79953,38.34562-.91327,42.96131.4918c3.05717.93064,5.03979,3.13654,6.62129,5.72964.83231,1.36472,1.54826,2.10788,3.441,1.81732,2.989-.45888,5.91712.12616,7.95119,2.74922C62.59991,12.8837,62.53576,15.27042,62.07889,17.85417Z"></path><path class="cls-2" d="M62.92031,48.53472c-.89946.70847-2.05044.70917-3.28715,1.16493,4.03579,2.80356,6.655,6.59978,9.08907,10.39724.53848.23349.53066-.42005.92263-.34235a2.12717,2.12717,0,0,1,.08846.36763c.1319,2.019.27762,4.03743.3815,6.058.15076,2.93255,2.098,4.487,4.97239,4.03008.60057-.09546.49367-.48779.613-.80729,5.5434.66578,8.5321-2.8324,7.233-8.5385a91.72672,91.72672,0,0,0-4.54766-13.30374c-1.82844-4.61693-3.688-9.22152-5.51631-13.83851-.109-.27535-.37754-.54476-.14865-1.03761A30.37642,30.37642,0,0,1,75.693,37.96673a142.74187,142.74187,0,0,1,9.4617,23.95488c.4795,1.68358.94922,3.39368.35482,5.14983a6.52006,6.52006,0,0,1-7.4804,4.22964,6.01182,6.01182,0,0,0-2.95363.25012,5.56508,5.56508,0,0,1-5.28678-.43707,5.29558,5.29558,0,0,1-2.149-4.28226,12.88208,12.88208,0,0,1,.04908-2.89223c.46441-2.59114-.92376-4.39258-2.442-6.15784a43.69873,43.69873,0,0,0-8.0678-6.84789c-.25516-.1817-.59841-.43593-.85379-.39079-2.68014.47388-4.58127-1.047-6.42669-2.55491a26.57153,26.57153,0,0,1-7.98688-10.205c-1.34379-3.18719.09254-6.46375,3.52136-8.01393-.34443.728-.65959,1.31175-.90325,1.924a7.03907,7.03907,0,0,0,.46262,6.37667,36.25235,36.25235,0,0,0,5.49956,7.04056c3.21229,3.30405,7.34964,3.91715,11.7484,3.34554C62.44559,48.42933,62.65535,48.2603,62.92031,48.53472Z"></path><path class="cls-2" d="M76.48973,16.31723c-3.06515,3.11764-6.02013,5.86524-7.957,9.4645.00386-3.77763,2.62832-5.928,5.42831-8.43443a42.02739,42.02739,0,0,0-11.05347,1.94148C66.86846,16.37676,71.39715,15.9681,76.48973,16.31723Z"></path><path class="cls-2" d="M64.98545,33.74275c.10705.429-.22514.678-.42211.96151-.99655,1.43437-1.52189,1.41666-2.55313.00071-1.67815-2.30417-2.03167-4.9293-2.01591-7.93788A31.83175,31.83175,0,0,0,66.58715,31.345c-2.12932.16829-3.351-1.01178-4.91816-1.91119a6.83686,6.83686,0,0,0,1.70294,4.428C63.59975,34.1681,63.67811,34.10981,64.98545,33.74275Z"></path><path class="cls-2" d="M68.75492,30.58388c1.22214-2.14446-.1937-5.00371,2.25043-6.62853A4.57024,4.57024,0,0,1,68.75492,30.58388Z"></path></g></g></g></svg>