<svg xmlns="http://www.w3.org/2000/svg" viewBox="0 0 328.50977 151.97559"><defs><style>.cls-1,.cls-5{isolation:isolate;}.cls-1{font-size:35px;font-family:Jonah-Regular, Jonah;}.cls-1,.cls-3,.cls-5{fill:#f2f2f2;}.cls-2{letter-spacing:0.00699em;}.cls-4{fill:none;}.cls-5{font-size:20.46994px;font-family:OpenSans-Bold, Open Sans;font-weight:700;}</style></defs><title>Tetx Logo + Projects Title</title><g id="Layer_2" data-name="Layer 2"><g id="Page_2" data-name="Page 2"><text class="cls-1" transform="translate(-0.00037 144.97559)"><tspan class="cls-2">P</tspan><tspan x="14.87451" y="0">rojects</tspan></text><g id="Layer_1-2" data-name="Layer 1-2"><g id="Layer_1-2-2" data-name="Layer 1-2-2"><g id="Blue_Journey" data-name="Blue Journey"><g id="Blue_Journey_Powered_by_the_HAA" data-name="Blue Journey Powered by the HAA"><path class="cls-3" d="M27.98593,22.08955c.79934-.49954,1.49867-.79928,2.198-1.29882,2.99729-2.09811,3.69663-5.0954,3.397-8.49234a9.11078,9.11078,0,0,0-5.89472-8.0927,15.15019,15.15019,0,0,0-6.29436-.99913c-5.69482,0-11.38971.09994-17.08455,0-1.99819-.1-2.298.59949-2.298,2.39787.1,12.189,0,24.27808,0,36.46708H24.98859a16.53894,16.53894,0,0,1,2.09808-.59946,9.90132,9.90132,0,0,0,7.793-9.59133c.1-5.19532-1.79818-7.89289-6.89367-9.79117M12.69989,10.89964H20.293c2.39785.09994,4.09629,1.59856,4.09629,3.79657a4.05952,4.05952,0,0,1-3.7008,4.389q-.04785.00407-.09577.007c-2.69752.09994-5.29528,0-7.99279.09994-.59943,0-.9991-.09994-.9991-.8992V11.79884c-.09995-.79928.4997-.89919,1.09911-.89919M25.08881,30.18224a3.96692,3.96692,0,0,1-3.8353,4.09431h0q-.08051.00264-.16107.002c-2.79751.09994-5.59493,0-8.39244.09994-.79934,0-1.19887-.19988-1.19887-1.19892.09994-2.29792.09994-4.49594.09994-6.89377.29983-.79928.9991-.49955,1.49867-.49955,2.79752,0,5.495,0,8.29255.09994,2.69752.59946,3.7965,1.9982,3.69663,4.29612"></path><path class="cls-3" d="M84.535,15.29568a16.18874,16.18874,0,0,0-2.59764,21.98015c5.19526,6.59406,15.98556,7.793,22.37982,2.29793a14.70191,14.70191,0,0,0,3.59669-4.59585c.09994-.29972.69933-.89918,0-1.19891-2.39785-.59946-4.99548-.9991-7.39334-1.49864a.91268.91268,0,0,0-.49955.29973c-.79934,1.29883-2.0981,1.59856-3.397,2.198a6.117,6.117,0,0,1-8.181-2.812q-.11616-.23781-.21142-.485c-.49955-1.19891-.29983-1.59854.9991-1.59854,2.9973.09994,5.99458,0,9.09177,0h9.19167c.69929,0,1.39876,0,1.49863-.99911.09995-4.19621-.49956-8.29251-3.29708-11.38971-6.19425-7.59315-15.8856-6.39419-21.18077-2.198m14.08734,8.99185H89.53049c-1.19887,0-1.19887-.49955-.69932-1.29882a6.51921,6.51921,0,0,1,5.49505-3.297A5.73433,5.73433,0,0,1,99.62149,22.689c.49941,1.099.29953,1.59856-.99921,1.59856"></path><path class="cls-3" d="M205.52575,12.89782c-3.09719,0-3.09719,0-3.09719,3.09721,0,4.19621,0,8.39242-.19979,12.68855a5.74481,5.74481,0,0,1-3.09719,5.29522c-3.69664,1.99819-7.39335-.49955-7.59314-4.89559q-.14982-7.19349,0-14.387c0-1.29883-.19976-1.9982-1.69843-1.89828a56.02046,56.02046,0,0,1-5.7948,0c-1.29889-.09995-1.59852.49955-1.59852,1.59854V30.98152a18.43026,18.43026,0,0,0,.9991,5.29522c1.29889,3.99646,7.9928,7.99279,12.289,6.39423a23.12336,23.12336,0,0,0,6.69389-3.297c-.29981,2.39784.99911,2.59766,2.69754,2.39784,2.198-.09994,4.396,0,6.594-.09994V12.59812a32.96432,32.96432,0,0,1-6.19449.29972"></path><path class="cls-3" d="M77.841,14.19667c0-.89918-.29982-1.29883-1.29888-1.29883-2.198,0-4.39605.09995-6.594,0-1.19888,0-1.39879.49956-1.39879,1.49866V26.48559a11.28727,11.28727,0,0,1-.79933,4.79567,5.44756,5.44756,0,0,1-3.29712,2.99729c-3.69663,1.19891-6.69391-1.19891-6.8938-5.495-.09994-4.79568-.09994-9.49145,0-14.1872,0-1.19893-.19976-1.89829-1.59852-1.69847-1.9982.09995-4.09628.09995-5.99458,0-.99909,0-1.49864.29973-1.49864,1.39874,0,5.79476-.09994,11.68944.09994,17.58412.19977,7.69309,6.19436,12.189,13.68758,10.89017a14.58049,14.58049,0,0,0,5.99459-2.89737c.59942.79928-.29982,2.39784,1.49865,2.29792,2.298-.09994,4.49594,0,6.8938,0,.89923,0,1.19889-.49956,1.19889-1.29883q.00036-13.48785.00023-26.67595"></path><path class="cls-3" d="M165.462,12.19848c-9.59132-.19988-15.98557,6.694-15.88569,15.486S156.47,42.87078,165.56182,42.87078a15.34545,15.34545,0,0,0,15.87691-14.79494h0q.01218-.34539.00882-.69105c.29967-9.2916-7.9928-15.68584-15.98557-15.18629m.19976,22.87938c-4.09626,0-7.09357-3.297-7.09357-7.59315s3.09719-7.59314,7.19345-7.39326A7.14236,7.14236,0,0,1,172.666,27.464q-.00361.11036-.01066.22058a7.302,7.302,0,0,1-6.99369,7.39333"></path><path class="cls-3" d="M265.57154,22.88883a11.13283,11.13283,0,0,1-.19979-1.69847s-.19979-1.19892-.29982-1.59855l-.09993-.09995v-.09994c-3.69664-7.793-11.58952-9.59135-18.48331-4.49594-.19979.19988-.49953.49955-.89919.09994.29982-1.99819-.79935-2.0981-2.298-2.0981-2.298.09994-4.496,0-6.89382,0,0,2.99729-.09988,6.19441-.09988,9.1917,0,6.594.09988,13.38791.09988,19.982,2.298,0,4.496-.09995,6.89382,0,1.69843.09994,2.39786-.29973,2.298-2.198-.09993-3.69663,0-7.29341,0-10.99008a13.846,13.846,0,0,1,.69933-4.89558,5.60454,5.60454,0,0,1,3.09726-3.297c3.69664-1.39874,6.89379.9991,6.99366,5.19531.09994,4.89559,0,9.79116,0,14.48692,0,1.19892.29982,1.59856,1.49864,1.49866,2.39787-.09995,4.99549,0,7.39335,0a2.18952,2.18952,0,0,0,.29982-.49956c0-2.69757-.09993-16.98468,0-18.48333"></path><path class="cls-3" d="M146.47908,3.10669c-1.19887.09994-2.298,0-3.49686,0-3.79657,0-3.79657,0-3.79657,3.99645V27.98429c0,3.69663-2.298,6.29432-5.7948,6.39423-3.0972.09994-4.79572-.99911-6.19437-4.79568-.49956-1.39873-.99911-1.49864-2.198-1.29883a32.915,32.915,0,0,1-5.29527.99911c-1.69841.19981-2.09809.79927-1.59854,2.59764A13.94856,13.94856,0,0,0,130.89322,42.671c7.89288.69937,12.98828-1.69847,16.28534-7.59314a9.31986,9.31986,0,0,0,1.49864-3.69663c.29982-4.79567,0-9.59133.19978-13.58773,0-4.79567-.09994-8.69215,0-12.68855-.09994-1.49865-.79931-2.09812-2.39786-1.9982"></path><path class="cls-3" d="M45.76994,21.09046h0V1.90771c0-1.29883-.19977-1.9982-1.69842-1.89829-1.9982.09994-4.09627.09994-5.99458,0-.99912,0-1.49867.19988-1.49867,1.39874V40.473c0,1.19891.49955,1.39873,1.49867,1.39873a56.02066,56.02066,0,0,1,5.79481,0c1.59854.09995,1.99819-.59945,1.89831-1.99819-.1-6.09451-.00012-12.38883-.00012-18.783"></path><path class="cls-3" d="M234.4996,12.49821a10.46134,10.46134,0,0,0-8.49233,3.297c-.59945.59946-1.19886,1.29883-2.09809,2.39784V14.49644c.09994-.9991-.29981-1.49865-1.39876-1.49865a54.13759,54.13759,0,0,1-5.69481,0c-1.59852-.09995-2.09809.29974-2.09809,1.9982.09994,7.29341,0,14.78665,0,22.08007a28.95393,28.95393,0,0,0,.09994,5.0954c2.99727,0,5.99459-.09994,9.09174-.09994v-.09994h.09993a83.34542,83.34542,0,0,1,0-9.991c-.09993-5.79476,2.99728-9.39153,8.69209-9.89108a7.51114,7.51114,0,0,1,1.49864,0c.89923,0,1.29889-.19981,1.39876-1.29883.09994-2.198.19979-4.396.29982-6.694.09993-1.099-.39966-1.39874-1.39876-1.59855"></path><path class="cls-3" d="M319.12315,12.89782a1.71428,1.71428,0,0,0-1.99457,1.3781h0l-.0036.02064c-.89923,2.39783-1.99821,4.79566-2.99732,7.09359-1.19886,2.69757-2.298,5.29521-3.49685,7.99278a4.02635,4.02635,0,0,1-1.19885-1.89829c-1.69843-4.396-3.59669-8.69215-5.29527-13.08819-.49953-1.19891-.9991-1.59854-2.298-1.49864-2.69754.09994-5.29527,0-7.9928,0l-.09988.29973c3.79657,8.892,7.693,17.88385,11.48965,26.77589a2.78623,2.78623,0,0,1-.09993,2.198c-1.19886,2.79748-2.39787,5.59495-3.59669,8.29252-.49954.9991-.29982,1.39873.89919,1.39873,2.298-.09994,4.59583-.09994,7.09355,0a1.97354,1.97354,0,0,0,2.09809-1.49864c1.69843-4.19621,3.49685-8.29251,5.19524-12.38881,1.19886-2.79749,2.298-5.595,3.69664-8.29252,1.19886-2.198,1.69843-4.89559,2.8974-7.09359,1.59852-3.09721,2.39787-6.49414,4.19617-9.89108-2.99716.19988-5.6947.19988-8.49222.19988"></path><path class="cls-3" d="M271.96575,15.89514a16.18872,16.18872,0,0,0-2.59762,21.98015c5.19524,6.59406,15.98557,7.793,22.37981,2.29793a14.70165,14.70165,0,0,0,3.59669-4.59585c.09993-.29973.69933-.89918,0-1.19891-2.39786-.59946-4.99548-.9991-7.39335-1.49864a.91263.91263,0,0,0-.49953.29973c-.79932,1.29883-2.09809,1.59855-3.397,2.198a6.117,6.117,0,0,1-8.181-2.812h0q-.11616-.23778-.2114-.48495c-.49953-1.19892-.29982-1.59855.9991-1.59855,2.99728.09994,5.9946,0,9.09175,0h9.1917c.69932,0,1.39876,0,1.49864-.9991.09993-4.19622-.49954-8.29252-3.29706-11.38972a15.22951,15.22951,0,0,0-21.18073-2.198m13.98743,8.79206h-9.09177c-1.19886,0-1.19886-.49955-.69932-1.29883a6.51917,6.51917,0,0,1,5.495-3.297,5.73434,5.73434,0,0,1,5.29526,2.9973c.49943,1.29882.29953,1.79838-.99921,1.59855"></path></g><rect class="cls-4" x="0.51074" y="49.46484" width="312.81757" height="53.55165"></rect><text class="cls-5" transform="translate(0.53125 70.16797)">Powered by the HAA</text><text class="cls-5" transform="translate(0.53125 96.00488)">Humanitarian Animation Action</text></g></g></g></g></g></svg>