<svg xmlns="http://www.w3.org/2000/svg" viewBox="0 0 173.5686 162.39035"><defs><style>
      .cls-1 {
        fill: #f2f2f2;
      }
    </style></defs><title>logo</title><g id="Layer_2" data-name="Layer 2"><g id="Page_3" data-name="Page 3"><g id="logo"><path class="cls-1" d="M85.00359,162.39035c-7.4-14.3-7.3-28.3,1.9-41.9,4.4-6.5,10.1-11.9,16-17.1,8.7-7.7,17.8-14.8,26.3-22.7,6-5.6,11.7-11.5,15.8-18.7,4.3-7.6,5.4-15.6,1.9-23.9a35.39309,35.39309,0,0,0-19.1-19.1c-10.3-4.4-20.5-4.1-30.7.2a67.9042,67.9042,0,0,0-15.6,9.7,1.67006,1.67006,0,0,1-1.3.7,31.72915,31.72915,0,0,1,3.5-4.5c5.4-6.1,11.5-11.2,19-14.5a41.64052,41.64052,0,0,1,12.4-3,73.20887,73.20887,0,0,1,31.5,3.8c11.8,4.2,20.9,11.5,25.1,23.6,2.9,8.3,2.2,16.9-.6,25.2-2.4,7.1-6.6,13.1-11.6,18.6a123.65666,123.65666,0,0,1-20.6,17.6c-9.1,6.4-18.3,12.5-27.3,18.9s-17.3,13.5-23.3,23.1c-2.6,4.2-4.6,8.6-4.9,13.6a24.98136,24.98136,0,0,0,.6,6.7C84.40359,159.99034,84.70359,161.19034,85.00359,162.39035Z"></path><path class="cls-1" d="M62.20359,18.09034c-3.5-2-6.9-3.1-10.8-2-3.7,1-6.4,3.4-9.1,6.4a15.62287,15.62287,0,0,1,1.8-6.1c.9-1.8,1.9-3.5,2.9-5.4a13.13651,13.13651,0,0,0-13,5,25.58349,25.58349,0,0,0-4.8,10.6c-.1.4-.2.9-.3,1.3,0,.1-.1.1-.2.4-2.1-3.8-2.3-7.9-3-12.3a14.21781,14.21781,0,0,0-3.1,5.6c-1.6,5.2-.3,10,2.3,14.6a35.6,35.6,0,0,0,8.5,10,5.338,5.338,0,0,0,1,.7,17.98824,17.98824,0,0,1-10.6-.9,26.38474,26.38474,0,0,1-8.8-5.6,2.54416,2.54416,0,0,0-.1,1.7c1.3,10.2,6.7,18,15,23.8,6.3,4.4,12.7,8.5,18.7,13.2a139.41543,139.41543,0,0,1,18.3,16.9,30.154,30.154,0,0,1,7.2,14.5c1.2,6.5,2.4,13,3.1,19.6a3.08479,3.08479,0,0,1-.1.9c-.7-1.8-1.3-3.6-2-5.4-4.1-11.2-10.1-21.2-19.5-28.9-4.8-3.9-10.2-6.8-15.6-9.8-8.6-4.8-17.2-9.7-25.2-15.7a34.051,34.051,0,0,1-10.1-13.1,45.8537,45.8537,0,0,1-4.7-18.9c-.1-5.4,1.9-10.1,4.6-14.7a49.17494,49.17494,0,0,1,5.1-6.9c2-2.3,3.3-5.1,5.4-7.3a13.56856,13.56856,0,0,1,12.1-4.4h.1a4.30672,4.30672,0,0,0,4.5-1.6c2.8-3.5,6.5-5.2,11.1-3.8,3.1.9,5,3.1,6.6,5.7.8,1.4,1.5,2.1,3.4,1.8,3-.5,5.9.1,8,2.7C62.70359,13.09034,62.70359,15.49034,62.20359,18.09034Z"></path><path class="cls-1" d="M63.10359,48.69034c-.9.7-2.1.7-3.3,1.2,4,2.8,6.7,6.6,9.1,10.4.5.2.5-.4.9-.3,0,.1.1.2.1.4.1,2,.3,4,.4,6.1.2,2.9,2.1,4.5,5,4,.6-.1.5-.5.6-.8,5.5.7,8.5-2.8,7.2-8.5a90.50542,90.50542,0,0,0-4.5-13.3c-1.8-4.6-3.7-9.2-5.5-13.8-.1-.3-.4-.5-.1-1a31.1823,31.1823,0,0,1,3,5.3,146.14721,146.14721,0,0,1,9.5,24,8.936,8.936,0,0,1,.4,5.1,6.45806,6.45806,0,0,1-7.5,4.2,5.18606,5.18606,0,0,0-3,.3,5.8496,5.8496,0,0,1-5.3-.4,5.17039,5.17039,0,0,1-2.1-4.3,28.03356,28.03356,0,0,1,0-2.9c.5-2.6-.9-4.4-2.4-6.2a40.61475,40.61475,0,0,0-8.1-6.8,1.797,1.797,0,0,0-.9-.4c-2.7.5-4.6-1-6.4-2.6a26.57642,26.57642,0,0,1-8-10.2c-1.3-3.2.1-6.5,3.5-8-.3.7-.7,1.3-.9,1.9a6.90815,6.90815,0,0,0,.5,6.4,33.98334,33.98334,0,0,0,5.5,7c3.2,3.3,7.3,3.9,11.7,3.3C62.60359,48.59034,62.80359,48.49034,63.10359,48.69034Z"></path><path class="cls-1" d="M76.60359,16.49034c-3.1,3.1-6,5.9-8,9.5,0-3.8,2.6-5.9,5.4-8.4a42.92153,42.92153,0,0,0-11.1,1.9C67.00359,16.59034,71.50359,16.19034,76.60359,16.49034Z"></path><path class="cls-1" d="M65.10359,33.99034c.1.4-.2.7-.4,1-1,1.4-1.5,1.4-2.6,0-1.7-2.3-2-4.9-2-7.9a38.841,38.841,0,0,0,6.6,4.6c-2.1.2-3.4-1-4.9-1.9a6.66409,6.66409,0,0,0,1.7,4.4C63.70359,34.39034,63.80359,34.29034,65.10359,33.99034Z"></path><path class="cls-1" d="M68.90359,30.79034c1.2-2.1-.2-5,2.3-6.6A4.593,4.593,0,0,1,68.90359,30.79034Z"></path></g></g></g></svg>